<svg width="359" height="328" viewBox="0 0 359 328" fill="none" xmlns="http://www.w3.org/2000/svg">
<path d="M298.853 120.092C332.071 120.092 359 93.2086 359 60.0461C359 26.8836 332.071 0 298.853 0C265.635 0 238.707 26.8836 238.707 60.0461C238.707 93.2086 265.635 120.092 298.853 120.092Z" fill="url(#paint0_linear_444_47374)"/>
<path d="M297.914 93.8222C316.08 93.8222 330.806 79.1202 330.806 60.9844C330.806 42.8487 316.08 28.1467 297.914 28.1467C279.748 28.1467 265.021 42.8487 265.021 60.9844C265.021 79.1202 279.748 93.8222 297.914 93.8222Z" fill="url(#paint1_linear_444_47374)"/>
<path d="M46.9895 183.891C72.9411 183.891 93.9791 162.888 93.9791 136.98C93.9791 111.072 72.9411 90.0691 46.9895 90.0691C21.0379 90.0691 0 111.072 0 136.98C0 162.888 21.0379 183.891 46.9895 183.891Z" fill="#2FCF97"/>
<path d="M100.558 285.219C142.599 285.219 176.681 251.194 176.681 209.223C176.681 167.252 142.599 133.227 100.558 133.227C58.516 133.227 24.4346 167.252 24.4346 209.223C24.4346 251.194 58.516 285.219 100.558 285.219Z" fill="url(#paint2_linear_444_47374)"/>
<path d="M49.8089 316.18C84.4308 330.497 108.283 328.001 123.113 323.686C163.072 312.052 176.605 275.743 224.61 265.516C239.797 262.289 252.71 262.87 260.322 263.64C267.728 262.138 272.539 255.308 271.599 248.628C270.81 243.036 266.13 238.345 260.04 237.369C236.959 236.75 213.878 236.112 190.777 235.493C232.128 187.325 273.479 139.175 314.83 91.0071C322.141 83.0322 321.521 71.0793 314.83 64.7369C307.405 57.7003 293.666 58.6572 286.636 68.4898C265.34 91.6263 244.026 114.782 222.73 137.918" stroke="white" stroke-width="0.840749" stroke-miterlimit="10"/>
<path d="M27.2539 201.717L115.594 107.895C117.399 107.52 131.552 104.743 140.029 113.525C141.269 114.819 142.66 116.639 143.788 119.154" stroke="white" stroke-width="0.840749" stroke-miterlimit="10"/>
<path d="M130.631 126.66L175.741 102.266C179.801 101.422 188.654 100.183 198.296 104.143C202.299 105.794 205.419 107.914 207.694 109.772" stroke="white" stroke-width="0.840749" stroke-miterlimit="10"/>
<path d="M171.982 136.042L222.73 98.5129C229.704 95.5293 237.41 97.2181 241.526 102.266C245.567 107.22 244.515 113.431 244.327 114.463" stroke="white" stroke-width="0.840749" stroke-miterlimit="10"/>
<path d="M238.801 179.556C245.812 187.137 254.778 191.115 260.322 188.582C267.408 185.336 271.374 170.324 262.597 154.45" stroke="white" stroke-width="0.840749" stroke-miterlimit="10"/>
<path d="M318.589 85.3778C322.141 77.0277 319.548 67.5704 312.95 62.8606C305.075 57.2312 292.82 59.2953 286.636 68.4899C275.359 81.0057 264.081 93.5028 252.804 106.019" stroke="white" stroke-width="0.420375" stroke-miterlimit="10"/>
<defs>
<linearGradient id="paint0_linear_444_47374" x1="298.853" y1="0" x2="298.853" y2="120.092" gradientUnits="userSpaceOnUse">
<stop stop-color="#028C5C"/>
<stop offset="1" stop-color="#06CE89"/>
</linearGradient>
<linearGradient id="paint1_linear_444_47374" x1="297.914" y1="28.1467" x2="297.914" y2="93.8222" gradientUnits="userSpaceOnUse">
<stop stop-color="#028C5C"/>
<stop offset="1" stop-color="#06CE89"/>
</linearGradient>
<linearGradient id="paint2_linear_444_47374" x1="100.558" y1="133.227" x2="100.558" y2="285.219" gradientUnits="userSpaceOnUse">
<stop stop-color="#028C5C"/>
<stop offset="1" stop-color="#06CE89"/>
</linearGradient>
</defs>
</svg>
