<svg width="330" height="268" viewBox="0 0 330 268" fill="none" xmlns="http://www.w3.org/2000/svg">
<g clip-path="url(#clip0_830_44214)">
<rect width="330" height="268" fill="#EEFFF9" fill-opacity="0.2"/>
<path d="M139.869 50.5993L136.678 88.6178C136.338 92.678 132.778 95.6901 128.715 95.3505L38.7627 87.8058C34.7001 87.4662 31.6863 83.908 32.0261 79.8478L35.2171 41.8292C35.5569 37.769 39.1172 34.757 43.1798 35.0965L133.132 42.6413C137.195 42.9808 140.209 46.5538 139.869 50.5993Z" fill="url(#paint0_linear_830_44214)"/>
<path d="M171.645 191.704C197.762 191.704 218.933 170.544 218.933 144.443C218.933 118.341 197.762 97.1814 171.645 97.1814C145.528 97.1814 124.357 118.341 124.357 144.443C124.357 170.544 145.528 191.704 171.645 191.704Z" fill="url(#paint1_linear_830_44214)"/>
<path d="M284.437 276.673L97.8542 261.023C91.9303 260.521 87.5426 255.324 88.0302 249.403L89.8916 227.183C90.3938 221.262 95.5939 216.877 101.518 217.364L288.101 233.015C294.025 233.517 298.412 238.714 297.925 244.634L296.063 266.855C295.561 272.775 290.361 277.175 284.437 276.673Z" fill="url(#paint2_linear_830_44214)"/>
<path d="M156.075 52.7992C141.08 51.6475 126.086 50.4959 111.091 49.3442C107.871 49.5952 102.552 50.5106 97.2488 53.9508C85.1645 61.8055 83.6134 76.0237 83.4066 78.1645C77.261 141.947 71.1007 205.73 64.9551 269.512C64.8074 270.797 64.3051 276.703 68.412 282.195C72.6518 287.835 78.7236 288.913 79.9497 289.105C125.318 292.176 170.685 295.247 216.038 298.333C216.496 298.465 224.932 300.665 231.033 294.878C235.214 290.906 235.583 285.738 235.642 284.498C242.556 215.725 249.484 146.938 256.398 78.1645C256.442 76.8062 256.398 72.052 252.941 67.7851C248.243 62.0122 241.167 62.0122 240.251 62.027C229.866 60.8753 219.495 59.7237 209.11 58.5721C209.169 56.2245 208.992 52.9911 207.958 49.3442C207.308 47.0558 206.465 45.1216 205.653 43.5861C190.658 42.4344 175.664 41.2829 160.669 40.1312C159.458 42.3016 158.202 45.0035 157.212 48.2074C156.725 49.8167 156.341 51.367 156.075 52.7992Z" stroke="#4D5154" stroke-width="0.624323" stroke-miterlimit="10"/>
<path d="M175.678 58.5574C175.073 65.733 180.967 71.5502 187.216 71.2401C193.096 70.9448 198.207 65.29 197.602 58.5574C198.518 44.8412 199.419 31.125 200.335 17.4236C198.651 16.3015 192.889 12.7285 187.039 14.4707C179.224 16.8035 173.492 28.0097 176.698 41.0468" stroke="#4D5154" stroke-width="0.624323" stroke-miterlimit="10"/>
<path d="M76.2269 60.2406C69.7859 130.003 63.3302 199.75 56.8891 269.512C56.5346 272.318 56.1799 278.223 59.1936 284.498C64.8665 296.295 77.5269 299.1 79.1815 299.425C126.943 301.891 174.718 304.342 222.479 306.807" stroke="#4D5154" stroke-width="0.624323" stroke-miterlimit="10"/>
<path d="M86.642 66.4417L255.807 84.2181" stroke="#4D5154" stroke-width="0.624323" stroke-miterlimit="10"/>
<path d="M105.33 229.161L222.967 240.338" stroke="#4D5154" stroke-width="0.624323" stroke-miterlimit="10"/>
<path d="M105.33 250.688L214.901 260.285" stroke="#4D5154" stroke-width="0.624323" stroke-miterlimit="10"/>
<path d="M134.418 173.573C143.473 159.207 160.122 151.987 175.678 155.398C195.075 159.65 202.58 178.209 203.156 179.685" stroke="#4D5154" stroke-width="0.624323" stroke-miterlimit="10"/>
<path d="M171.069 154.231C179.987 154.231 187.216 147.006 187.216 138.094C187.216 129.181 179.987 121.956 171.069 121.956C162.152 121.956 154.923 129.181 154.923 138.094C154.923 147.006 162.152 154.231 171.069 154.231Z" stroke="#4D5154" stroke-width="0.624323" stroke-miterlimit="10"/>
</g>
<defs>
<linearGradient id="paint0_linear_830_44214" x1="85.9475" y1="35.0704" x2="85.9475" y2="95.3766" gradientUnits="userSpaceOnUse">
<stop stop-color="#028C5C"/>
<stop offset="1" stop-color="#06CE89"/>
</linearGradient>
<linearGradient id="paint1_linear_830_44214" x1="171.645" y1="97.1814" x2="171.645" y2="191.704" gradientUnits="userSpaceOnUse">
<stop stop-color="#028C5C"/>
<stop offset="1" stop-color="#06CE89"/>
</linearGradient>
<linearGradient id="paint2_linear_830_44214" x1="192.977" y1="217.327" x2="192.977" y2="276.712" gradientUnits="userSpaceOnUse">
<stop stop-color="#028C5C"/>
<stop offset="1" stop-color="#06CE89"/>
</linearGradient>
<clipPath id="clip0_830_44214">
<rect width="330" height="268" fill="white"/>
</clipPath>
</defs>
</svg>
