<svg width="330" height="268" viewBox="0 0 330 268" fill="none" xmlns="http://www.w3.org/2000/svg">
<g clip-path="url(#clip0_35_4179)">
<rect width="330" height="268" fill="#EEFFF9" fill-opacity="0.2"/>
<path d="M262.477 282.232H160.285C155.611 282.232 151.832 278.451 151.832 273.778V167.691C151.832 163.017 155.611 159.237 160.285 159.237H262.477C267.15 159.237 270.93 163.017 270.93 167.691V273.778C270.93 278.451 267.15 282.232 262.477 282.232Z" fill="#2FCF97"/>
<path d="M111.053 138.522C135.719 138.522 155.715 118.524 155.715 93.855C155.715 69.1863 135.719 49.1884 111.053 49.1884C86.387 49.1884 66.3911 69.1863 66.3911 93.855C66.3911 118.524 86.387 138.522 111.053 138.522Z" fill="url(#paint0_linear_35_4179)"/>
<path d="M135.002 91.913C154.306 91.913 169.955 76.2625 169.955 56.9565C169.955 37.6506 154.306 22 135.002 22C115.698 22 100.05 37.6506 100.05 56.9565C100.05 76.2625 115.698 91.913 135.002 91.913Z" fill="url(#paint1_linear_35_4179)"/>
<path d="M268.95 290H166.757C162.084 290 158.304 286.22 158.304 281.546V175.459C158.304 170.785 162.084 167.005 166.757 167.005H268.95C273.623 167.005 277.403 170.785 277.403 175.459V281.546C277.403 286.22 273.623 290 268.95 290Z" fill="url(#paint2_linear_35_4179)"/>
<path d="M118.627 253.904H218.397C220.417 253.192 223.627 251.742 226.708 248.842C231.381 244.414 232.935 239.248 233.466 237.022C233.466 195.397 233.466 153.773 233.466 112.136C231.77 107.721 228.741 101.455 223.33 95.1498C216.028 86.6308 207.912 82.1512 203.07 79.9502C174.926 79.9502 146.783 79.9502 118.627 79.9502C116.905 80.4292 113.332 81.698 110.186 85.0124C105.759 89.6862 105.215 95.2145 105.124 96.8329C105.124 143.001 105.124 189.157 105.124 235.325C105.034 235.895 103.661 245.036 110.186 250.525C113.384 253.218 116.969 253.762 118.627 253.904Z" stroke="#141619" stroke-width="0.600897" stroke-miterlimit="10"/>
<path d="M201.374 91.7576C198.526 98.0368 199.872 105.468 204.753 110.336C209.633 115.204 217.051 116.564 223.33 113.715" stroke="#141619" stroke-width="0.600897" stroke-miterlimit="10"/>
<path d="M105.111 113.716C94.4185 115.399 83.7255 117.095 73.0196 118.778C71.479 119.658 68.4236 121.704 66.2617 125.536C62.8571 131.582 64.2036 137.602 64.5791 139.053C70.5728 168.079 76.5794 197.106 82.5732 226.133C82.7026 226.729 84.0489 232.749 89.9132 235.325C94.8066 237.475 99.2858 235.649 100.05 235.325C101.733 234.691 103.429 234.057 105.111 233.422" stroke="#141619" stroke-width="0.600897" stroke-miterlimit="10"/>
<path d="M223.329 95.1368C242.463 100.199 261.609 105.274 280.743 110.336C281.727 110.841 284.277 112.317 285.805 115.399C288.187 120.202 286.102 124.889 285.805 125.536C279.047 155.935 272.289 186.335 265.544 216.734C265.324 218.236 264.47 222.871 260.483 226.871C259.409 227.946 255.939 231.144 250.347 231.933C244.715 231.636 239.084 231.338 233.466 231.053" stroke="#141619" stroke-width="0.600897" stroke-miterlimit="10"/>
<path d="M130.459 231.946H179.988" stroke="#141619" stroke-width="0.600897" stroke-miterlimit="10"/>
<path d="M128.75 194.789H206.203" stroke="#141619" stroke-width="0.600897" stroke-miterlimit="10"/>
<path d="M128.75 212.254H196.985" stroke="#141619" stroke-width="0.600897" stroke-miterlimit="10"/>
</g>
<defs>
<linearGradient id="paint0_linear_35_4179" x1="111.053" y1="49.1884" x2="111.053" y2="138.522" gradientUnits="userSpaceOnUse">
<stop stop-color="#028C5C"/>
<stop offset="1" stop-color="#06CE89"/>
</linearGradient>
<linearGradient id="paint1_linear_35_4179" x1="135.002" y1="22" x2="135.002" y2="91.913" gradientUnits="userSpaceOnUse">
<stop stop-color="#2DD4BF"/>
<stop offset="1" stop-color="#2DD4BF" stop-opacity="0"/>
</linearGradient>
<linearGradient id="paint2_linear_35_4179" x1="217.853" y1="167.005" x2="217.853" y2="290" gradientUnits="userSpaceOnUse">
<stop stop-color="#028C5C"/>
<stop offset="1" stop-color="#06CE89"/>
</linearGradient>
<clipPath id="clip0_35_4179">
<rect width="330" height="268" fill="white"/>
</clipPath>
</defs>
</svg>
