<svg width="112" height="98" viewBox="0 0 112 98" fill="none" xmlns="http://www.w3.org/2000/svg">
<path fill-rule="evenodd" clip-rule="evenodd" d="M38.4057 88.334C59.5022 89.4396 80.6719 73.7004 85.6895 53.1795C88.122 43.2312 86.3119 33.9854 81.3974 26.9731C91.1695 34.0097 95.8673 46.3789 92.517 60.0808C87.4994 80.6017 66.3297 96.3409 45.2332 95.2353C34.364 94.6657 25.6349 89.7358 20.412 82.2834C25.2753 85.7854 31.3954 87.9666 38.4057 88.334Z" fill="#027D52"/>
<path d="M102.318 37.7314L111 36.1756" stroke="#027D52" stroke-width="2" stroke-linecap="round"/>
<path d="M105.722 46.0375L109.75 46.9824" stroke="#027D52" stroke-width="2" stroke-linecap="round"/>
<path d="M29.1035 7.1822L27.7616 2.02686" stroke="#027D52" stroke-width="2" stroke-linecap="round"/>
<path d="M21.4643 8.67827L13.6755 1" stroke="#027D52" stroke-width="2" stroke-linecap="round"/>
<path d="M16.8365 15.7395L9.807 12.8973" stroke="#027D52" stroke-width="2" stroke-linecap="round"/>
<circle cx="38.251" cy="38.251" r="38.251" transform="matrix(0.99863 0.052336 -0.237516 0.971384 18.1705 11.6799)" stroke="#027D52" stroke-width="2"/>
<path d="M70.3815 42.2805C58.0696 42.6929 27.4559 83.6433 33.7161 43.4235" stroke="#027D52" stroke-width="2" stroke-linecap="round"/>
</svg>
