<svg width="24" height="24" viewBox="0 0 24 24" fill="none" xmlns="http://www.w3.org/2000/svg">
<path fill-rule="evenodd" clip-rule="evenodd" d="M6.06566 16.2327C5.87961 16.2327 5.69239 16.1736 5.53425 16.0531C5.15284 15.7598 5.08074 15.2138 5.37494 14.8335L8.85529 10.324C8.99716 10.1397 9.20763 10.0203 9.43787 9.99132C9.67276 9.96118 9.903 10.0261 10.0856 10.171L13.3647 12.7388L16.2334 9.04885C16.5288 8.66746 17.0753 8.59674 17.4567 8.89351C17.8382 9.18796 17.9079 9.73397 17.6126 10.113L14.2055 14.495C14.0636 14.6782 13.8543 14.7976 13.6241 14.8254C13.3915 14.8567 13.1613 14.7895 12.9775 14.6469L9.70067 12.0803L6.75755 15.8931C6.58545 16.1157 6.3273 16.2327 6.06566 16.2327Z" fill="#929BAB"/>
<mask id="mask0_733_2803" style="mask-type:alpha" maskUnits="userSpaceOnUse" x="17" y="0" width="7" height="7">
<path fill-rule="evenodd" clip-rule="evenodd" d="M17.7858 0H24V6.19609H17.7858V0Z" fill="white"/>
</mask>
<g mask="url(#mask0_733_2803)">
<path fill-rule="evenodd" clip-rule="evenodd" d="M20.8929 1.73874C20.1417 1.73874 19.5301 2.34735 19.5301 3.09738C19.5301 3.84626 20.1417 4.45719 20.8929 4.45719C21.6441 4.45719 22.2557 3.84626 22.2557 3.09738C22.2557 2.34735 21.6441 1.73874 20.8929 1.73874ZM20.8929 6.19608C19.1801 6.19608 17.7858 4.80614 17.7858 3.0974C17.7858 1.38866 19.1801 -0.00012207 20.8929 -0.00012207C22.6069 -0.00012207 24 1.38866 24 3.0974C24 4.80614 22.6069 6.19608 20.8929 6.19608Z" fill="#929BAB"/>
</g>
<mask id="mask1_733_2803" style="mask-type:alpha" maskUnits="userSpaceOnUse" x="0" y="0" width="24" height="24">
<path fill-rule="evenodd" clip-rule="evenodd" d="M0 0.976074H23.096V24H0V0.976074Z" fill="white"/>
</mask>
<g mask="url(#mask1_733_2803)">
<path fill-rule="evenodd" clip-rule="evenodd" d="M16.5505 24H6.54548C2.63023 24 -9.15527e-05 21.2584 -9.15527e-05 17.1778V7.80871C-9.15527e-05 3.72234 2.63023 0.976074 6.54548 0.976074H14.9969C15.4783 0.976074 15.8691 1.36558 15.8691 1.84551C15.8691 2.32544 15.4783 2.71495 14.9969 2.71495H6.54548C3.6291 2.71495 1.74415 4.7135 1.74415 7.80871V17.1778C1.74415 20.3136 3.58375 22.2611 6.54548 22.2611H16.5505C19.4668 22.2611 21.3518 20.266 21.3518 17.1778V9.01781C21.3518 8.53788 21.7425 8.14837 22.2239 8.14837C22.7053 8.14837 23.096 8.53788 23.096 9.01781V17.1778C23.096 21.2584 20.4657 24 16.5505 24Z" fill="#929BAB"/>
</g>
</svg>
