<svg width="201" height="135" viewBox="0 0 201 135" fill="none" xmlns="http://www.w3.org/2000/svg">
<rect width="200.41" height="134.04" rx="26.0272" fill="#14A673"/>
<path fill-rule="evenodd" clip-rule="evenodd" d="M100.153 93.2918C96.7746 93.2918 94.0327 89.8779 94.0327 85.6715V47.6204C94.0327 43.4139 96.7746 40 100.153 40C103.531 40 106.273 43.4139 106.273 47.6204V85.6715C106.273 89.8779 103.531 93.2918 100.153 93.2918Z" fill="#2FCF97"/>
<path fill-rule="evenodd" clip-rule="evenodd" d="M120.584 72.7639H79.9715C75.5712 72.7639 72 70.1428 72 66.9133C72 63.6837 75.5712 61.0626 79.9715 61.0626H120.584C124.984 61.0626 128.555 63.6837 128.555 66.9133C128.555 70.1428 124.984 72.7639 120.584 72.7639Z" fill="#2FCF97"/>
</svg>
