<svg width="34" height="34" viewBox="0 0 34 34" fill="none" xmlns="http://www.w3.org/2000/svg">
<path d="M10.6032 21.8401C10.3591 21.5493 10.3734 21.1276 10.6219 20.8542L10.6954 20.7835L22.1837 11.1389C22.5009 10.8725 22.974 10.9138 23.2404 11.231C23.4845 11.5219 23.4702 11.9436 23.2217 12.217L23.1482 12.2877L11.6599 21.9323C11.3426 22.1986 10.8695 22.1574 10.6032 21.8401Z" fill="#4D5154"/>
<path d="M14.0954 11.7364C13.6826 11.7013 13.3765 11.3383 13.4116 10.9255C13.4436 10.5503 13.7465 10.2632 14.1114 10.2405L14.2225 10.2418L22.7294 10.9655C23.1057 10.9975 23.3932 11.3021 23.4146 11.6681L23.4129 11.7795L22.6532 20.284C22.6163 20.6966 22.252 21.0012 21.8394 20.9643C21.4644 20.9308 21.1785 20.6267 21.1574 20.2617L21.1591 20.1505L21.8514 12.3962L14.0954 11.7364Z" fill="#4D5154"/>
</svg>
