<svg width="34" height="34" viewBox="0 0 34 34" fill="none" xmlns="http://www.w3.org/2000/svg">
<path fill-rule="evenodd" clip-rule="evenodd" d="M17.0001 4.60417C17.2819 4.60417 17.5522 4.71611 17.7514 4.91537C17.9507 5.11463 18.0626 5.38488 18.0626 5.66667V25.7692L24.7493 19.0825C24.8466 18.9781 24.9639 18.8944 25.0942 18.8363C25.2245 18.7782 25.3652 18.747 25.5079 18.7445C25.6506 18.742 25.7923 18.7682 25.9246 18.8217C26.0569 18.8751 26.177 18.9546 26.2779 19.0555C26.3788 19.1564 26.4584 19.2766 26.5118 19.4089C26.5652 19.5412 26.5915 19.6829 26.589 19.8256C26.5865 19.9682 26.5552 20.1089 26.4972 20.2393C26.4391 20.3696 26.3554 20.4869 26.251 20.5842L17.751 29.0842C17.5517 29.2831 17.2817 29.3949 17.0001 29.3949C16.7186 29.3949 16.4485 29.2831 16.2493 29.0842L7.7493 20.5842C7.64491 20.4869 7.56118 20.3696 7.50311 20.2393C7.44504 20.1089 7.41382 19.9682 7.4113 19.8256C7.40878 19.6829 7.43502 19.5412 7.48846 19.4089C7.5419 19.2766 7.62144 19.1564 7.72233 19.0555C7.82322 18.9546 7.94341 18.8751 8.07571 18.8217C8.20801 18.7682 8.34971 18.742 8.49238 18.7445C8.63504 18.747 8.77573 18.7782 8.90606 18.8363C9.0364 18.8944 9.1537 18.9781 9.25097 19.0825L15.9376 25.7692V5.66667C15.9376 5.38488 16.0496 5.11463 16.2488 4.91537C16.4481 4.71611 16.7183 4.60417 17.0001 4.60417Z" fill="url(#paint0_linear_89_1889)" fill-opacity="0.4"/>
<defs>
<linearGradient id="paint0_linear_89_1889" x1="7.41113" y1="16.9995" x2="26.5891" y2="16.9995" gradientUnits="userSpaceOnUse">
<stop stop-color="#053B9F"/>
<stop offset="0.291406" stop-color="#032057"/>
<stop offset="1" stop-color="#053B9F"/>
</linearGradient>
</defs>
</svg>
