<svg width="16" height="13" viewBox="0 0 16 13" fill="none" xmlns="http://www.w3.org/2000/svg">
<path d="M15.2063 6.83128L9.58125 12.4563C9.49239 12.5391 9.37486 12.5842 9.25342 12.582C9.13199 12.5799 9.01612 12.5307 8.93024 12.4448C8.84435 12.3589 8.79516 12.243 8.79302 12.1216C8.79087 12.0002 8.83595 11.8826 8.91875 11.7938L13.743 6.96878H1.125C1.00068 6.96878 0.881451 6.91939 0.793544 6.83148C0.705636 6.74358 0.65625 6.62435 0.65625 6.50003C0.65625 6.37571 0.705636 6.25648 0.793544 6.16857C0.881451 6.08066 1.00068 6.03128 1.125 6.03128H13.743L8.91875 1.20628C8.83595 1.11742 8.79087 0.999888 8.79302 0.878449C8.79516 0.757011 8.84435 0.641146 8.93024 0.555262C9.01612 0.469379 9.13199 0.420184 9.25342 0.418042C9.37486 0.415899 9.49239 0.460976 9.58125 0.543776L15.2063 6.16878C15.294 6.25667 15.3433 6.37581 15.3433 6.50003C15.3433 6.62425 15.294 6.74339 15.2063 6.83128Z" fill="white"/>
</svg>
