<svg width="21" height="22" viewBox="0 0 21 22" fill="none" xmlns="http://www.w3.org/2000/svg">
<path fill-rule="evenodd" clip-rule="evenodd" d="M8.24693 11.6698H8.27941C11.3521 11.6698 13.8506 9.1702 13.8506 6.09858C13.8506 3.02696 11.3521 0.527344 8.27941 0.527344C5.20779 0.527344 2.70922 3.02696 2.70922 6.09544C2.70398 7.57887 3.27703 8.97639 4.32255 10.0292C5.36703 11.0811 6.76036 11.6646 8.24693 11.6698ZM4.28065 6.09858C4.28065 3.89334 6.07522 2.09877 8.27941 2.09877C10.4846 2.09877 12.2792 3.89334 12.2792 6.09858C12.2792 8.30382 10.4846 10.0984 8.27941 10.0984H8.25007C7.18569 10.0942 6.18626 9.6762 5.43617 8.92192C4.68712 8.16658 4.27646 7.16611 4.28065 6.09858Z" fill="#027D52"/>
<path fill-rule="evenodd" clip-rule="evenodd" d="M0.0273438 17.4098C0.0273438 21.265 6.23868 21.265 8.27944 21.265C11.8225 21.265 16.5315 20.868 16.5315 17.4328C16.5315 13.5765 10.3202 13.5765 8.27944 13.5765C4.73639 13.5765 0.0273438 13.9736 0.0273438 17.4098ZM1.59877 17.4098C1.59877 15.9096 3.84696 15.148 8.27944 15.148C12.7119 15.148 14.9601 15.9159 14.9601 17.4328C14.9601 18.932 12.7119 19.6936 8.27944 19.6936C3.84696 19.6936 1.59877 18.9246 1.59877 17.4098Z" fill="#027D52"/>
<path d="M18.0507 12.5013C17.617 12.5013 17.265 12.1493 17.265 11.7156V10.3999H15.9093C15.4756 10.3999 15.1236 10.0479 15.1236 9.61421C15.1236 9.1805 15.4756 8.8285 15.9093 8.8285H17.265V7.5136C17.265 7.07989 17.617 6.72789 18.0507 6.72789C18.4844 6.72789 18.8364 7.07989 18.8364 7.5136V8.8285H20.194C20.6278 8.8285 20.9798 9.1805 20.9798 9.61421C20.9798 10.0479 20.6278 10.3999 20.194 10.3999H18.8364V11.7156C18.8364 12.1493 18.4844 12.5013 18.0507 12.5013Z" fill="#027D52"/>
</svg>
