<svg width="23" height="19" viewBox="0 0 23 19" fill="none" xmlns="http://www.w3.org/2000/svg">
<path fill-rule="evenodd" clip-rule="evenodd" d="M13.6763 4.98662C13.2426 4.98662 12.8906 4.63462 12.8906 4.20091V1.66462C12.8906 1.23091 13.2426 0.878906 13.6763 0.878906C14.1101 0.878906 14.4621 1.23091 14.4621 1.66462V4.20091C14.4621 4.63462 14.1101 4.98662 13.6763 4.98662" fill="#027D52"/>
<path fill-rule="evenodd" clip-rule="evenodd" d="M13.6763 18.7259C13.2426 18.7259 12.8906 18.3739 12.8906 17.9402V15.8209C12.8906 15.3861 13.2426 15.0352 13.6763 15.0352C14.1101 15.0352 14.4621 15.3861 14.4621 15.8209V17.9402C14.4621 18.3739 14.1101 18.7259 13.6763 18.7259" fill="#027D52"/>
<path fill-rule="evenodd" clip-rule="evenodd" d="M13.6763 13.0048C13.2426 13.0048 12.8906 12.6528 12.8906 12.2191V7.16853C12.8906 6.73481 13.2426 6.38281 13.6763 6.38281C14.1101 6.38281 14.4621 6.73481 14.4621 7.16853V12.2191C14.4621 12.6528 14.1101 13.0048 13.6763 13.0048" fill="#027D52"/>
<mask id="mask0_428_3429" style="mask-type:alpha" maskUnits="userSpaceOnUse" x="0" y="0" width="24" height="19">
<path fill-rule="evenodd" clip-rule="evenodd" d="M0.480469 0.617188H23.0043V18.9502H0.480469V0.617188Z" fill="white"/>
</mask>
<g mask="url(#mask0_428_3429)">
<path fill-rule="evenodd" clip-rule="evenodd" d="M2.0519 12.7214V14.7527C2.0519 16.2005 3.24933 17.3791 4.72123 17.3791H18.7635C20.2354 17.3791 21.4328 16.2005 21.4328 14.7527V12.7214C20.1223 12.3767 19.1522 11.1908 19.1522 9.7849C19.1522 8.37795 20.1212 7.19309 21.4328 6.84843L21.4318 4.815C21.4318 3.36719 20.2344 2.18862 18.7625 2.18862H4.72228C3.25037 2.18862 2.05294 3.36719 2.05294 4.815L2.0519 6.92909C3.37923 7.2549 4.33256 8.39262 4.33256 9.7849C4.33256 11.1908 3.36247 12.3767 2.0519 12.7214M18.7635 18.9505H4.72123C2.38294 18.9505 0.480469 17.0669 0.480469 14.7527V12.0373C0.480469 11.6036 0.832469 11.2516 1.26618 11.2516C2.09066 11.2516 2.76114 10.5937 2.76114 9.7849C2.76114 8.99919 2.1179 8.40623 1.26618 8.40623C1.05771 8.40623 0.857612 8.32347 0.710945 8.17576C0.563231 8.02909 0.480469 7.82795 0.480469 7.62052L0.481516 4.815C0.481516 2.50081 2.38399 0.617188 4.72228 0.617188H18.7625C21.1008 0.617188 23.0032 2.50081 23.0032 4.815L23.0043 7.53252C23.0043 7.73995 22.9215 7.94109 22.7738 8.08776C22.6271 8.23547 22.427 8.31823 22.2186 8.31823C21.3941 8.31823 20.7236 8.97614 20.7236 9.7849C20.7236 10.5937 21.3941 11.2516 22.2186 11.2516C22.6523 11.2516 23.0043 11.6036 23.0043 12.0373V14.7527C23.0043 17.0669 21.1018 18.9505 18.7635 18.9505" fill="#027D52"/>
</g>
</svg>
