<svg width="20" height="20" viewBox="0 0 20 20" fill="none" xmlns="http://www.w3.org/2000/svg">
<path d="M14.167 8.54158H13.9587V6.66659C13.9587 5.61677 13.5416 4.60995 12.7993 3.86762C12.057 3.12529 11.0501 2.70825 10.0003 2.70825C8.95051 2.70825 7.94369 3.12529 7.20136 3.86762C6.45903 4.60995 6.04199 5.61677 6.04199 6.66659V8.54158H5.83366C5.22587 8.54158 4.64298 8.78303 4.21321 9.2128C3.78343 9.64257 3.54199 10.2255 3.54199 10.8333V14.9999C3.54199 15.6077 3.78343 16.1906 4.21321 16.6204C4.64298 17.0501 5.22587 17.2916 5.83366 17.2916H14.167C14.7748 17.2916 15.3577 17.0501 15.7874 16.6204C16.2172 16.1906 16.4587 15.6077 16.4587 14.9999V10.8333C16.4587 10.2255 16.2172 9.64257 15.7874 9.2128C15.3577 8.78303 14.7748 8.54158 14.167 8.54158ZM7.29199 6.66659C7.29199 5.94829 7.57733 5.25942 8.08525 4.7515C8.59316 4.24359 9.28203 3.95825 10.0003 3.95825C10.7186 3.95825 11.4075 4.24359 11.9154 4.7515C12.4233 5.25942 12.7087 5.94829 12.7087 6.66659V8.54158H7.29199V6.66659ZM15.2087 14.9999C15.2087 15.2762 15.0989 15.5411 14.9036 15.7365C14.7082 15.9318 14.4433 16.0416 14.167 16.0416H5.83366C5.55739 16.0416 5.29244 15.9318 5.09709 15.7365C4.90174 15.5411 4.79199 15.2762 4.79199 14.9999V10.8333C4.79199 10.557 4.90174 10.292 5.09709 10.0967C5.29244 9.90133 5.55739 9.79158 5.83366 9.79158H14.167C14.4433 9.79158 14.7082 9.90133 14.9036 10.0967C15.0989 10.292 15.2087 10.557 15.2087 10.8333V14.9999Z" fill="#2F71EB"/>
</svg>
