<svg width="20" height="20" viewBox="0 0 20 20" fill="none" xmlns="http://www.w3.org/2000/svg">
<path d="M17.8352 13.5286L15.0836 13.2145C14.76 13.1765 14.4321 13.2123 14.1243 13.3193C13.8166 13.4262 13.5371 13.6015 13.3069 13.832L11.3136 15.8253C8.23841 14.2609 5.7388 11.7613 4.1744 8.68615L6.17856 6.68198C6.6444 6.21615 6.8719 5.56615 6.79606 4.90532L6.4819 2.17532C6.42071 1.64675 6.16715 1.15917 5.76956 0.805541C5.37198 0.451909 4.85816 0.256946 4.32606 0.257815H2.4519C1.22773 0.257815 0.209396 1.27615 0.28523 2.50032C0.859396 11.752 8.25856 19.1403 17.4994 19.7145C18.7236 19.7903 19.7419 18.772 19.7419 17.5478V15.6736C19.7527 14.5795 18.9294 13.6586 17.8352 13.5286Z" fill="#14A673"/>
</svg>
