<svg width="20" height="20" viewBox="0 0 20 20" fill="none" xmlns="http://www.w3.org/2000/svg">
<g id="ic:outline-shopping-cart">
<path id="Vector" d="M12.9583 10.8334C13.5833 10.8334 14.1333 10.4917 14.4166 9.97508L17.4 4.56675C17.4702 4.44044 17.5062 4.29797 17.5045 4.15346C17.5028 4.00895 17.4633 3.86739 17.3901 3.7428C17.3169 3.61821 17.2124 3.5149 17.0869 3.4431C16.9615 3.37129 16.8195 3.33349 16.675 3.33341H4.34165L3.55831 1.66675H0.833313V3.33341H2.49998L5.49998 9.65841L4.37498 11.6917C3.76665 12.8084 4.56665 14.1667 5.83331 14.1667H15.8333V12.5001H5.83331L6.74998 10.8334H12.9583ZM5.13331 5.00008H15.2583L12.9583 9.16675H7.10831L5.13331 5.00008ZM5.83331 15.0001C4.91665 15.0001 4.17498 15.7501 4.17498 16.6667C4.17498 17.5834 4.91665 18.3334 5.83331 18.3334C6.74998 18.3334 7.49998 17.5834 7.49998 16.6667C7.49998 15.7501 6.74998 15.0001 5.83331 15.0001ZM14.1666 15.0001C13.25 15.0001 12.5083 15.7501 12.5083 16.6667C12.5083 17.5834 13.25 18.3334 14.1666 18.3334C15.0833 18.3334 15.8333 17.5834 15.8333 16.6667C15.8333 15.7501 15.0833 15.0001 14.1666 15.0001Z" fill="#9095A6"/>
</g>
</svg>
