<svg width="24" height="22" viewBox="0 0 24 22" fill="none" xmlns="http://www.w3.org/2000/svg">
<path d="M12 2.25C11.6799 2.25 11.3629 2.31305 11.0672 2.43554C10.7715 2.55804 10.5028 2.73758 10.2764 2.96393C10.0501 3.19027 9.87054 3.45898 9.74804 3.75471C9.62555 4.05044 9.5625 4.3674 9.5625 4.6875C9.5625 5.0076 9.62555 5.32456 9.74804 5.62029C9.87054 5.91602 10.0501 6.18473 10.2764 6.41107C10.5028 6.63742 10.7715 6.81696 11.0672 6.93946C11.3629 7.06195 11.6799 7.125 12 7.125C12.6465 7.125 13.2665 6.86819 13.7236 6.41107C14.1807 5.95395 14.4375 5.33397 14.4375 4.6875C14.4375 4.04103 14.1807 3.42105 13.7236 2.96393C13.2665 2.50681 12.6465 2.25 12 2.25ZM7.9375 4.6875C7.9375 3.61006 8.36551 2.57675 9.12738 1.81488C9.88925 1.05301 10.9226 0.625 12 0.625C13.0774 0.625 14.1108 1.05301 14.8726 1.81488C15.6345 2.57675 16.0625 3.61006 16.0625 4.6875C16.0625 5.76494 15.6345 6.79825 14.8726 7.56012C14.1108 8.32199 13.0774 8.75 12 8.75C10.9226 8.75 9.88925 8.32199 9.12738 7.56012C8.36551 6.79825 7.9375 5.76494 7.9375 4.6875ZM5.5 12.8125C5.50108 12.5157 5.53142 12.2286 5.591 11.9513L2.432 12.7962C2.12275 12.8792 1.83288 13.0223 1.57893 13.2173C1.32499 13.4123 1.11195 13.6554 0.951995 13.9328C0.792036 14.2101 0.68829 14.5163 0.646682 14.8338C0.605074 15.1512 0.62642 15.4738 0.7095 15.783L1.34 18.1376C1.50951 18.7694 1.80445 19.3606 2.20723 19.8761C2.61002 20.3915 3.11242 20.8206 3.68451 21.1378C4.2566 21.455 4.88668 21.6538 5.53722 21.7224C6.18776 21.791 6.84545 21.728 7.47112 21.5371C7.03652 21.1156 6.66295 20.6353 6.36125 20.1104C5.59575 20.1843 4.82884 19.9843 4.19687 19.546C3.56491 19.1078 3.10884 18.4596 2.90975 17.7167L2.27762 15.3605C2.22206 15.1523 2.25145 14.9306 2.35932 14.7441C2.4672 14.5576 2.64473 14.4216 2.85287 14.366L5.5 13.6575V12.8125ZM16.6897 21.5842L16.5273 21.5387C16.9611 21.1162 17.3365 20.6369 17.6388 20.1104C18.4043 20.1843 19.1712 19.9843 19.8031 19.546C20.4351 19.1078 20.8912 18.4596 21.0903 17.7167L21.7208 15.3605C21.7764 15.1526 21.7472 14.931 21.6397 14.7446C21.5321 14.5581 21.355 14.422 21.1471 14.366L18.5 13.6575V12.8125C18.4989 12.5157 18.4686 12.2286 18.409 11.9513L21.5664 12.7962C21.8758 12.879 22.1658 13.022 22.4199 13.2169C22.6741 13.4118 22.8873 13.6549 23.0474 13.9323C23.2075 14.2097 23.3114 14.5159 23.3531 14.8335C23.3948 15.151 23.3736 15.4737 23.2905 15.783L22.66 18.1376C22.3249 19.386 21.5077 20.4502 20.3882 21.0962C19.2686 21.7423 17.9383 21.9188 16.6897 21.5842ZM2.25 7.125C2.25 6.69402 2.4212 6.2807 2.72595 5.97595C3.0307 5.67121 3.44402 5.5 3.875 5.5C4.30598 5.5 4.7193 5.67121 5.02405 5.97595C5.3288 6.2807 5.5 6.69402 5.5 7.125C5.5 7.55598 5.3288 7.9693 5.02405 8.27405C4.7193 8.57879 4.30598 8.75 3.875 8.75C3.44402 8.75 3.0307 8.57879 2.72595 8.27405C2.4212 7.9693 2.25 7.55598 2.25 7.125ZM3.875 3.875C3.01305 3.875 2.1864 4.21741 1.5769 4.8269C0.96741 5.4364 0.625 6.26305 0.625 7.125C0.625 7.98695 0.96741 8.8136 1.5769 9.4231C2.1864 10.0326 3.01305 10.375 3.875 10.375C4.73695 10.375 5.5636 10.0326 6.1731 9.4231C6.78259 8.8136 7.125 7.98695 7.125 7.125C7.125 6.26305 6.78259 5.4364 6.1731 4.8269C5.5636 4.21741 4.73695 3.875 3.875 3.875ZM20.125 5.5C19.694 5.5 19.2807 5.67121 18.976 5.97595C18.6712 6.2807 18.5 6.69402 18.5 7.125C18.5 7.55598 18.6712 7.9693 18.976 8.27405C19.2807 8.57879 19.694 8.75 20.125 8.75C20.556 8.75 20.9693 8.57879 21.274 8.27405C21.5788 7.9693 21.75 7.55598 21.75 7.125C21.75 6.69402 21.5788 6.2807 21.274 5.97595C20.9693 5.67121 20.556 5.5 20.125 5.5ZM16.875 7.125C16.875 6.26305 17.2174 5.4364 17.8269 4.8269C18.4364 4.21741 19.263 3.875 20.125 3.875C20.987 3.875 21.8136 4.21741 22.4231 4.8269C23.0326 5.4364 23.375 6.26305 23.375 7.125C23.375 7.98695 23.0326 8.8136 22.4231 9.4231C21.8136 10.0326 20.987 10.375 20.125 10.375C19.263 10.375 18.4364 10.0326 17.8269 9.4231C17.2174 8.8136 16.875 7.98695 16.875 7.125ZM9.5625 10.375C8.91603 10.375 8.29605 10.6318 7.83893 11.0889C7.38181 11.546 7.125 12.166 7.125 12.8125V16.875C7.125 18.1679 7.63861 19.4079 8.55285 20.3221C9.46709 21.2364 10.7071 21.75 12 21.75C13.2929 21.75 14.5329 21.2364 15.4471 20.3221C16.3614 19.4079 16.875 18.1679 16.875 16.875V12.8125C16.875 12.166 16.6182 11.546 16.1611 11.0889C15.704 10.6318 15.084 10.375 14.4375 10.375H9.5625ZM8.75 12.8125C8.75 12.597 8.8356 12.3903 8.98798 12.238C9.14035 12.0856 9.34701 12 9.5625 12H14.4375C14.653 12 14.8597 12.0856 15.012 12.238C15.1644 12.3903 15.25 12.597 15.25 12.8125V16.875C15.25 17.737 14.9076 18.5636 14.2981 19.1731C13.6886 19.7826 12.862 20.125 12 20.125C11.138 20.125 10.3114 19.7826 9.7019 19.1731C9.09241 18.5636 8.75 17.737 8.75 16.875V12.8125Z" fill="#997404"/>
</svg>
