<svg width="19" height="20" viewBox="0 0 19 20" fill="none" xmlns="http://www.w3.org/2000/svg">
<path d="M4.25 9.08325C4.25 6.49092 4.25 5.19384 5.01913 4.389C5.78738 3.58325 7.0255 3.58325 9.5 3.58325H12.125C14.5995 3.58325 15.8376 3.58325 16.6059 4.389C17.375 5.19384 17.375 6.49092 17.375 9.08325V13.6666C17.375 16.2589 17.375 17.556 16.6059 18.3608C15.8376 19.1666 14.5995 19.1666 12.125 19.1666H9.5C7.0255 19.1666 5.78738 19.1666 5.01913 18.3608C4.25 17.556 4.25 16.2589 4.25 13.6666V9.08325Z" stroke="#021539" stroke-width="1.5"/>
<path d="M4.25 16.4166C3.55381 16.4166 2.88613 16.1269 2.39384 15.6111C1.90156 15.0954 1.625 14.3959 1.625 13.6666V8.16659C1.625 4.70984 1.625 2.981 2.6505 1.90759C3.67512 0.833252 5.32538 0.833252 8.625 0.833252H12.125C12.8212 0.833252 13.4889 1.12298 13.9812 1.63871C14.4734 2.15443 14.75 2.85391 14.75 3.58325" stroke="#021539" stroke-width="1.5"/>
</svg>
