<svg width="29" height="28" viewBox="0 0 29 28" fill="none" xmlns="http://www.w3.org/2000/svg">
<path fill-rule="evenodd" clip-rule="evenodd" d="M22.2305 20.9551C22.0854 21.1162 21.8823 21.2131 21.6659 21.2244C21.4494 21.2358 21.2373 21.1607 21.0762 21.0156L6.67822 8.03401C6.59856 7.96208 6.53384 7.87517 6.48776 7.77824C6.44168 7.6813 6.41515 7.57624 6.40968 7.46905C6.4042 7.36186 6.41989 7.25465 6.45586 7.15352C6.49182 7.0524 6.54735 6.95935 6.61927 6.87968C6.69119 6.80002 6.7781 6.7353 6.87504 6.68922C6.97197 6.64314 7.07703 6.61661 7.18422 6.61114C7.29141 6.60566 7.39863 6.62135 7.49975 6.65732C7.60088 6.69328 7.69393 6.74881 7.77359 6.82073L22.1708 19.8016C22.3315 19.9467 22.4281 20.1497 22.4393 20.366C22.4505 20.5823 22.3754 20.7942 22.2305 20.9551Z" fill="#117C53"/>
<path fill-rule="evenodd" clip-rule="evenodd" d="M10.2149 21.1769C10.2034 20.9606 10.2784 20.7487 10.4231 20.5876C10.5679 20.4265 10.7707 20.3294 10.987 20.3178L20.9345 19.7872L20.4224 9.83865C20.415 9.62448 20.492 9.41597 20.6369 9.25803C20.7817 9.10009 20.9828 9.00537 21.1968 8.99425C21.4108 8.98314 21.6206 9.05653 21.7811 9.19861C21.9415 9.34069 22.0397 9.5401 22.0545 9.75389L22.6094 20.5181C22.6206 20.7344 22.5455 20.9463 22.4006 21.1072C22.2556 21.2682 22.0528 21.365 21.8365 21.3765L11.0733 21.9498C10.857 21.961 10.6451 21.8859 10.4841 21.741C10.3232 21.5961 10.2263 21.3932 10.2149 21.1769Z" fill="#117C53"/>
</svg>
