<svg width="20" height="24" viewBox="0 0 20 24" fill="none" xmlns="http://www.w3.org/2000/svg">
<path d="M10.6432 23.2015L10.6302 23.2037L10.5533 23.2416L10.5316 23.2459L10.5164 23.2416L10.4395 23.2026C10.428 23.1997 10.4193 23.2019 10.4135 23.2091L10.4092 23.2199L10.3908 23.6836L10.3962 23.7053L10.407 23.7193L10.5197 23.7995L10.5359 23.8038L10.5489 23.7995L10.6616 23.7193L10.6746 23.702L10.6789 23.6836L10.6605 23.221C10.6576 23.2095 10.6519 23.203 10.6432 23.2015ZM10.9292 23.0791L10.914 23.0813L10.7147 23.182L10.7039 23.1928L10.7006 23.2048L10.7201 23.6706L10.7255 23.6836L10.7342 23.6923L10.9519 23.7919C10.9657 23.7955 10.9761 23.7927 10.9834 23.7833L10.9877 23.7681L10.9509 23.1029C10.9473 23.0892 10.94 23.0813 10.9292 23.0791ZM10.1546 23.0813C10.1498 23.0784 10.1441 23.0774 10.1387 23.0786C10.1332 23.0799 10.1285 23.0831 10.1254 23.0878L10.1189 23.1029L10.082 23.7681C10.0828 23.7811 10.0889 23.7898 10.1004 23.7941L10.1167 23.7919L10.3344 23.6912L10.3453 23.6825L10.3485 23.6706L10.368 23.2048L10.3648 23.1918L10.3539 23.1809L10.1546 23.0813Z" fill="#B02A37"/>
<path d="M10.65 0.388542C10.4625 0.247901 10.2344 0.171875 10 0.171875C9.7656 0.171875 9.53752 0.247901 9.35 0.388542C8.89868 0.734318 8.48248 1.12367 8.10742 1.55096C7.54083 2.18904 6.75 3.26479 6.75 4.50521C6.75 5.36716 7.09241 6.19381 7.7019 6.80331C8.3114 7.4128 9.13805 7.75521 10 7.75521H3.5C2.63805 7.75521 1.8114 8.09762 1.2019 8.70711C0.59241 9.3166 0.25 10.1433 0.25 11.0052V13.1719C0.25 14.5109 1.77858 15.2757 2.85 14.4719L3.57258 13.9302C3.7601 13.7896 3.98818 13.7135 4.22258 13.7135C4.45698 13.7135 4.68506 13.7896 4.87258 13.9302L5.16075 14.1469C5.72331 14.5688 6.40755 14.7969 7.11075 14.7969C7.81395 14.7969 8.49819 14.5688 9.06075 14.1469L9.35 13.9302C9.53752 13.7896 9.7656 13.7135 10 13.7135C10.2344 13.7135 10.4625 13.7896 10.65 13.9302L10.9392 14.1469C11.5018 14.5688 12.186 14.7969 12.8892 14.7969C13.5925 14.7969 14.2767 14.5688 14.8392 14.1469L15.1274 13.9302C15.3149 13.7896 15.543 13.7135 15.7774 13.7135C16.0118 13.7135 16.2399 13.7896 16.4274 13.9302L17.15 14.4719C18.2214 15.2757 19.75 14.5109 19.75 13.1719V11.0052C19.75 10.1433 19.4076 9.3166 18.7981 8.70711C18.1886 8.09762 17.362 7.75521 16.5 7.75521H10C10.862 7.75521 11.6886 7.4128 12.2981 6.80331C12.9076 6.19381 13.25 5.36716 13.25 4.50521C13.25 3.26479 12.4592 2.18904 11.8926 1.55096C11.5177 1.12846 11.1018 0.727625 10.65 0.388542ZM1.33333 16.8715V19.6719C1.33333 20.2465 1.56161 20.7976 1.96794 21.2039C2.37426 21.6103 2.92536 21.8385 3.5 21.8385H16.5C17.0746 21.8385 17.6257 21.6103 18.0321 21.2039C18.4384 20.7976 18.6667 20.2465 18.6667 19.6719V16.8715C18.4145 16.9625 18.1436 16.9889 17.8787 16.9482C17.6137 16.9075 17.3632 16.8011 17.15 16.6385L16.4274 16.0969C16.2399 15.9562 16.0118 15.8802 15.7774 15.8802C15.543 15.8802 15.3149 15.9562 15.1274 16.0969L14.8392 16.3135C14.2767 16.7355 13.5925 16.9635 12.8892 16.9635C12.186 16.9635 11.5018 16.7355 10.9392 16.3135L10.65 16.0969C10.4625 15.9562 10.2344 15.8802 10 15.8802C9.7656 15.8802 9.53752 15.9562 9.35 16.0969L9.06075 16.3135C8.49819 16.7355 7.81395 16.9635 7.11075 16.9635C6.40755 16.9635 5.72331 16.7355 5.16075 16.3135L4.87258 16.0969C4.68506 15.9562 4.45698 15.8802 4.22258 15.8802C3.98818 15.8802 3.7601 15.9562 3.57258 16.0969L2.85 16.6385C2.63682 16.8011 2.38629 16.9075 2.12134 16.9482C1.85638 16.9889 1.58546 16.9625 1.33333 16.8715Z" fill="#B02A37"/>
</svg>
