<svg width="29" height="28" viewBox="0 0 29 28" fill="none" xmlns="http://www.w3.org/2000/svg">
<path fill-rule="evenodd" clip-rule="evenodd" d="M22.4121 6.86573C22.5608 7.03084 22.6378 7.24825 22.6261 7.47012C22.6145 7.69199 22.5152 7.90016 22.3501 8.04883L7.57421 21.3351C7.49236 21.4086 7.39683 21.4652 7.29308 21.5018C7.18933 21.5384 7.07939 21.5542 6.96954 21.5483C6.85968 21.5424 6.75207 21.5149 6.65284 21.4674C6.5536 21.4199 6.4647 21.3533 6.3912 21.2715C6.31769 21.1896 6.26103 21.0941 6.22445 20.9904C6.18786 20.8866 6.17207 20.7767 6.17797 20.6668C6.18388 20.557 6.21136 20.4493 6.25886 20.3501C6.30635 20.2509 6.37292 20.162 6.45478 20.0885L21.2298 6.80298C21.395 6.65466 21.6123 6.57796 21.834 6.58973C22.0556 6.60149 22.2636 6.70076 22.4121 6.86573Z" fill="#FF0404"/>
<path fill-rule="evenodd" clip-rule="evenodd" d="M21.3525 19.1375C21.1308 19.126 20.9228 19.0269 20.7741 18.8621C20.6254 18.6973 20.5482 18.4801 20.5594 18.2584L21.0844 8.06118L10.8881 7.51733C10.669 7.50192 10.4647 7.40107 10.3192 7.23649C10.1737 7.07191 10.0987 6.85678 10.1103 6.63743C10.1219 6.41808 10.2192 6.21206 10.3812 6.06374C10.5433 5.91543 10.7571 5.83668 10.9766 5.84447L22.0089 6.43214C22.2306 6.44389 22.4385 6.54316 22.5871 6.70814C22.7356 6.87312 22.8126 7.09031 22.8011 7.31201L22.2324 18.3453C22.2206 18.567 22.1214 18.7749 21.9564 18.9235C21.7914 19.072 21.5742 19.149 21.3525 19.1375Z" fill="#FF0404"/>
</svg>
