<svg width="83" height="126" viewBox="0 0 83 126" fill="none" xmlns="http://www.w3.org/2000/svg">
<path d="M80.0441 125.766H3.13381C2.54413 125.765 1.97904 125.57 1.56207 125.225C1.14511 124.88 0.910192 124.412 0.908691 123.924V90.7757C0.908691 77.5319 13.998 66.6927 29.9973 66.6927L41.589 79.2753L53.1778 66.6927C69.1771 66.6927 82.2664 77.5319 82.2664 90.7757V123.924C82.2649 124.412 82.0304 124.879 81.614 125.224C81.1977 125.569 80.6333 125.764 80.0441 125.766Z" fill="#027D52"/>
<path d="M62.993 94.1592C66.6782 94.1592 69.6656 91.6859 69.6656 88.6349C69.6656 85.5839 66.6782 83.1106 62.993 83.1106C59.3079 83.1106 56.3205 85.5839 56.3205 88.6349C56.3205 91.6859 59.3079 94.1592 62.993 94.1592Z" fill="#EEFFF9"/>
<path d="M64.5648 84.5691C64.5648 84.5691 69.052 73.3676 60.1174 66.7704" stroke="#EEFFF9" stroke-width="1.6279" stroke-miterlimit="10" stroke-linecap="round"/>
<path d="M25.6152 66.9678C25.6152 66.9678 17.8656 80.2728 17.8656 91.4743" stroke="#EEFFF9" stroke-width="1.6279" stroke-miterlimit="10" stroke-linecap="round"/>
<path d="M8.16068 119.178C7.18026 119.178 6.37604 118.609 6.37604 117.913V100.573C6.37604 96.0789 11.568 92.4039 17.9109 92.4039C24.2566 92.4039 29.4486 96.0789 29.4486 100.573V117.913C29.4486 117.913 28.6443 119.178 27.6611 119.178" stroke="#EEFFF9" stroke-width="1.92532" stroke-miterlimit="10" stroke-linecap="round"/>
<path d="M41.5892 57.945C56.482 57.945 68.555 47.0574 68.555 33.6268C68.555 20.1962 56.482 9.30853 41.5892 9.30853C26.6964 9.30853 14.6234 20.1962 14.6234 33.6268C14.6234 47.0574 26.6964 57.945 41.5892 57.945Z" fill="#027D52"/>
<path d="M15.8058 26.4793C15.8058 26.4793 14.9021 6.92066 36.7697 2.6245C58.6373 -1.67166 68.504 17.1929 68.0294 28.7826C68.0181 28.792 47.4719 15.0542 15.8058 26.4793Z" fill="#027D52" stroke="#EEFFF9" stroke-width="2.96063" stroke-miterlimit="10" stroke-linecap="round"/>
</svg>
