<svg width="86" height="119" viewBox="0 0 86 119" fill="none" xmlns="http://www.w3.org/2000/svg">
<path d="M42.783 49.3336C58.4454 49.3336 71.1424 38.3212 71.1424 24.7367C71.1424 11.1523 58.4454 0.139893 42.783 0.139893C27.1205 0.139893 14.4236 11.1523 14.4236 24.7367C14.4236 38.3212 27.1205 49.3336 42.783 49.3336Z" fill="#AEF207"/>
<path d="M83.2261 118.403H2.33944C1.71949 118.402 1.1254 118.205 0.687032 117.856C0.248662 117.507 0.00165984 117.034 0 116.541V83.0165C0 69.6203 13.7662 58.66 30.5919 58.66C30.5919 58.66 35.9971 71.2276 42.7828 71.3853C49.5684 71.543 54.9673 58.66 54.9673 58.66C71.793 58.66 85.5592 69.6203 85.5592 83.0165V116.541C85.5576 117.034 85.3115 117.506 84.8744 117.855C84.4374 118.204 83.8449 118.401 83.2261 118.403Z" fill="#AEF207"/>
</svg>
