<svg width="20" height="20" viewBox="0 0 20 20" fill="none" xmlns="http://www.w3.org/2000/svg">
<path d="M14.1665 7.50165C15.979 7.51165 16.9607 7.59248 17.6007 8.23248C18.3332 8.96498 18.3332 10.1433 18.3332 12.5V13.3333C18.3332 15.6908 18.3332 16.8691 17.6007 17.6016C16.869 18.3333 15.6898 18.3333 13.3332 18.3333H6.6665C4.30984 18.3333 3.13067 18.3333 2.399 17.6016C1.6665 16.8683 1.6665 15.6908 1.6665 13.3333V12.5C1.6665 10.1433 1.6665 8.96498 2.399 8.23248C3.039 7.59248 4.02067 7.51165 5.83317 7.50165" stroke="#2F71EB" stroke-width="1.5" stroke-linecap="round"/>
<path d="M10 1.66666V12.5M10 12.5L7.5 9.58332M10 12.5L12.5 9.58332" stroke="#2F71EB" stroke-width="1.5" stroke-linecap="round" stroke-linejoin="round"/>
</svg>
