<svg width="28" height="28" viewBox="0 0 28 28" fill="none" xmlns="http://www.w3.org/2000/svg">
<path d="M11.375 2.625C8.00187 2.625 5.25 5.37688 5.25 8.75C5.25 10.8588 6.32625 12.7313 7.95725 13.8364C4.83612 15.1751 2.625 18.2726 2.625 21.875H4.375C4.375 17.9988 7.49875 14.875 11.375 14.875C13.2519 14.875 14.9301 15.6441 16.1875 16.8438L12.0584 20.9729L12.0041 21.2459L11.4021 24.3364L11.1291 25.6209L12.4145 25.3479L15.5032 24.7459L15.7771 24.6916L24.6094 15.8594C25.6244 14.8444 25.6244 13.1556 24.6094 12.1406C24.1193 11.6552 23.4589 11.3806 22.7691 11.3755C22.0793 11.3704 21.4149 11.6353 20.9177 12.1135L17.4457 15.5864C16.6744 14.8475 15.7756 14.2546 14.7927 13.8364C15.6255 13.2746 16.3078 12.5171 16.7798 11.6303C17.2518 10.7436 17.4991 9.75456 17.5 8.75C17.5 5.37688 14.7481 2.625 11.375 2.625ZM11.375 4.375C13.8014 4.375 15.75 6.32363 15.75 8.75C15.75 11.1764 13.8014 13.125 11.375 13.125C8.94862 13.125 7 11.1764 7 8.75C7 6.32363 8.94862 4.375 11.375 4.375ZM22.75 13.125C22.9722 13.125 23.205 13.1968 23.3791 13.3709C23.4617 13.4506 23.5275 13.5462 23.5723 13.6519C23.6172 13.7575 23.6403 13.8712 23.6403 13.986C23.6403 14.1008 23.6172 14.2145 23.5723 14.3201C23.5275 14.4258 23.4617 14.5214 23.3791 14.6011L14.9021 23.0781L13.3437 23.4063L13.6719 21.8479L22.1489 13.3709C22.2268 13.2908 22.3204 13.2277 22.4238 13.1854C22.5273 13.1431 22.6383 13.1225 22.75 13.125Z" fill="black"/>
</svg>
