<svg width="370" height="224" viewBox="0 0 370 224" fill="none" xmlns="http://www.w3.org/2000/svg">
<path d="M365.012 49.2116H289.681C287.194 49.2116 285.167 47.1835 285.167 44.6956V37.8403C285.167 35.3524 287.194 33.3242 289.681 33.3242H365.012C367.499 33.3242 369.526 35.3524 369.526 37.8403V44.6956C369.526 47.197 367.513 49.2116 365.012 49.2116Z" fill="#14A673"/>
<path d="M286.572 149.81H206.416C203.929 149.81 201.902 147.781 201.902 145.294V113.221C201.902 110.733 203.929 108.705 206.416 108.705H286.572C289.059 108.705 291.086 110.733 291.086 113.221V145.294C291.086 147.795 289.059 149.81 286.572 149.81Z" fill="#52F7BE"/>
<path d="M161.844 184.437H71.632C67.1046 184.437 63.442 180.773 63.442 176.243V13.9888C63.442 9.45917 67.1046 5.79492 71.632 5.79492H161.844C166.371 5.79492 170.034 9.45917 170.034 13.9888V176.243C170.034 180.773 166.371 184.437 161.844 184.437Z" stroke="#52F7BE" stroke-width="2" stroke-miterlimit="10"/>
<path d="M322.306 184.437H228.053C223.539 184.437 219.89 180.786 219.89 176.27V13.9618C219.89 9.4457 223.539 5.79492 228.053 5.79492H322.306C326.819 5.79492 330.469 9.4457 330.469 13.9618V176.27C330.469 180.786 326.819 184.437 322.306 184.437Z" stroke="#52F7BE" stroke-width="2" stroke-miterlimit="10"/>
<path d="M116.744 109.584C131.553 109.584 143.558 97.5734 143.558 82.7578C143.558 67.9421 131.553 55.9316 116.744 55.9316C101.936 55.9316 89.931 67.9421 89.931 82.7578C89.931 97.5734 101.936 109.584 116.744 109.584Z" fill="url(#paint0_linear_440_44449)"/>
<path d="M231.715 61.07H148.869L158.505 55.9185" stroke="#52F7BE" stroke-width="2" stroke-miterlimit="10"/>
<path d="M154.005 91.2626H231.715C229.31 89.2344 226.904 87.1927 224.485 85.1646" stroke="#52F7BE" stroke-width="2" stroke-miterlimit="10"/>
<path d="M297.884 142.67V206.288C306.547 200.217 315.21 194.146 323.873 188.075C331.915 199.716 339.942 211.358 347.984 223L364.039 202.434C354.917 195.322 345.794 188.21 336.672 181.111C345.794 173.864 354.917 166.63 364.039 159.383L297.884 142.67Z" fill="#14A673"/>
<path d="M148.869 61.0698C152.194 62.3003 155.505 63.5307 158.83 64.7611" stroke="#52F7BE" stroke-width="2" stroke-miterlimit="10"/>
<path d="M231.716 91.2627L224.012 96.7252" stroke="#52F7BE" stroke-width="2" stroke-miterlimit="10"/>
<path d="M58.5901 46.1154V11.0684C58.6982 9.97322 59.1172 7.01208 61.4688 4.48361C65.4016 0.264996 71.1589 1.02218 71.7265 1.10331C80.7545 1.10331 89.7688 1.10331 98.7967 1.10331" stroke="#52F7BE" stroke-width="2" stroke-miterlimit="10"/>
<path d="M174.399 95.1162V174.472C174.561 175.5 175.196 180.34 171.993 184.748C167.736 190.603 160.533 190.4 159.951 190.373C141.382 190.373 122.799 190.373 104.23 190.373" stroke="#52F7BE" stroke-width="2" stroke-miterlimit="10"/>
<path d="M97.7967 101.742C98.067 91.628 106.027 83.5423 115.42 83.0691C125.705 82.5417 135.044 91.2764 135.003 102.404" stroke="#52F7BE" stroke-width="2" stroke-miterlimit="10"/>
<path d="M116.744 80.1618C120.887 80.1618 124.245 76.8021 124.245 72.6576C124.245 68.5131 120.887 65.1533 116.744 65.1533C112.602 65.1533 109.244 68.5131 109.244 72.6576C109.244 76.8021 112.602 80.1618 116.744 80.1618Z" stroke="#52F7BE" stroke-width="2" stroke-miterlimit="10"/>
<path d="M91.8907 72.6577C87.7011 84.7051 91.7015 97.8342 101.324 104.703C109.244 110.355 119.907 111.017 128.448 106.893C135.692 103.391 139.274 97.4826 140.544 95.1164" stroke="#52F7BE" stroke-width="2" stroke-miterlimit="10"/>
<path d="M98.3373 174.121C50.4812 188.386 12.7207 188.048 3.8144 171.687C-1.29422 162.276 2.24669 145.97 11.6395 139.804C29.2629 128.243 54.4951 160.897 79.1462 150.067C98.6481 141.494 110.649 108.854 110.649 108.854" stroke="#52F7BE" stroke-width="2" stroke-miterlimit="10"/>
<path d="M231.715 41.2749H320.549" stroke="#52F7BE" stroke-width="2" stroke-miterlimit="10"/>
<path d="M231.715 74.7939H320.549" stroke="#52F7BE" stroke-width="2" stroke-miterlimit="10"/>
<path d="M272.381 92.4664C288.491 92.4124 304.601 92.3583 320.711 92.3042" stroke="#52F7BE" stroke-width="2" stroke-miterlimit="10"/>
<path d="M225.174 119.616C257.123 119.508 289.086 119.4 321.035 119.292" stroke="#52F7BE" stroke-width="2" stroke-miterlimit="10"/>
<path d="M225.809 108.705H286.572C286.842 108.732 289.397 108.989 290.559 111.098C291.005 111.91 291.086 112.721 291.086 113.221C291.086 115.249 291.086 117.264 291.086 119.292" stroke="#52F7BE" stroke-width="2" stroke-miterlimit="10"/>
<path d="M323.86 188.075L297.884 206.288V142.67L364.039 159.383L336.672 181.111L364.039 202.434L347.97 223" stroke="#52F7BE" stroke-width="2" stroke-miterlimit="10"/>
<defs>
<linearGradient id="paint0_linear_440_44449" x1="116.744" y1="55.9316" x2="116.744" y2="109.584" gradientUnits="userSpaceOnUse">
<stop stop-color="#028C5C"/>
<stop offset="1" stop-color="#06CE89"/>
</linearGradient>
</defs>
</svg>
