<svg width="24" height="25" viewBox="0 0 24 25" fill="none" xmlns="http://www.w3.org/2000/svg">
<path fill-rule="evenodd" clip-rule="evenodd" d="M12.0001 4.2499C10.6762 4.24666 9.38106 4.63569 8.2781 5.3679C8.1961 5.42572 8.10334 5.46651 8.0053 5.48784C7.90726 5.50917 7.80593 5.51061 7.70733 5.49208C7.60872 5.47355 7.51483 5.43542 7.43123 5.37995C7.34762 5.32449 7.27599 5.25281 7.22058 5.16916C7.16518 5.08551 7.12711 4.9916 7.10865 4.89298C7.09019 4.79436 7.09171 4.69304 7.11311 4.59501C7.13451 4.49699 7.17536 4.40425 7.23324 4.3223C7.29113 4.24035 7.36487 4.17084 7.4501 4.1179C8.69356 3.29577 10.1365 2.82591 11.6257 2.75826C13.1148 2.6906 14.5944 3.02768 15.9073 3.73367C17.2202 4.43965 18.3173 5.48816 19.082 6.76776C19.8466 8.04736 20.2503 9.51023 20.2501 11.0009C20.2533 13.9252 19.7037 16.8238 18.6301 19.5439C18.5553 19.7264 18.4116 19.8721 18.2301 19.9494C18.0487 20.0267 17.8441 20.0294 17.6606 19.957C17.4772 19.8845 17.3297 19.7427 17.25 19.5623C17.1704 19.3818 17.165 19.1773 17.2351 18.9929C18.2395 16.4479 18.7535 13.7359 18.7501 10.9999C18.7501 9.20969 18.0389 7.4928 16.7731 6.22693C15.5072 4.96106 13.7903 4.2499 12.0001 4.2499ZM6.1571 6.2389C6.2392 6.29338 6.30976 6.3635 6.36475 6.44525C6.41974 6.52701 6.45808 6.6188 6.47758 6.71539C6.49708 6.81197 6.49736 6.91145 6.47841 7.00813C6.45945 7.10482 6.42162 7.19683 6.3671 7.2789C5.63543 8.38169 5.24676 9.67647 5.2501 10.9999C5.2501 12.6129 4.7871 14.1199 3.9851 15.3929C3.87901 15.5613 3.71037 15.6807 3.51627 15.7248C3.32217 15.7688 3.11851 15.734 2.9501 15.6279C2.78168 15.5218 2.66231 15.3532 2.61824 15.1591C2.57417 14.965 2.60901 14.7613 2.7151 14.5929C3.39407 13.5177 3.75305 12.2715 3.7501 10.9999C3.7501 9.3199 4.2531 7.7539 5.1171 6.4499C5.17149 6.36772 5.24156 6.29706 5.32328 6.24198C5.405 6.18689 5.49678 6.14845 5.59336 6.12885C5.68995 6.10926 5.78945 6.10889 5.88618 6.12777C5.98291 6.14665 6.07497 6.18442 6.1571 6.2389ZM12.0001 7.9999C11.2044 7.9999 10.4414 8.31597 9.87877 8.87858C9.31617 9.44119 9.0001 10.2042 9.0001 10.9999C9.0001 14.0999 7.8241 16.9269 5.8951 19.0559C5.82891 19.1289 5.74899 19.1882 5.6599 19.2303C5.57081 19.2724 5.47429 19.2966 5.37586 19.3014C5.27743 19.3063 5.17902 19.2917 5.08623 19.2584C4.99345 19.2252 4.90811 19.1741 4.8351 19.1079C4.68763 18.9742 4.59931 18.7875 4.58956 18.5887C4.57981 18.3899 4.64943 18.1954 4.7831 18.0479C6.53503 16.119 7.50393 13.6056 7.5001 10.9999C7.5001 9.80642 7.9742 8.66183 8.81812 7.81792C9.66203 6.974 10.8066 6.4999 12.0001 6.4999C13.1936 6.4999 14.3382 6.974 15.1821 7.81792C16.026 8.66183 16.5001 9.80642 16.5001 10.9999C16.5001 11.5472 16.4778 12.0892 16.4331 12.6259C16.4168 12.8241 16.3224 13.0078 16.1707 13.1364C16.019 13.2651 15.8223 13.3282 15.6241 13.3119C15.4258 13.2956 15.2422 13.2012 15.1135 13.0495C14.9849 12.8978 14.9218 12.7011 14.9381 12.5029C14.9794 12.0076 15.0001 11.5066 15.0001 10.9999C15.0001 10.2042 14.684 9.44119 14.1214 8.87858C13.5588 8.31597 12.7957 7.9999 12.0001 7.9999ZM12.0001 10.2499C12.199 10.2499 12.3898 10.3289 12.5304 10.4696C12.6711 10.6102 12.7501 10.801 12.7501 10.9999C12.7546 14.7549 11.4132 18.3872 8.9691 21.2379C8.8398 21.3891 8.65575 21.4827 8.45743 21.4982C8.25911 21.5136 8.06277 21.4497 7.9116 21.3204C7.76042 21.1911 7.6668 21.0071 7.65133 20.8087C7.63586 20.6104 7.6998 20.4141 7.8291 20.2629C10.0408 17.6839 11.2546 14.3974 11.2501 10.9999C11.2501 10.801 11.3291 10.6102 11.4698 10.4696C11.6104 10.3289 11.8012 10.2499 12.0001 10.2499ZM15.2391 15.4329C15.4303 15.4876 15.592 15.6159 15.6885 15.7898C15.7851 15.9636 15.8087 16.1687 15.7541 16.3599C15.191 18.333 14.3185 20.2042 13.1691 21.9039C13.0577 22.0687 12.8854 22.1826 12.6901 22.2203C12.4948 22.2581 12.2924 22.2168 12.1276 22.1054C11.9628 21.994 11.8489 21.8217 11.8111 21.6264C11.7734 21.4311 11.8147 21.2287 11.9261 21.0639C12.987 19.4955 13.7924 17.7687 14.3121 15.9479C14.3668 15.7567 14.4951 15.595 14.669 15.4985C14.8428 15.4019 15.0479 15.3783 15.2391 15.4329Z" fill="#2D2D2D"/>
</svg>
