<svg width="26" height="26" viewBox="0 0 26 26" fill="none" xmlns="http://www.w3.org/2000/svg">
<path d="M13 17.3333C11.8507 17.3333 10.7485 16.8768 9.93587 16.0641C9.12321 15.2515 8.66667 14.1493 8.66667 13C8.66667 11.8507 9.12321 10.7485 9.93587 9.93587C10.7485 9.12321 11.8507 8.66667 13 8.66667C14.1493 8.66667 15.2515 9.12321 16.0641 9.93587C16.8768 10.7485 17.3333 11.8507 17.3333 13C17.3333 14.1493 16.8768 15.2515 16.0641 16.0641C15.2515 16.8768 14.1493 17.3333 13 17.3333ZM13 17.3333V22.75M16.25 9.75L22.75 3.25M22.75 3.25V7.58333M22.75 3.25H18.4167M9.75 9.75L3.25 3.25M3.25 3.25V7.58333M3.25 3.25H7.58333M5.95833 9.20833L9.20833 5.95833M10.2917 20.5833H15.7083" stroke="#8BC007" stroke-width="2.16667" stroke-linecap="round" stroke-linejoin="round"/>
</svg>
