<svg width="20" height="22" viewBox="0 0 20 22" fill="none" xmlns="http://www.w3.org/2000/svg">
<path d="M4.41599 13.5V10M4.41599 10V3.75C4.41599 3.28587 4.60036 2.84075 4.92855 2.51256C5.25674 2.18437 5.70186 2 6.16599 2C6.63012 2 7.07524 2.18437 7.40343 2.51256C7.73161 2.84075 7.91599 3.28587 7.91599 3.75V9L10.993 9.478C12.922 9.767 13.886 9.912 14.565 10.318C15.687 10.991 16.5 12 16.5 13.474C16.5 14.5 16.246 15.189 15.63 17.039C15.238 18.213 15.043 18.799 14.724 19.264C14.1985 20.0292 13.4232 20.5877 12.531 20.844C11.99 21 11.371 21 10.134 21H8.72899C6.94399 21 6.05199 21 5.28599 20.665C4.93958 20.5137 4.61636 20.314 4.32599 20.072C3.68399 19.537 3.28599 18.739 2.48699 17.142C1.83999 15.848 1.51699 15.202 1.50099 14.53C1.49398 14.2276 1.53275 13.9258 1.61599 13.635C1.79999 12.989 2.27599 12.445 3.22999 11.355L4.41599 10ZM12.5 3.5H18.5M12.5 3.5C12.5 2.8 14.494 1.492 15 1M12.5 3.5C12.5 4.2 14.494 5.508 15 6" stroke="#2F71EB" stroke-width="1.5" stroke-linecap="round" stroke-linejoin="round"/>
</svg>
