<svg width="18" height="18" viewBox="0 0 18 18" fill="none" xmlns="http://www.w3.org/2000/svg">
<path d="M15.667 0.666748H2.33366C1.89199 0.666748 1.46699 0.841748 1.15866 1.15841C0.841992 1.46675 0.666992 1.89175 0.666992 2.33341V12.3334C0.666992 12.7751 0.841992 13.2001 1.15866 13.5084C1.46699 13.8251 1.89199 14.0001 2.33366 14.0001H5.66699L9.00033 17.3334L12.3337 14.0001H15.667C16.1087 14.0001 16.5337 13.8251 16.842 13.5084C17.1503 13.1917 17.3337 12.7751 17.3337 12.3334V2.33341C17.3337 1.89175 17.1587 1.46675 16.842 1.15841C16.5337 0.841748 16.1087 0.666748 15.667 0.666748ZM2.33366 12.3334V2.33341H15.667V12.3334H11.642L9.00033 14.9751L6.35866 12.3334M7.37533 4.03341C7.82533 3.73341 8.41699 3.58341 9.15866 3.58341C9.94199 3.58341 10.567 3.75841 11.017 4.10008C11.467 4.45008 11.692 4.91675 11.692 5.50008C11.692 5.86675 11.567 6.19175 11.3253 6.50008C11.0837 6.80008 10.767 7.03341 10.3837 7.20842C10.167 7.33342 10.0253 7.45841 9.95033 7.60008C9.87533 7.75008 9.83366 7.93341 9.83366 8.16675H8.16699C8.16699 7.75008 8.25033 7.46675 8.40866 7.26675C8.58366 7.06675 8.86699 6.83341 9.30033 6.56675C9.51699 6.45008 9.69199 6.30008 9.83366 6.11675C9.95033 5.94175 10.017 5.73341 10.017 5.50008C10.017 5.25008 9.94199 5.06675 9.79199 4.92508C9.64199 4.77508 9.41699 4.70841 9.15866 4.70841C8.93366 4.70841 8.75033 4.76675 8.58366 4.88341C8.45033 5.00008 8.36699 5.17508 8.36699 5.40841H6.72533C6.68366 4.83341 6.91699 4.33341 7.37533 4.03341ZM8.16699 10.6667V9.00008H9.83366V10.6667H8.16699Z" fill="#2F71EB"/>
</svg>
