<svg width="30" height="30" viewBox="0 0 30 30" fill="none" xmlns="http://www.w3.org/2000/svg">
<path d="M13.7119 2.36625C14.06 2.03712 14.5209 1.85373 15 1.85373C15.4791 1.85373 15.94 2.03712 16.2881 2.36625L25.3706 10.9519C25.9331 11.4825 26.25 12.2231 26.25 12.9956V23.4394C26.25 24.1853 25.9537 24.9007 25.4262 25.4281C24.8988 25.9556 24.1834 26.2519 23.4375 26.2519H19.6875C19.318 26.2519 18.9521 26.1791 18.6108 26.0376C18.2694 25.8961 17.9593 25.6888 17.6981 25.4274C17.4369 25.1661 17.2298 24.8558 17.0886 24.5144C16.9473 24.1729 16.8748 23.807 16.875 23.4375V18.75C16.875 18.5014 16.7762 18.2629 16.6004 18.0871C16.4246 17.9113 16.1861 17.8125 15.9375 17.8125H14.0625C13.8139 17.8125 13.5754 17.9113 13.3996 18.0871C13.2238 18.2629 13.125 18.5014 13.125 18.75V23.4375C13.125 24.1834 12.8287 24.8988 12.3012 25.4262C11.7738 25.9537 11.0584 26.25 10.3125 26.25H6.5625C5.81658 26.25 5.10121 25.9537 4.57376 25.4262C4.04632 24.8988 3.75 24.1834 3.75 23.4375V12.9937C3.75 12.2212 4.06875 11.4806 4.63125 10.95L13.7119 2.36625ZM15 3.7275L5.9175 12.315C5.8253 12.4024 5.75182 12.5077 5.70154 12.6243C5.65126 12.741 5.62522 12.8667 5.625 12.9937V23.4375C5.625 23.6861 5.72377 23.9246 5.89959 24.1004C6.0754 24.2762 6.31386 24.375 6.5625 24.375H10.3125C10.5611 24.375 10.7996 24.2762 10.9754 24.1004C11.1512 23.9246 11.25 23.6861 11.25 23.4375V18.75C11.25 18.0041 11.5463 17.2887 12.0738 16.7613C12.6012 16.2338 13.3166 15.9375 14.0625 15.9375H15.9375C16.6834 15.9375 17.3988 16.2338 17.9262 16.7613C18.4537 17.2887 18.75 18.0041 18.75 18.75V23.4375C18.75 23.6861 18.8488 23.9246 19.0246 24.1004C19.2004 24.2762 19.4389 24.375 19.6875 24.375H23.4375C23.6861 24.375 23.9246 24.2762 24.1004 24.1004C24.2762 23.9246 24.375 23.6861 24.375 23.4375V12.9937C24.375 12.8664 24.3491 12.7403 24.2988 12.6233C24.2485 12.5063 24.1749 12.4008 24.0825 12.3131L15 3.7275Z" fill="white"/>
</svg>
