<svg width="25" height="24" viewBox="0 0 25 24" fill="none" xmlns="http://www.w3.org/2000/svg">
<mask id="mask0_360_46143" style="mask-type:alpha" maskUnits="userSpaceOnUse" x="0" y="0" width="25" height="24">
<path fill-rule="evenodd" clip-rule="evenodd" d="M0.5 0H24.5V24H0.5V0Z" fill="white"/>
</mask>
<g mask="url(#mask0_360_46143)">
<path fill-rule="evenodd" clip-rule="evenodd" d="M14.2176 15.949C15.6272 15.949 16.7745 17.0349 16.7745 18.3697V21.8026C16.7745 22.0894 17.0157 22.3193 17.3247 22.326H19.5562C21.3146 22.326 22.7441 20.9801 22.7441 19.3261V9.58996C22.7359 9.02079 22.4514 8.4851 21.9632 8.12909L14.2445 2.26106C13.2084 1.47873 11.759 1.47873 10.7194 2.26329L3.05339 8.12686C2.54646 8.49403 2.26197 9.02972 2.25611 9.60894V19.3261C2.25611 20.9801 3.68559 22.326 5.44405 22.326H7.69656C8.01383 22.326 8.27139 22.086 8.27139 21.7914C8.27139 21.7267 8.27959 21.6619 8.29364 21.6006V18.3697C8.29364 17.0427 9.43394 15.958 10.833 15.949H14.2176ZM19.5562 24H17.3037C16.0135 23.971 15.0184 23.0057 15.0184 21.8026V18.3697C15.0184 17.9579 14.659 17.6231 14.2176 17.6231H10.8388C10.4068 17.6253 10.0498 17.9613 10.0498 18.3697V21.7914C10.0498 21.8751 10.038 21.9555 10.0135 22.0314C9.88702 23.1362 8.89657 24 7.69656 24H5.44405C2.71739 24 0.5 21.903 0.5 19.3261V9.60115C0.511707 8.49183 1.04791 7.47625 1.97397 6.80775L9.62477 0.954232C11.3095 -0.31803 13.6568 -0.318031 15.338 0.952L23.0438 6.8111C23.9488 7.46844 24.485 8.48178 24.5002 9.57771V19.3261C24.5002 21.903 22.2828 24 19.5562 24Z" fill="#929BAB"/>
</g>
</svg>
