<svg width="24" height="26" viewBox="0 0 24 26" fill="none" xmlns="http://www.w3.org/2000/svg">
<path d="M10.7119 1.36625C11.06 1.03712 11.5209 0.853729 12 0.853729C12.4791 0.853729 12.94 1.03712 13.2881 1.36625L22.3706 9.95187C22.9331 10.4825 23.25 11.2231 23.25 11.9956V22.4394C23.25 23.1853 22.9537 23.9007 22.4262 24.4281C21.8988 24.9556 21.1834 25.2519 20.4375 25.2519H16.6875C16.318 25.2519 15.9521 25.1791 15.6108 25.0376C15.2694 24.8961 14.9593 24.6888 14.6981 24.4274C14.4369 24.1661 14.2298 23.8558 14.0886 23.5144C13.9473 23.1729 13.8748 22.807 13.875 22.4375V17.75C13.875 17.5014 13.7762 17.2629 13.6004 17.0871C13.4246 16.9113 13.1861 16.8125 12.9375 16.8125H11.0625C10.8139 16.8125 10.5754 16.9113 10.3996 17.0871C10.2238 17.2629 10.125 17.5014 10.125 17.75V22.4375C10.125 23.1834 9.82868 23.8988 9.30124 24.4262C8.77379 24.9537 8.05842 25.25 7.3125 25.25H3.5625C2.81658 25.25 2.10121 24.9537 1.57376 24.4262C1.04632 23.8988 0.75 23.1834 0.75 22.4375V11.9937C0.75 11.2212 1.06875 10.4806 1.63125 9.95L10.7119 1.36625ZM12 2.7275L2.9175 11.315C2.8253 11.4024 2.75182 11.5077 2.70154 11.6243C2.65126 11.741 2.62522 11.8667 2.625 11.9937V22.4375C2.625 22.6861 2.72377 22.9246 2.89959 23.1004C3.0754 23.2762 3.31386 23.375 3.5625 23.375H7.3125C7.56114 23.375 7.7996 23.2762 7.97541 23.1004C8.15123 22.9246 8.25 22.6861 8.25 22.4375V17.75C8.25 17.0041 8.54632 16.2887 9.07376 15.7613C9.60121 15.2338 10.3166 14.9375 11.0625 14.9375H12.9375C13.6834 14.9375 14.3988 15.2338 14.9262 15.7613C15.4537 16.2887 15.75 17.0041 15.75 17.75V22.4375C15.75 22.6861 15.8488 22.9246 16.0246 23.1004C16.2004 23.2762 16.4389 23.375 16.6875 23.375H20.4375C20.6861 23.375 20.9246 23.2762 21.1004 23.1004C21.2762 22.9246 21.375 22.6861 21.375 22.4375V11.9937C21.375 11.8664 21.3491 11.7403 21.2988 11.6233C21.2485 11.5063 21.1749 11.4008 21.0825 11.3131L12 2.7275Z" fill="#2F71EB"/>
</svg>
