<svg width="26" height="26" viewBox="0 0 26 26" fill="none" xmlns="http://www.w3.org/2000/svg">
<g clip-path="url(#clip0_139_9959)">
<path d="M12.9441 6.13281C10.9073 6.13307 8.88916 7.00849 9.10132 8.75777L9.62132 12.56C9.71258 13.229 10.1647 14.2989 10.8399 14.2989H10.888L11.4411 20.677C11.465 20.964 11.673 21.197 11.9611 21.197H14.0411C14.3291 21.197 14.5371 20.964 14.5611 20.677L15.1141 14.2989H15.1624C15.8377 14.2989 16.2895 13.229 16.3811 12.5603L16.9011 8.75751C17.0373 7.00693 14.9812 6.13229 12.9441 6.13281Z" fill="#B02A37"/>
<path d="M13.0047 13.2344L12.9922 13.2671C12.9963 13.2573 12.9992 13.2471 13.0034 13.2372L13.0047 13.2344Z" fill="#B02A37"/>
<path d="M12.9995 5.46C14.5073 5.46 15.7295 4.23774 15.7295 2.73C15.7295 1.22226 14.5073 0 12.9995 0C11.4918 0 10.2695 1.22226 10.2695 2.73C10.2695 4.23774 11.4918 5.46 12.9995 5.46Z" fill="#B02A37"/>
<path d="M15.8397 17.9609C15.8176 18.2137 15.7942 18.4659 15.7721 18.7186C18.0996 19.0472 19.825 19.7929 20.02 20.7154C20.3104 22.0871 15.8231 22.7044 12.9324 22.6755C10.0417 22.6467 5.63706 22.0871 6.02212 20.7151C6.27484 19.8147 7.97524 19.0839 10.2419 18.7435C10.2193 18.49 10.1936 18.2365 10.1717 17.9833C7.25816 18.3047 4.8308 19.0958 3.861 20.1273H0.57954L0 21.3292H3.42316C3.68914 22.7436 6.65418 23.9646 10.894 24.273L10.7489 25.997H14.9453L14.9032 24.2732C19.1646 23.9646 22.2136 22.7436 22.5768 21.3292H26L25.5034 20.1273H22.2219C21.3008 19.0698 18.8295 18.2657 15.8397 17.9609Z" fill="#B02A37"/>
</g>
<defs>
<clipPath id="clip0_139_9959">
<rect width="26" height="26" fill="white"/>
</clipPath>
</defs>
</svg>
