<svg width="276" height="282" viewBox="0 0 276 282" fill="none" xmlns="http://www.w3.org/2000/svg">
<g opacity="0.8">
<path d="M21.1405 57.0032C21.1027 57.041 17.4987 54.2797 13.0895 50.8266C8.6803 47.3735 5.13282 44.5367 5.16427 44.4927C5.19572 44.4487 8.7998 47.2162 13.2153 50.6693C17.6307 54.1225 21.1719 56.9592 21.1405 57.0032Z" fill="#117C53"/>
<path d="M54.5273 12.511C54.4895 12.5551 50.8855 9.78752 46.4763 6.33439C42.0671 2.88127 38.5133 0.0445471 38.5511 0.000518144C38.5888 -0.0435108 42.1866 2.72402 46.6021 6.17715C51.0176 9.63028 54.5587 12.467 54.5273 12.511Z" fill="#117C53"/>
<path d="M12.6994 50.2629C12.6554 50.2252 20.285 40.413 29.7323 28.3491C39.1797 16.2852 46.8784 6.52331 46.9225 6.55476C46.9665 6.58621 39.3432 16.3984 29.8896 28.4686C20.4359 40.5388 12.7434 50.2944 12.6994 50.2629Z" fill="#117C53"/>
<path d="M273.781 168.901L233.375 182.669C232.967 182.808 232.536 182.865 232.106 182.836C231.677 182.808 231.257 182.696 230.871 182.505C230.485 182.315 230.14 182.05 229.856 181.727C229.573 181.403 229.355 181.027 229.217 180.619L201.032 97.8821C200.893 97.4745 200.835 97.0434 200.862 96.6134C200.889 96.1834 201.001 95.763 201.191 95.3763C201.381 94.9895 201.645 94.644 201.969 94.3595C202.292 94.075 202.669 93.8571 203.076 93.7183L243.482 79.9561C244.305 79.6761 245.205 79.7342 245.984 80.1175C246.764 80.5008 247.36 81.178 247.64 82.0003L275.825 164.743C275.964 165.15 276.022 165.581 275.995 166.011C275.967 166.44 275.856 166.86 275.666 167.246C275.476 167.633 275.212 167.978 274.888 168.261C274.565 168.545 274.188 168.763 273.781 168.901Z" fill="#EBEBEB"/>
<path d="M221.55 105.172C221.78 105.847 221.806 106.575 221.622 107.264C221.439 107.953 221.056 108.572 220.521 109.044C219.986 109.515 219.323 109.817 218.616 109.911C217.909 110.005 217.191 109.888 216.551 109.574C215.911 109.259 215.378 108.762 215.021 108.145C214.663 107.528 214.497 106.819 214.543 106.108C214.588 105.396 214.844 104.714 215.277 104.148C215.71 103.582 216.302 103.157 216.977 102.927C217.881 102.619 218.87 102.682 219.728 103.103C220.585 103.524 221.24 104.269 221.55 105.172Z" fill="#DFF4AD"/>
<path d="M241.363 98.4222C241.592 99.0958 241.617 99.8222 241.433 100.51C241.25 101.197 240.867 101.815 240.332 102.285C239.798 102.754 239.136 103.055 238.431 103.149C237.725 103.242 237.008 103.125 236.37 102.811C235.731 102.497 235.2 102 234.843 101.385C234.487 100.769 234.321 100.061 234.367 99.3512C234.412 98.6411 234.668 97.9605 235.1 97.3955C235.533 96.8304 236.123 96.4063 236.796 96.1768C237.244 96.0243 237.717 95.9615 238.188 95.9918C238.66 96.0221 239.121 96.1451 239.545 96.3536C239.969 96.5621 240.348 96.8521 240.66 97.2071C240.972 97.562 241.211 97.9749 241.363 98.4222Z" fill="#DFF4AD"/>
<path d="M227.816 123.596C228.045 124.269 228.07 124.996 227.886 125.683C227.703 126.371 227.32 126.988 226.785 127.458C226.251 127.928 225.589 128.229 224.884 128.322C224.178 128.416 223.461 128.298 222.823 127.984C222.184 127.67 221.653 127.174 221.297 126.558C220.94 125.942 220.774 125.235 220.82 124.525C220.866 123.815 221.121 123.134 221.553 122.569C221.986 122.004 222.576 121.58 223.25 121.35C223.697 121.197 224.17 121.134 224.642 121.163C225.114 121.193 225.575 121.316 225.999 121.525C226.423 121.733 226.802 122.024 227.114 122.379C227.426 122.735 227.664 123.148 227.816 123.596Z" fill="#DFF4AD"/>
<path d="M247.64 116.852C247.87 117.525 247.894 118.252 247.711 118.939C247.527 119.627 247.144 120.245 246.61 120.714C246.075 121.184 245.413 121.485 244.708 121.578C244.003 121.672 243.285 121.554 242.647 121.24C242.008 120.926 241.477 120.43 241.121 119.814C240.764 119.199 240.598 118.491 240.644 117.781C240.69 117.071 240.945 116.39 241.378 115.825C241.81 115.26 242.4 114.836 243.074 114.606C243.521 114.454 243.994 114.391 244.466 114.421C244.937 114.452 245.398 114.575 245.822 114.783C246.246 114.992 246.625 115.282 246.937 115.637C247.249 115.992 247.488 116.405 247.64 116.852Z" fill="#DFF4AD"/>
<path d="M234.097 142.024C234.327 142.697 234.351 143.424 234.168 144.111C233.984 144.799 233.601 145.416 233.067 145.886C232.532 146.356 231.87 146.657 231.165 146.75C230.46 146.844 229.742 146.726 229.104 146.412C228.465 146.098 227.934 145.602 227.578 144.986C227.221 144.37 227.055 143.663 227.101 142.953C227.147 142.243 227.402 141.562 227.835 140.997C228.267 140.432 228.857 140.008 229.531 139.778C229.978 139.626 230.451 139.563 230.923 139.593C231.394 139.624 231.855 139.747 232.279 139.955C232.703 140.164 233.082 140.454 233.394 140.809C233.706 141.164 233.945 141.576 234.097 142.024Z" fill="#DFF4AD"/>
<path d="M253.921 135.274C254.151 135.947 254.175 136.674 253.992 137.361C253.808 138.049 253.425 138.666 252.891 139.136C252.356 139.606 251.695 139.907 250.989 140C250.284 140.094 249.567 139.976 248.928 139.662C248.29 139.348 247.759 138.852 247.402 138.236C247.046 137.62 246.88 136.913 246.925 136.203C246.971 135.493 247.226 134.812 247.659 134.247C248.091 133.682 248.682 133.258 249.355 133.028C249.802 132.876 250.275 132.813 250.747 132.843C251.218 132.874 251.679 132.997 252.103 133.205C252.527 133.414 252.906 133.704 253.218 134.059C253.53 134.414 253.769 134.826 253.921 135.274Z" fill="#DFF4AD"/>
<path d="M240.378 160.438C240.608 161.111 240.632 161.838 240.449 162.525C240.266 163.213 239.882 163.83 239.348 164.3C238.813 164.77 238.152 165.071 237.446 165.164C236.741 165.258 236.024 165.14 235.385 164.826C234.747 164.512 234.216 164.016 233.859 163.4C233.503 162.785 233.337 162.077 233.382 161.367C233.428 160.657 233.683 159.976 234.116 159.411C234.548 158.846 235.139 158.422 235.812 158.192C236.259 158.04 236.732 157.977 237.204 158.007C237.675 158.038 238.136 158.161 238.56 158.369C238.984 158.578 239.363 158.868 239.675 159.223C239.987 159.578 240.226 159.991 240.378 160.438Z" fill="#DFF4AD"/>
<path d="M260.199 153.696C260.428 154.369 260.453 155.096 260.269 155.783C260.086 156.471 259.703 157.088 259.168 157.558C258.634 158.028 257.972 158.328 257.267 158.422C256.561 158.516 255.844 158.398 255.205 158.084C254.567 157.77 254.036 157.274 253.679 156.658C253.323 156.042 253.157 155.335 253.203 154.625C253.248 153.915 253.504 153.234 253.936 152.669C254.369 152.104 254.959 151.68 255.632 151.45C256.08 151.298 256.553 151.235 257.024 151.265C257.496 151.296 257.957 151.419 258.381 151.627C258.805 151.836 259.184 152.126 259.496 152.481C259.807 152.835 260.046 153.248 260.199 153.696Z" fill="#DFF4AD"/>
<path d="M219.62 103.242C219.237 104.307 218.765 105.338 218.211 106.324C217.745 107.356 217.189 108.345 216.551 109.28C216.934 108.216 217.406 107.185 217.96 106.198C218.425 105.166 218.981 104.177 219.62 103.242Z" fill="#117C53"/>
<path d="M239.024 96.4688C238.643 97.5354 238.174 98.5684 237.621 99.5571C237.15 100.586 236.595 101.575 235.961 102.513C236.343 101.447 236.812 100.414 237.364 99.425C237.837 98.3964 238.392 97.4078 239.024 96.4688Z" fill="#117C53"/>
<path d="M226.076 121.664C225.746 122.776 225.325 123.86 224.818 124.903C224.405 125.992 223.9 127.045 223.309 128.048C223.642 126.937 224.062 125.854 224.567 124.809C224.982 123.721 225.486 122.669 226.076 121.664Z" fill="#117C53"/>
<path d="M245.655 114.867C245.391 115.945 245.034 116.997 244.586 118.012C244.226 119.065 243.778 120.086 243.246 121.063C243.511 119.985 243.869 118.933 244.315 117.918C244.678 116.866 245.126 115.846 245.655 114.867Z" fill="#117C53"/>
<path d="M231.766 140.008C231.104 142.021 230.262 143.97 229.25 145.832C229.912 143.819 230.754 141.87 231.766 140.008Z" fill="#117C53"/>
<path d="M252.061 133.57C251.23 135.555 250.224 137.462 249.055 139.269C249.424 138.258 249.885 137.284 250.432 136.357C250.895 135.383 251.44 134.451 252.061 133.57Z" fill="#117C53"/>
<path d="M238.577 158.703C238.166 159.752 237.667 160.764 237.086 161.729C236.588 162.739 236.006 163.705 235.344 164.616C236.252 162.557 237.333 160.579 238.577 158.703Z" fill="#117C53"/>
<path d="M258.354 151.352C258.025 152.534 257.605 153.688 257.096 154.805C256.678 155.956 256.169 157.073 255.574 158.145C255.903 156.963 256.323 155.808 256.832 154.691C257.249 153.539 257.758 152.422 258.354 151.352Z" fill="#117C53"/>
<path d="M265.581 163.581C265.581 163.656 259.537 165.789 252.026 168.349C244.516 170.909 238.396 172.921 238.371 172.846C238.346 172.77 244.416 170.638 251.932 168.078C259.448 165.518 265.556 163.493 265.581 163.581Z" fill="#117C53"/>
<path d="M238.647 89.4942C238.647 89.5634 232.603 91.702 225.087 94.2619C217.57 96.8219 211.463 98.8347 211.438 98.7592C211.412 98.6837 217.482 96.5514 224.998 93.9915C232.515 91.4315 238.622 89.4188 238.647 89.4942Z" fill="#117C53"/>
<path d="M225.434 97.8224C225.399 97.8318 225.362 97.8318 225.327 97.8224H225.289L225.566 97.7344C225.566 97.7784 225.566 97.8413 225.465 97.8665C225.365 97.8916 225.314 97.8665 225.295 97.8224L225.572 97.7344C225.572 97.7344 225.572 97.7658 225.572 97.7721C225.554 97.7903 225.533 97.8043 225.509 97.8131C225.485 97.8218 225.459 97.825 225.434 97.8224Z" fill="#117C53"/>
<path d="M251.049 168.353C250.973 168.353 245.237 151.735 238.23 131.18C231.223 110.625 225.613 93.9314 225.688 93.9063C225.764 93.8811 231.5 110.524 238.501 131.086C245.501 151.647 251.124 168.328 251.049 168.353Z" fill="#117C53"/>
<path d="M101.32 276.852L103.478 244.455L166.796 248.672C167.841 248.741 168.816 249.223 169.506 250.012C170.196 250.8 170.544 251.83 170.475 252.876L168.842 277.389C168.772 278.435 168.29 279.41 167.502 280.099C166.714 280.789 165.684 281.138 164.638 281.068L101.32 276.852Z" fill="#F5F5F5"/>
<path d="M121.133 257.711L119.777 278.07L148.885 280.009L150.241 259.65L121.133 257.711Z" fill="#117C53"/>
<path d="M97.5833 242.569L95.1659 278.87C95.1174 279.597 95.6682 280.227 96.3961 280.275L105.007 280.849C105.735 280.897 106.364 280.346 106.412 279.619L108.83 243.318C108.878 242.591 108.328 241.961 107.6 241.913L98.989 241.339C98.2611 241.291 97.6318 241.842 97.5833 242.569Z" fill="#EBEBEB"/>
<path d="M106.533 277.842C104.644 277.891 102.753 277.824 100.872 277.641C98.9927 277.572 97.1191 277.389 95.2617 277.094C97.151 277.045 99.0415 277.112 100.923 277.295C102.802 277.363 104.676 277.546 106.533 277.842Z" fill="#117C53"/>
<path d="M106.744 274.699C104.865 274.751 102.985 274.684 101.114 274.498C99.2349 274.429 97.3613 274.247 95.5039 273.951C97.3827 273.906 99.2625 273.974 101.133 274.152C103.013 274.22 104.887 274.403 106.744 274.699Z" fill="#117C53"/>
<path d="M106.959 271.561C105.07 271.61 103.179 271.543 101.298 271.36C99.4185 271.291 97.5449 271.108 95.6875 270.812C97.5768 270.763 99.4673 270.831 101.348 271.014C103.228 271.083 105.101 271.265 106.959 271.561Z" fill="#117C53"/>
<path d="M107.158 268.411C105.269 268.46 103.378 268.393 101.497 268.209C99.6177 268.141 97.7441 267.958 95.8867 267.662C97.776 267.617 99.6663 267.684 101.548 267.863C103.427 267.932 105.301 268.115 107.158 268.411Z" fill="#117C53"/>
<path d="M107.367 265.28C105.489 265.328 103.609 265.261 101.738 265.078C99.8563 265.01 97.9806 264.827 96.1211 264.531C98.0104 264.482 99.9009 264.549 101.782 264.732C103.653 264.802 105.518 264.985 107.367 265.28Z" fill="#117C53"/>
<path d="M107.584 262.13C105.695 262.179 103.804 262.111 101.923 261.928C100.043 261.86 98.1699 261.677 96.3125 261.381C98.2018 261.335 100.092 261.403 101.973 261.582C103.853 261.651 105.726 261.834 107.584 262.13Z" fill="#117C53"/>
<path d="M107.795 258.991C105.906 259.04 104.015 258.973 102.134 258.789C100.254 258.721 98.3808 258.538 96.5234 258.242C98.4127 258.193 100.303 258.26 102.184 258.443C104.064 258.512 105.937 258.695 107.795 258.991Z" fill="#117C53"/>
<path d="M108.002 255.848C106.113 255.897 104.222 255.83 102.341 255.647C100.461 255.578 98.5879 255.395 96.7305 255.1C98.6197 255.054 100.51 255.122 102.391 255.301C104.271 255.369 106.145 255.552 108.002 255.848Z" fill="#117C53"/>
<path d="M108.205 252.71C106.326 252.758 104.446 252.691 102.575 252.508C100.696 252.44 98.8222 252.257 96.9648 251.961C98.8541 251.912 100.745 251.979 102.626 252.162C104.495 252.232 106.358 252.415 108.205 252.71Z" fill="#117C53"/>
<path d="M108.42 249.567C106.531 249.616 104.64 249.549 102.759 249.366C100.879 249.297 99.0058 249.114 97.1484 248.818C99.0377 248.773 100.928 248.84 102.809 249.02C104.689 249.089 106.562 249.271 108.42 249.567Z" fill="#117C53"/>
<path d="M108.631 246.42C106.741 246.469 104.851 246.402 102.97 246.219C101.09 246.151 99.2167 245.968 97.3594 245.672C99.2487 245.623 101.139 245.69 103.02 245.873C104.9 245.942 106.773 246.124 108.631 246.42Z" fill="#117C53"/>
<path d="M108.836 243.28C106.957 243.328 105.077 243.261 103.207 243.078C101.325 243.01 99.4493 242.827 97.5898 242.531C99.4791 242.482 101.37 242.549 103.251 242.732C105.122 242.802 106.987 242.985 108.836 243.28Z" fill="#117C53"/>
<path d="M162.631 274.706L160.805 274.584C160.305 274.551 159.84 274.321 159.51 273.944C159.181 273.568 159.014 273.075 159.047 272.576L159.461 266.363L165.11 266.739L164.696 272.952C164.679 273.204 164.612 273.451 164.498 273.676C164.385 273.902 164.227 274.102 164.034 274.266C163.842 274.43 163.618 274.553 163.377 274.628C163.136 274.704 162.883 274.73 162.631 274.706Z" fill="#EBEBEB"/>
<path d="M269.717 280.539C269.717 280.633 209.435 280.702 135.114 280.702C60.7936 280.702 0.511719 280.633 0.511719 280.539C0.511719 280.444 60.781 280.375 135.146 280.375C209.511 280.375 269.717 280.45 269.717 280.539Z" fill="#263238"/>
<path d="M218.322 2.67188H66.7551C63.2466 2.67188 60.4023 5.5161 60.4023 9.02462V213.287C60.4023 216.796 63.2466 219.64 66.7551 219.64H218.322C221.83 219.64 224.674 216.796 224.674 213.287V9.02462C224.674 5.5161 221.83 2.67188 218.322 2.67188Z" fill="#455A64"/>
<path d="M213.672 12.9297H71.4023V204.739H213.672V12.9297Z" fill="#DFF4AD"/>
<path d="M213.673 204.734C213.673 203.425 213.61 126.494 213.522 12.8933L213.673 13.038H71.4157L71.5793 12.8745C71.5793 84.4089 71.5793 150.691 71.5793 204.715L71.4409 204.576L213.717 204.715L71.4409 204.847H71.3088V204.715C71.3088 150.723 71.3088 84.4404 71.2773 12.8745V12.7109H71.4598H213.717H213.862V12.8619C213.736 126.475 213.673 203.425 213.673 204.734Z" fill="#263238"/>
<path d="M101.346 45.1145L98.0313 40.1266H94.3643V45.1145H90.3828V27.2135H97.83C99.1973 27.1811 100.555 27.4517 101.805 28.0061C102.869 28.4804 103.77 29.2568 104.397 30.239C105.025 31.2788 105.342 32.4774 105.309 33.6921C105.347 34.913 105.025 36.1183 104.384 37.1578C103.752 38.1346 102.843 38.901 101.774 39.3592L105.636 45.1145H101.346ZM100.34 31.3963C99.557 30.8066 98.5872 30.5205 97.6098 30.5912H94.3643V36.8307H97.6098C98.5898 36.8983 99.5607 36.6053 100.34 36.0068C100.941 35.3901 101.277 34.5628 101.277 33.7015C101.277 32.8402 100.941 32.013 100.34 31.3963Z" fill="#DFF4AD"/>
<path d="M110.057 57.4887L106.12 51.6265L102.252 57.5138H97.918L103.956 48.8905L98.2199 40.5564H102.51L106.283 46.0537L109.95 40.5312H114.026L108.365 48.7081L114.448 57.4761L110.057 57.4887Z" fill="#DFF4AD"/>
<path d="M164.269 31.4922H139.852V37.5367H164.269V31.4922Z" fill="#117C53"/>
<path d="M200.075 35.312C200.075 35.4063 193.395 35.4755 185.155 35.4755C176.916 35.4755 170.242 35.4063 170.242 35.312C170.242 35.2176 176.916 35.1484 185.155 35.1484C193.395 35.1484 200.075 35.2239 200.075 35.312Z" fill="#263238"/>
<path d="M199.517 42.5604C199.517 42.6485 186.157 42.724 169.684 42.724C153.211 42.724 139.852 42.6485 139.852 42.5604C139.852 42.4724 153.205 42.3906 169.684 42.3906C186.164 42.3906 199.517 42.4661 199.517 42.5604Z" fill="#263238"/>
<path d="M199.517 49.6713C199.517 49.7594 186.157 49.8349 169.684 49.8349C153.211 49.8349 139.852 49.7594 139.852 49.6713C139.852 49.5833 153.205 49.5078 169.684 49.5078C186.164 49.5078 199.517 49.577 199.517 49.6713Z" fill="#263238"/>
<path d="M208.817 68.6073C208.817 68.6954 179.135 68.7709 142.535 68.7709C105.934 68.7709 76.2461 68.6954 76.2461 68.6073C76.2461 68.5193 105.915 68.4375 142.535 68.4375C179.154 68.4375 208.817 68.5004 208.817 68.6073Z" fill="#263238"/>
<path d="M208.817 175.828C208.817 175.916 179.135 175.991 142.535 175.991C105.934 175.991 76.2461 175.916 76.2461 175.828C76.2461 175.74 105.915 175.664 142.535 175.664C179.154 175.664 208.817 175.733 208.817 175.828Z" fill="#263238"/>
<path d="M128.075 79.4453H87.1719V87.1189H128.075V79.4453Z" fill="#117C53"/>
<path d="M104.878 186.773H87.1719V194.447H104.878V186.773Z" fill="#117C53"/>
<path d="M164.327 186.773H146.621V194.447H164.327V186.773Z" fill="#117C53"/>
<path d="M134.552 192.085C134.552 192.18 129.023 192.249 122.205 192.249C115.387 192.249 109.852 192.18 109.852 192.085C109.852 191.991 115.38 191.922 122.205 191.922C129.029 191.922 134.552 191.997 134.552 192.085Z" fill="#263238"/>
<path d="M198.134 192.085C198.134 192.18 192.605 192.249 185.787 192.249C178.969 192.249 173.434 192.18 173.434 192.085C173.434 191.991 178.962 191.922 185.787 191.922C192.611 191.922 198.134 191.997 198.134 192.085Z" fill="#263238"/>
<path d="M196.666 98.6714C196.666 98.7594 172.431 98.8349 142.573 98.8349C112.715 98.8349 88.4805 98.7594 88.4805 98.6714C88.4805 98.5833 112.703 98.5078 142.573 98.5078C172.444 98.5078 196.666 98.577 196.666 98.6714Z" fill="#263238"/>
<path d="M198.764 107.429C198.764 107.524 174.064 107.593 143.602 107.593C113.14 107.593 88.4336 107.524 88.4336 107.429C88.4336 107.335 113.128 107.266 143.602 107.266C174.076 107.266 198.764 107.341 198.764 107.429Z" fill="#263238"/>
<path d="M141.919 116.195C141.919 116.283 129.66 116.358 114.545 116.358C99.4308 116.358 87.1719 116.283 87.1719 116.195C87.1719 116.107 99.4245 116.031 114.545 116.031C129.666 116.031 141.919 116.1 141.919 116.195Z" fill="#263238"/>
<path d="M197.96 147.951C197.96 147.951 197.84 148.002 197.595 148.077L196.526 148.404C195.144 148.815 193.739 149.143 192.318 149.385C191.291 149.566 190.252 149.665 189.211 149.681C187.964 149.706 186.721 149.551 185.518 149.222C184.133 148.826 182.858 148.118 181.789 147.153C180.583 146.051 179.791 144.571 179.543 142.957C179.414 142.086 179.52 141.195 179.851 140.378C180.222 139.529 180.829 138.804 181.6 138.29C181.998 138.014 182.447 137.82 182.922 137.72C183.396 137.619 183.885 137.614 184.361 137.705C184.843 137.824 185.296 138.038 185.695 138.334C186.083 138.659 186.407 139.054 186.651 139.498C187.113 140.418 187.344 141.437 187.324 142.467C187.328 143.52 187.136 144.565 186.758 145.549C185.936 147.584 184.583 149.361 182.839 150.694C181.012 152.114 178.842 153.025 176.549 153.335C175.373 153.503 174.179 153.488 173.008 153.291C172.413 153.196 171.826 153.055 171.253 152.87C170.68 152.659 170.121 152.411 169.58 152.128C168.501 151.526 167.54 150.733 166.743 149.788C165.92 148.823 165.344 147.673 165.064 146.436C164.756 145.165 164.915 143.826 165.51 142.662C166.101 141.484 167.081 140.546 168.284 140.007C168.893 139.732 169.562 139.615 170.228 139.668C170.888 139.733 171.519 139.972 172.058 140.36C173.081 141.17 173.786 142.315 174.052 143.593C174.341 144.816 174.409 146.081 174.253 147.329C174.13 148.55 173.858 149.752 173.442 150.908C172.67 153.187 171.307 155.221 169.492 156.801C167.728 158.315 165.521 159.217 163.202 159.374C161.06 159.592 158.91 159.04 157.137 157.817C155.364 156.594 154.085 154.78 153.528 152.7C152.959 150.843 153.034 148.848 153.742 147.039C154.075 146.176 154.647 145.426 155.39 144.876C155.762 144.604 156.193 144.425 156.648 144.354C157.095 144.288 157.552 144.374 157.944 144.599C158.303 144.833 158.603 145.146 158.821 145.515C159.039 145.884 159.17 146.298 159.202 146.725C159.307 147.506 159.275 148.3 159.107 149.071C158.859 150.477 158.436 151.846 157.849 153.147C157.341 154.277 156.708 155.346 155.962 156.336C155.339 157.174 154.636 157.949 153.862 158.65C152.806 159.635 151.616 160.466 150.327 161.116C149.996 161.292 149.656 161.45 149.308 161.588L148.949 161.726L149.295 161.556C149.522 161.443 149.874 161.305 150.302 161.059C151.569 160.381 152.739 159.534 153.78 158.543C155.432 156.987 156.765 155.124 157.705 153.059C158.292 151.773 158.715 150.418 158.963 149.027C159.116 148.276 159.144 147.504 159.044 146.744C159.014 146.352 158.895 145.973 158.697 145.634C158.498 145.295 158.226 145.006 157.9 144.788C157.551 144.589 157.145 144.513 156.749 144.574C156.34 144.647 155.954 144.815 155.623 145.064C154.917 145.587 154.376 146.301 154.063 147.121C153.382 148.88 153.317 150.818 153.88 152.618C154.427 154.631 155.67 156.385 157.389 157.567C159.108 158.748 161.19 159.282 163.265 159.072C165.514 158.91 167.651 158.027 169.36 156.556C171.132 155.011 172.46 153.023 173.209 150.794C173.613 149.661 173.88 148.482 174.002 147.285C174.152 146.075 174.084 144.848 173.8 143.662C173.551 142.457 172.883 141.381 171.913 140.624C171.419 140.267 170.838 140.05 170.231 139.993C169.623 139.937 169.012 140.044 168.46 140.303C167.324 140.815 166.4 141.704 165.844 142.819C165.286 143.911 165.138 145.168 165.429 146.36C165.732 147.527 166.276 148.617 167.026 149.562C167.775 150.506 168.714 151.284 169.781 151.845C170.305 152.117 170.844 152.357 171.398 152.562C173.058 153.103 174.819 153.26 176.549 153.021C177.672 152.865 178.769 152.562 179.814 152.122C180.834 151.686 181.795 151.124 182.675 150.448C184.381 149.146 185.704 147.407 186.506 145.417C186.874 144.468 187.064 143.459 187.066 142.441C187.088 141.459 186.872 140.486 186.437 139.605C186.209 139.193 185.911 138.825 185.556 138.517C185.194 138.226 184.777 138.012 184.33 137.888C183.887 137.803 183.433 137.807 182.992 137.9C182.551 137.993 182.134 138.172 181.763 138.429C181.031 138.91 180.454 139.594 180.103 140.397C179.783 141.175 179.677 142.024 179.795 142.857C180.033 144.419 180.796 145.854 181.958 146.926C183.001 147.875 184.247 148.575 185.6 148.97C186.783 149.303 188.007 149.464 189.236 149.448C190.27 149.442 191.303 149.353 192.324 149.184C193.742 148.952 195.146 148.646 196.532 148.266L197.614 147.97L197.96 147.951Z" fill="#263238"/>
<path d="M166.273 0.828125H118.797V18.9806H166.273V0.828125Z" fill="#117C53"/>
<path d="M166.275 18.9775C166.275 18.9775 166.275 18.8642 166.275 18.6504C166.275 18.4365 166.275 18.1157 166.275 17.7069C166.275 16.8704 166.275 15.6627 166.275 14.1028C166.275 10.9579 166.237 6.44808 166.212 0.831244L166.325 0.944459L118.856 0.994779L119.019 0.831244C119.019 7.17141 119.019 13.304 119.019 18.9775L118.862 18.8202L152.827 18.8957L162.721 18.9397H165.382H166.074H166.313C166.239 18.946 166.166 18.946 166.093 18.9397H165.42H162.797L152.934 18.9837L118.837 19.0529H118.68V18.8957C118.68 13.2348 118.68 7.08964 118.68 0.749475L118.843 0.585938L166.313 0.636257H166.426V0.749475C166.426 6.41034 166.382 10.939 166.363 14.0902C166.363 15.6375 166.363 16.8389 166.363 17.6692C166.363 18.0654 166.363 18.3736 166.363 18.5938C166.363 18.8139 166.275 18.9775 166.275 18.9775Z" fill="#263238"/>
<path d="M223.147 280.258H192.403C191.743 280.258 191.11 279.999 190.639 279.537C190.168 279.075 189.898 278.446 189.887 277.786L189.145 194.867H224.883L225.626 277.736C225.627 278.398 225.368 279.034 224.904 279.506C224.44 279.978 223.809 280.248 223.147 280.258Z" fill="#DFF4AD"/>
<g opacity="0.3">
<path d="M218.617 213.27V277.106C218.617 277.106 223.649 278.779 223.894 274.376C224.14 269.973 224.008 213.258 224.008 213.258L218.617 213.27Z" fill="#DFF4AD"/>
</g>
<path d="M221.508 190.656H192.574C192.074 190.656 191.594 190.855 191.24 191.209C190.886 191.563 190.688 192.043 190.688 192.543V194.399H223.395V192.512C223.386 192.017 223.184 191.545 222.831 191.198C222.478 190.851 222.003 190.656 221.508 190.656Z" fill="#DFF4AD"/>
<path d="M221.505 190.657C221.609 190.642 221.715 190.642 221.819 190.657C222.129 190.696 222.424 190.815 222.674 191.003C222.882 191.157 223.056 191.351 223.187 191.574C223.318 191.796 223.402 192.043 223.436 192.299C223.436 192.928 223.436 193.557 223.436 194.362V194.438H223.354C217.36 194.482 205.78 194.519 192.533 194.519H190.489V192.601C190.48 192.289 190.541 191.978 190.668 191.693C190.796 191.407 190.986 191.154 191.225 190.953C191.465 190.754 191.746 190.612 192.049 190.538C192.34 190.486 192.635 190.467 192.93 190.481H194.603H200.962L211.655 190.519L218.844 190.569L211.655 190.62L200.962 190.657H194.603H192.93C192.66 190.641 192.39 190.658 192.125 190.708C191.872 190.771 191.635 190.889 191.433 191.054C190.527 191.739 190.892 193.06 190.804 194.199L190.64 194.035H192.527C205.792 194.035 217.372 194.066 223.347 194.117L223.266 194.199C223.266 193.425 223.266 192.727 223.266 192.154C223.242 191.909 223.168 191.672 223.051 191.456C222.933 191.24 222.773 191.049 222.58 190.896C222.249 190.724 221.878 190.642 221.505 190.657Z" fill="#263238"/>
<path d="M226.998 193.5H187.051C186.134 193.5 185.391 194.243 185.391 195.161V211.596C185.391 212.513 186.134 213.256 187.051 213.256H226.998C227.915 213.256 228.658 212.513 228.658 211.596V195.161C228.658 194.243 227.915 193.5 226.998 193.5Z" fill="#DFF4AD"/>
<path d="M227 213.272C227 213.272 227.114 213.272 227.315 213.221C227.616 213.158 227.894 213.01 228.114 212.794C228.849 212.24 228.554 210.907 228.598 209.378C228.598 206.233 228.566 201.736 228.548 196.17C228.548 195.824 228.548 195.471 228.548 195.113C228.537 194.777 228.415 194.454 228.202 194.195C227.979 193.93 227.677 193.745 227.34 193.666C226.977 193.627 226.611 193.616 226.245 193.635H221.503H211.037H187.066C186.826 193.633 186.589 193.689 186.376 193.799C186.162 193.908 185.978 194.068 185.84 194.264C185.705 194.45 185.616 194.666 185.582 194.893C185.569 195.148 185.569 195.404 185.582 195.66V204.906C185.582 206.906 185.582 208.875 185.582 210.806V211.529C185.583 211.746 185.63 211.961 185.72 212.158C185.81 212.354 185.94 212.529 186.103 212.67C186.266 212.811 186.457 212.915 186.663 212.976C186.878 213.036 187.102 213.057 187.324 213.039H189.412L208.992 213.07L222.201 213.127H225.786L222.201 213.158L208.992 213.209L189.412 213.247H187.324C187.074 213.264 186.823 213.239 186.582 213.171C186.332 213.099 186.1 212.974 185.903 212.805C185.705 212.635 185.546 212.426 185.437 212.19C185.33 211.95 185.274 211.691 185.273 211.429V210.705C185.273 208.777 185.273 206.81 185.273 204.806C185.273 202.799 185.273 200.755 185.273 198.686V195.541C185.273 195.27 185.273 195.025 185.273 194.729C185.316 194.44 185.426 194.164 185.594 193.924C185.763 193.686 185.986 193.492 186.246 193.358C186.505 193.225 186.793 193.156 187.085 193.157H211.056H221.522H226.264C226.649 193.137 227.034 193.152 227.415 193.201C227.805 193.299 228.153 193.52 228.409 193.83C228.653 194.134 228.791 194.509 228.805 194.899V195.962C228.805 201.522 228.761 206.026 228.749 209.171C228.749 209.944 228.749 210.636 228.749 211.24C228.768 211.499 228.728 211.76 228.632 212.002C228.536 212.244 228.387 212.461 228.195 212.636C227.964 212.853 227.672 212.996 227.359 213.045C227.256 213.145 227.134 213.222 227 213.272Z" fill="#263238"/>
<path d="M187.91 212.928C187.815 212.928 187.746 208.72 187.746 203.538C187.746 198.355 187.815 194.141 187.91 194.141C188.004 194.141 188.073 198.349 188.073 203.538C188.073 208.727 187.998 212.928 187.91 212.928Z" fill="#263238"/>
<path d="M191.179 212.928C191.085 212.928 191.016 208.72 191.016 203.538C191.016 198.355 191.085 194.141 191.179 194.141C191.274 194.141 191.343 198.349 191.343 203.538C191.343 208.727 191.267 212.928 191.179 212.928Z" fill="#263238"/>
<path d="M194.449 212.928C194.361 212.928 194.285 208.72 194.285 203.538C194.285 198.355 194.361 194.141 194.449 194.141C194.537 194.141 194.612 198.349 194.612 203.538C194.612 208.727 194.537 212.928 194.449 212.928Z" fill="#263238"/>
<path d="M197.722 212.928C197.634 212.928 197.559 208.72 197.559 203.538C197.559 198.355 197.634 194.141 197.722 194.141C197.81 194.141 197.886 198.349 197.886 203.538C197.886 208.727 197.816 212.928 197.722 212.928Z" fill="#263238"/>
<path d="M200.999 212.928C200.905 212.928 200.836 208.72 200.836 203.538C200.836 198.355 200.905 194.141 200.999 194.141C201.094 194.141 201.163 198.349 201.163 203.538C201.163 208.727 201.088 212.928 200.999 212.928Z" fill="#263238"/>
<path d="M204.269 212.928C204.175 212.928 204.105 208.72 204.105 203.538C204.105 198.355 204.175 194.141 204.269 194.141C204.363 194.141 204.433 198.349 204.433 203.538C204.433 208.727 204.357 212.928 204.269 212.928Z" fill="#263238"/>
<path d="M207.542 212.928C207.454 212.928 207.379 208.72 207.379 203.538C207.379 198.355 207.454 194.141 207.542 194.141C207.631 194.141 207.706 198.349 207.706 203.538C207.706 208.727 207.631 212.928 207.542 212.928Z" fill="#263238"/>
<path d="M210.812 212.928C210.724 212.928 210.648 208.72 210.648 203.538C210.648 198.355 210.724 194.141 210.812 194.141C210.9 194.141 210.976 198.349 210.976 203.538C210.976 208.727 210.906 212.928 210.812 212.928Z" fill="#263238"/>
<path d="M214.085 212.928C213.997 212.928 213.922 208.72 213.922 203.538C213.922 198.355 213.997 194.141 214.085 194.141C214.173 194.141 214.255 198.349 214.255 203.538C214.255 208.727 214.18 212.928 214.085 212.928Z" fill="#263238"/>
<path d="M217.355 212.928C217.261 212.928 217.191 208.72 217.191 203.538C217.191 198.355 217.261 194.141 217.355 194.141C217.449 194.141 217.518 198.349 217.518 203.538C217.518 208.727 217.443 212.928 217.355 212.928Z" fill="#263238"/>
<path d="M220.624 212.928C220.536 212.928 220.461 208.72 220.461 203.538C220.461 198.355 220.536 194.141 220.624 194.141C220.713 194.141 220.788 198.349 220.788 203.538C220.788 208.727 220.713 212.928 220.624 212.928Z" fill="#263238"/>
<path d="M223.898 212.928C223.81 212.928 223.734 208.72 223.734 203.538C223.734 198.355 223.81 194.141 223.898 194.141C223.986 194.141 224.061 198.349 224.061 203.538C224.061 208.727 223.992 212.928 223.898 212.928Z" fill="#263238"/>
<path d="M227.171 212.928C227.083 212.928 227.008 208.72 227.008 203.538C227.008 198.355 227.083 194.141 227.171 194.141C227.259 194.141 227.335 198.349 227.335 203.538C227.335 208.727 227.266 212.928 227.171 212.928Z" fill="#263238"/>
<path d="M222.897 228.141H191.957V252.916H222.897V228.141Z" fill="#DFF4AD"/>
<path d="M220.633 232.281H202.965V234.967H220.633V232.281Z" fill="#117C53"/>
<path d="M218.624 241.64C218.624 241.728 213.466 241.804 207.101 241.804C200.736 241.804 195.578 241.728 195.578 241.64C195.578 241.552 200.736 241.477 207.101 241.477C213.466 241.477 218.624 241.577 218.624 241.64Z" fill="#263238"/>
<path d="M218.624 244.429C218.624 244.524 213.466 244.593 207.101 244.593C200.736 244.593 195.578 244.524 195.578 244.429C195.578 244.335 200.736 244.266 207.101 244.266C213.466 244.266 218.624 244.341 218.624 244.429Z" fill="#263238"/>
<path d="M205.848 247.93H193.91V250.232H205.848V247.93Z" fill="#117C53"/>
<path d="M222.195 252.148C222.195 252.148 222.195 251.997 222.195 251.708C222.195 251.419 222.195 250.991 222.195 250.45C222.195 249.337 222.195 247.733 222.164 245.689C222.164 241.588 222.12 235.751 222.095 228.706L222.227 228.844H192.57C192.532 228.876 192.878 228.536 192.734 228.687V234.927C192.734 236.977 192.734 238.99 192.734 240.952C192.734 244.884 192.734 248.632 192.734 252.123L192.589 251.979L213.974 252.054L220.05 252.092H221.673H222.239C222.239 252.092 222.201 252.092 222.107 252.092H221.705H220.113L214.069 252.129L192.583 252.205H192.438V252.054C192.438 248.563 192.438 244.814 192.438 240.883C192.438 238.921 192.438 236.908 192.438 234.858V228.618C192.293 228.756 192.639 228.41 192.601 228.448H222.258H222.396V228.587C222.396 235.663 222.34 241.537 222.327 245.657C222.327 247.683 222.296 249.28 222.29 250.387C222.29 250.916 222.29 251.324 222.29 251.645C222.29 251.966 222.195 252.148 222.195 252.148Z" fill="#263238"/>
<path d="M191.179 273.493C191.085 273.493 191.016 260.561 191.016 244.61C191.016 228.658 191.085 215.727 191.179 215.727C191.274 215.727 191.343 228.658 191.343 244.61C191.343 260.561 191.267 273.493 191.179 273.493Z" fill="#DFF4AD"/>
<path d="M222.933 278.906C222.933 278.994 216.184 279.069 207.838 279.069C199.491 279.069 192.742 278.994 192.742 278.906C192.742 278.818 199.491 278.742 207.838 278.742C216.184 278.742 222.933 278.818 222.933 278.906Z" fill="#263238"/>
<path d="M253.589 280.223H228.682C228.148 280.223 227.635 280.012 227.256 279.636C226.877 279.26 226.661 278.75 226.656 278.216L226.027 211.047H254.961L255.558 278.178C255.565 278.71 255.362 279.222 254.994 279.605C254.625 279.987 254.121 280.209 253.589 280.223Z" fill="#455A64"/>
<g opacity="0.3">
<path d="M249.93 225.93V277.657C249.93 277.657 254.006 279.01 254.207 275.443C254.408 271.877 254.295 225.93 254.295 225.93H249.93Z" fill="#DFF4AD"/>
</g>
<path d="M251.911 207.609H229.16C228.66 207.609 228.18 207.808 227.826 208.162C227.472 208.516 227.273 208.996 227.273 209.496V210.622H253.779V209.496C253.779 208.999 253.583 208.522 253.233 208.169C252.883 207.815 252.408 207.614 251.911 207.609Z" fill="#DFF4AD"/>
<path d="M251.906 207.609C251.996 207.597 252.087 207.597 252.177 207.609C252.445 207.632 252.704 207.718 252.932 207.861C253.31 208.091 253.599 208.444 253.749 208.861C253.836 209.126 253.874 209.405 253.862 209.685C253.862 209.98 253.862 210.314 253.862 210.616V210.754H253.781C248.881 210.804 239.679 210.836 229.156 210.836H227.105V210.672C227.105 210.194 227.105 209.76 227.105 209.257C227.178 208.763 227.428 208.313 227.809 207.991C228.19 207.669 228.676 207.497 229.175 207.508H230.508H235.572L244.088 207.54L249.793 207.59L251.34 207.622C251.519 207.618 251.698 207.629 251.875 207.653C251.697 207.667 251.518 207.667 251.34 207.653L249.793 207.684L244.088 207.735L235.572 207.773H229.206C228.789 207.762 228.383 207.903 228.062 208.169C227.733 208.438 227.519 208.823 227.464 209.244C227.426 209.659 227.464 210.156 227.464 210.616L227.3 210.452H229.187C239.71 210.452 248.912 210.483 253.812 210.534L253.73 210.616C253.73 210.288 253.73 209.987 253.73 209.685C253.751 209.421 253.721 209.157 253.642 208.905C253.515 208.507 253.255 208.166 252.906 207.936C252.603 207.75 252.261 207.638 251.906 207.609Z" fill="#263238"/>
<path d="M256.408 209.938H224.676C223.759 209.938 223.016 210.681 223.016 211.598V224.285C223.016 225.202 223.759 225.945 224.676 225.945H256.408C257.326 225.945 258.069 225.202 258.069 224.285V211.598C258.069 210.681 257.326 209.938 256.408 209.938Z" fill="#DFF4AD"/>
<path d="M256.4 225.941C256.734 225.916 257.055 225.803 257.331 225.614C257.65 225.377 257.873 225.033 257.96 224.645C258 224.391 258.01 224.134 257.991 223.878C257.991 223.601 257.991 223.299 257.991 222.991C257.991 220.475 257.96 216.833 257.941 212.355C257.941 212.078 257.941 211.782 257.941 211.506C257.924 211.235 257.835 210.975 257.683 210.751C257.527 210.517 257.311 210.331 257.057 210.21C256.804 210.089 256.522 210.039 256.243 210.065H252.418H243.99H224.674C224.286 210.067 223.913 210.218 223.634 210.487C223.355 210.757 223.192 211.124 223.177 211.512C223.177 212.355 223.177 213.191 223.177 214.028V218.959C223.177 220.578 223.177 222.163 223.177 223.714C223.143 224.08 223.179 224.45 223.284 224.802C223.417 225.126 223.653 225.396 223.957 225.57C224.274 225.728 224.629 225.793 224.982 225.758H226.102L241.877 225.796L252.513 225.846H255.406L252.513 225.878L241.877 225.928L226.102 225.966H224.982C224.589 226.036 224.184 225.997 223.812 225.853C223.446 225.644 223.16 225.318 223.001 224.928C222.923 224.727 222.881 224.514 222.875 224.299V223.714C222.875 222.163 222.875 220.578 222.875 218.959V211.537C222.893 211.065 223.093 210.618 223.433 210.289C223.773 209.961 224.226 209.777 224.699 209.776H244.015H252.444H256.268C256.589 209.76 256.909 209.826 257.197 209.968C257.486 210.11 257.733 210.323 257.916 210.587C258.086 210.848 258.184 211.15 258.199 211.462C258.199 211.763 258.199 212.04 258.199 212.323C258.199 216.802 258.155 220.431 258.142 222.959C258.142 223.268 258.142 223.588 258.142 223.846C258.155 224.109 258.138 224.373 258.092 224.632C257.994 225.044 257.745 225.403 257.394 225.639C257.182 225.783 256.938 225.874 256.683 225.903C256.592 225.932 256.496 225.945 256.4 225.941Z" fill="#263238"/>
<path d="M225.066 225.668C224.978 225.668 224.902 222.265 224.902 218.064C224.902 213.862 224.978 210.453 225.066 210.453C225.154 210.453 225.229 213.856 225.229 218.064C225.229 222.272 225.129 225.668 225.066 225.668Z" fill="#263238"/>
<path d="M227.695 225.668C227.607 225.668 227.531 222.265 227.531 218.064C227.531 213.862 227.607 210.453 227.695 210.453C227.783 210.453 227.858 213.856 227.858 218.064C227.858 222.272 227.789 225.668 227.695 225.668Z" fill="#263238"/>
<path d="M230.347 225.668C230.253 225.668 230.184 222.265 230.184 218.064C230.184 213.862 230.253 210.453 230.347 210.453C230.441 210.453 230.511 213.856 230.511 218.064C230.511 222.272 230.435 225.668 230.347 225.668Z" fill="#263238"/>
<path d="M232.992 225.668C232.904 225.668 232.828 222.265 232.828 218.064C232.828 213.862 232.904 210.453 232.992 210.453C233.08 210.453 233.155 213.856 233.155 218.064C233.155 222.272 233.086 225.668 232.992 225.668Z" fill="#263238"/>
<path d="M235.648 225.668C235.554 225.668 235.484 222.265 235.484 218.064C235.484 213.862 235.554 210.453 235.648 210.453C235.742 210.453 235.811 213.856 235.811 218.064C235.811 222.272 235.761 225.668 235.648 225.668Z" fill="#263238"/>
<path d="M238.277 225.668C238.189 225.668 238.113 222.265 238.113 218.064C238.113 213.862 238.189 210.453 238.277 210.453C238.365 210.453 238.44 213.856 238.44 218.064C238.44 222.272 238.39 225.668 238.277 225.668Z" fill="#263238"/>
<path d="M240.957 225.668C240.862 225.668 240.793 222.265 240.793 218.064C240.793 213.862 240.862 210.453 240.957 210.453C241.051 210.453 241.12 213.856 241.12 218.064C241.12 222.272 241.045 225.668 240.957 225.668Z" fill="#263238"/>
<path d="M243.601 225.668C243.513 225.668 243.438 222.265 243.438 218.064C243.438 213.862 243.513 210.453 243.601 210.453C243.689 210.453 243.765 213.856 243.765 218.064C243.765 222.272 243.689 225.668 243.601 225.668Z" fill="#263238"/>
<path d="M246.252 225.668C246.158 225.668 246.082 222.265 246.082 218.064C246.082 213.862 246.158 210.453 246.252 210.453C246.346 210.453 246.415 213.856 246.415 218.064C246.415 222.272 246.34 225.668 246.252 225.668Z" fill="#263238"/>
<path d="M248.898 225.668C248.81 225.668 248.734 222.265 248.734 218.064C248.734 213.862 248.81 210.453 248.898 210.453C248.986 210.453 249.061 213.856 249.061 218.064C249.061 222.272 248.967 225.668 248.898 225.668Z" fill="#263238"/>
<path d="M251.554 225.668C251.466 225.668 251.391 222.265 251.391 218.064C251.391 213.862 251.466 210.453 251.554 210.453C251.642 210.453 251.718 213.856 251.718 218.064C251.718 222.272 251.649 225.668 251.554 225.668Z" fill="#263238"/>
<path d="M254.203 225.668C254.108 225.668 254.039 222.265 254.039 218.064C254.039 213.862 254.108 210.453 254.203 210.453C254.297 210.453 254.366 213.856 254.366 218.064C254.366 222.272 254.291 225.668 254.203 225.668Z" fill="#263238"/>
<path d="M256.851 225.668C256.763 225.668 256.688 222.265 256.688 218.064C256.688 213.862 256.763 210.453 256.851 210.453C256.939 210.453 257.015 213.856 257.015 218.064C257.015 222.272 256.945 225.668 256.851 225.668Z" fill="#263238"/>
<path d="M253.389 237.992H228.324V258.063H253.389V237.992Z" fill="#DFF4AD"/>
<path d="M251.555 241.352H237.246V243.528H251.555V241.352Z" fill="#117C53"/>
<path d="M249.93 248.929C249.93 249.024 245.754 249.093 240.596 249.093C235.438 249.093 231.262 249.024 231.262 248.929C231.262 248.835 235.438 248.766 240.596 248.766C245.754 248.766 249.93 248.841 249.93 248.929Z" fill="#263238"/>
<path d="M249.93 251.195C249.93 251.283 245.754 251.358 240.596 251.358C235.438 251.358 231.262 251.283 231.262 251.195C231.262 251.107 235.438 251.031 240.596 251.031C245.754 251.031 249.93 251.1 249.93 251.195Z" fill="#263238"/>
<path d="M239.584 254.031H229.91V255.893H239.584V254.031Z" fill="#117C53"/>
<path d="M252.823 257.445C252.823 257.445 252.823 257.313 252.823 257.081C252.823 256.848 252.823 256.489 252.823 256.062C252.823 255.15 252.823 253.848 252.792 252.2C252.792 248.872 252.748 244.149 252.723 238.45L252.855 238.588H228.834L228.997 238.425V240.941C228.997 241.79 228.997 242.626 228.997 243.457V248.338C228.997 251.52 228.997 254.552 228.997 257.389L228.853 257.238L246.169 257.313L251.1 257.351H252.415H252.754H252.874H252.446H251.188L246.288 257.389L228.878 257.464H228.727V257.32C228.727 254.483 228.727 251.451 228.727 248.268V238.331C228.582 238.475 228.928 238.129 228.897 238.167H252.918H253.056V238.425C253.056 244.155 252.999 248.916 252.987 252.263C252.987 253.898 252.955 255.187 252.949 256.087C252.949 256.508 252.949 256.842 252.949 257.087C252.917 257.21 252.875 257.33 252.823 257.445Z" fill="#263238"/>
<path d="M227.695 274.734C227.607 274.734 227.531 264.255 227.531 251.336C227.531 238.416 227.607 227.938 227.695 227.938C227.783 227.938 227.858 238.41 227.858 251.336C227.858 264.261 227.789 274.734 227.695 274.734Z" fill="#DFF4AD"/>
<path d="M253.416 279.124C253.416 279.219 247.944 279.288 241.201 279.288C234.458 279.288 228.992 279.219 228.992 279.124C228.992 279.03 234.458 278.961 241.201 278.961C247.944 278.961 253.416 279.036 253.416 279.124Z" fill="#263238"/>
<path d="M52.2794 253.359L48.1093 268.172C48.1093 268.172 61.3997 277.493 60.8903 280.305L32.5859 273.028L38.165 249.68L52.2794 253.359Z" fill="#455A64"/>
<path d="M39.661 264.673C39.3647 264.692 39.086 264.821 38.8783 265.033C38.6706 265.246 38.5484 265.527 38.5352 265.824C38.5363 266.121 38.651 266.406 38.8556 266.621C39.0602 266.836 39.3394 266.965 39.6359 266.981C39.951 266.964 40.2481 266.829 40.4683 266.603C40.6885 266.377 40.8157 266.076 40.8247 265.761C40.7681 265.163 40.1202 264.541 39.5667 264.685" fill="#117C53"/>
<g opacity="0.6">
<path d="M32.5898 273.03L33.2188 270.703L60.1268 278.534C60.1268 278.534 61.2527 279.415 60.8879 280.289L32.5898 273.03Z" fill="#DFF4AD"/>
</g>
<path d="M48.6113 268.146C48.5673 268.29 47.8628 268.146 47.0703 268.454C46.2778 268.762 45.7683 269.24 45.6551 269.152C45.5419 269.064 45.9507 268.297 46.9131 267.976C47.8754 267.655 48.6679 268.001 48.6113 268.146Z" fill="#263238"/>
<path d="M51.2676 270.155C51.2676 270.306 50.6387 270.388 50.0097 270.873C49.3807 271.357 49.1039 271.948 48.9656 271.904C48.8272 271.86 48.9656 271.042 49.7141 270.464C50.4625 269.885 51.2991 270.023 51.2676 270.155Z" fill="#263238"/>
<path d="M52.0897 274.237C51.9576 274.237 51.9387 273.483 52.4796 272.797C53.0206 272.111 53.7376 271.967 53.7753 272.099C53.8131 272.231 53.3036 272.545 52.8633 273.118C52.423 273.69 52.2092 274.288 52.0897 274.237Z" fill="#263238"/>
<path d="M49.1982 264.664C49.1038 264.777 48.5189 264.418 47.7263 264.274C46.9338 264.129 46.2608 264.223 46.2168 264.079C46.1728 263.934 46.8835 263.588 47.8144 263.771C48.7453 263.953 49.2925 264.569 49.1982 264.664Z" fill="#263238"/>
<path d="M42.3574 256.853L41.7284 272.25C41.7284 272.25 56.8241 278.106 56.9373 280.968L27.7461 280.735L27.809 256.695L42.3574 256.853Z" fill="#455A64"/>
<path d="M32.6806 270.886C32.3963 270.975 32.1543 271.164 32.0002 271.419C31.8461 271.674 31.7906 271.977 31.844 272.27C31.9103 272.559 32.0868 272.81 32.3358 272.971C32.5848 273.132 32.8868 273.19 33.1775 273.131C33.4792 273.037 33.7356 272.834 33.898 272.563C34.0603 272.292 34.1173 271.97 34.0581 271.66C33.9577 271.369 33.7474 271.129 33.4723 270.991C33.1972 270.854 32.8791 270.829 32.5862 270.924" fill="#117C53"/>
<g opacity="0.6">
<path d="M27.7109 280.726L27.8116 278.305L55.7637 279.431C55.7637 279.431 57.0594 280.022 56.9021 280.959L27.7109 280.726Z" fill="#DFF4AD"/>
</g>
<path d="M42.1732 272.107C42.1732 272.252 41.4562 272.315 40.7454 272.774C40.0347 273.233 39.6636 273.849 39.5315 273.793C39.3994 273.736 39.6195 272.893 40.4875 272.346C41.3555 271.799 42.2047 271.969 42.1732 272.107Z" fill="#263238"/>
<path d="M45.2252 273.426C45.2252 273.564 44.6402 273.809 44.1496 274.426C43.659 275.042 43.5206 275.684 43.3759 275.684C43.2313 275.684 43.1495 274.847 43.7722 274.099C44.3949 273.35 45.2252 273.287 45.2252 273.426Z" fill="#263238"/>
<path d="M46.9404 277.199C46.8083 277.23 46.6196 276.501 46.9907 275.702C47.3618 274.903 48.0285 274.589 48.0914 274.714C48.1543 274.84 47.7329 275.262 47.4624 275.916C47.192 276.57 47.0599 277.186 46.9404 277.199Z" fill="#263238"/>
<path d="M41.941 268.578C41.8843 268.71 41.2302 268.502 40.4251 268.578C39.62 268.653 38.9847 268.886 38.9155 268.76C38.8463 268.634 39.4502 268.131 40.3999 268.068C41.3497 268.005 42.0227 268.465 41.941 268.578Z" fill="#263238"/>
<path d="M24.3022 144.156V156.333L27.4912 203.771C27.4912 203.771 25.5036 226.786 24.2834 239.781C23.2267 251.059 24.9564 270.708 24.9564 270.708H43.5366L50.2038 205.187L54.33 164.303L61.5255 145.722L24.3022 144.156Z" fill="#263238"/>
<path d="M73.2276 146.282L69.6675 212.47L50.8734 262.027L50.0054 265.009L38.9102 262.26L47.1624 144.992L73.2276 146.282Z" fill="#263238"/>
<path d="M54.2609 164.805C54.2676 164.897 54.2676 164.989 54.2609 165.081C54.2609 165.283 54.2609 165.547 54.2609 165.887C54.2609 166.616 54.2105 167.66 54.1665 168.994C54.091 171.686 53.9023 175.579 53.6382 180.391C53.0784 190.014 52.0343 203.292 50.3989 217.91C48.7635 232.527 47.0213 245.724 45.7255 255.272C45.0966 260.027 44.5368 263.882 44.1657 266.593C43.977 267.914 43.826 268.946 43.7254 269.663C43.6688 270.002 43.631 270.292 43.5996 270.462C43.5891 270.553 43.5701 270.644 43.543 270.732V270.455C43.543 270.26 43.5996 269.996 43.6373 269.656C43.7254 268.933 43.8512 267.902 44.0147 266.574C44.3544 263.889 44.8513 260.027 45.4677 255.253C46.7256 245.698 48.4302 232.502 50.0404 217.885C51.6506 203.267 52.7513 190.014 53.374 180.397C53.6696 175.592 53.8961 171.698 54.003 169.006C54.0722 167.673 54.1225 166.635 54.1602 165.905C54.1602 165.566 54.198 165.276 54.2105 165.1C54.2165 165 54.2334 164.901 54.2609 164.805Z" fill="#455A64"/>
<path d="M55.443 148.255C55.4381 148.443 55.3778 148.625 55.2698 148.779C55.1618 148.933 55.0108 149.051 54.8357 149.12C54.6607 149.188 54.4693 149.204 54.2855 149.164C54.1017 149.124 53.9338 149.031 53.8025 148.897C53.6713 148.762 53.5828 148.592 53.5479 148.407C53.513 148.222 53.5333 148.031 53.6064 147.858C53.6794 147.685 53.8019 147.537 53.9585 147.433C54.1152 147.329 54.299 147.274 54.487 147.273C54.6144 147.274 54.7404 147.3 54.8577 147.35C54.975 147.4 55.0812 147.473 55.1701 147.564C55.2591 147.655 55.329 147.764 55.3759 147.882C55.4227 148.001 55.4455 148.127 55.443 148.255Z" fill="#455A64"/>
<path d="M71.7771 157.496C71.2824 157.142 70.8417 156.718 70.4688 156.238C69.5079 155.101 68.7195 153.83 68.1289 152.464C67.5346 151.1 67.1406 149.657 66.959 148.18C66.8537 147.574 66.8389 146.955 66.915 146.344C66.9716 146.344 67.0093 147.042 67.198 148.149C67.4518 149.584 67.8741 150.983 68.456 152.319C69.0411 153.646 69.7822 154.898 70.6637 156.049C71.3305 156.955 71.8148 157.452 71.7771 157.496Z" fill="#455A64"/>
<path d="M69.5547 84.4453C69.5547 84.4453 73.1084 85.8417 74.7564 91.0497C75.9011 94.6726 81.2601 121.643 81.2601 121.643L73.7878 126.568L70.7498 101.315L69.5547 84.4453Z" fill="#117C53"/>
<path d="M41.1347 71.5625L38.7949 75.7138C38.7949 75.7138 23.1521 83.6642 23.2087 84.4441C23.2087 84.4441 24.083 114.12 24.2465 135.889C24.3094 144.11 24.0075 151.664 23.844 155.293C23.41 164.822 23.0703 201.838 23.0703 201.838L79.6789 200.498L69.5523 84.4441L61.5642 80.9532L60.5452 78.8713L56.8782 75.8899L41.1347 71.5625Z" fill="#117C53"/>
<path d="M65.9218 200.806C65.9302 200.722 65.9302 200.638 65.9218 200.554C65.9218 200.372 65.9218 200.126 65.8903 199.818C65.8526 199.145 65.8023 198.189 65.7331 196.969C65.5884 194.484 65.3746 190.912 65.1041 186.515C64.5695 177.672 63.8461 165.482 63.0222 152.015C62.1982 138.549 61.544 126.359 61.0346 117.509C60.8018 113.106 60.6069 109.54 60.4748 107.049C60.4056 105.829 60.3553 104.879 60.3175 104.206C60.3175 103.898 60.2798 103.653 60.2672 103.47C60.2624 103.386 60.2519 103.302 60.2358 103.219C60.2287 103.302 60.2287 103.387 60.2358 103.47C60.2358 103.653 60.2358 103.898 60.2358 104.213C60.2358 104.879 60.2861 105.835 60.3301 107.056C60.4182 109.527 60.5754 113.106 60.783 117.522C61.1981 126.328 61.8648 138.561 62.6699 152.041C63.475 165.52 64.255 177.703 64.8525 186.528C65.1544 190.931 65.406 194.491 65.5758 196.982C65.6702 198.195 65.7457 199.152 65.796 199.818L65.8589 200.56C65.8706 200.644 65.8917 200.727 65.9218 200.806Z" fill="#263238"/>
<path d="M56.884 75.8919L58.1986 84.9808L60.551 103.221L50.2986 85.6223L41.3984 73.9609L56.0664 84.2386L56.2488 75.7221" fill="#DFF4AD"/>
<path d="M38.7266 76.2656C38.798 76.511 38.8928 76.749 39.0096 76.9764C39.2297 77.4733 39.5191 78.1337 39.8839 78.9451L43.0666 85.8639L43.1043 85.952H43.2049H45.3435L45.2428 85.6627L43.6704 86.9521L43.5257 87.0716L43.6578 87.2037L46.6392 90.1222L56.2312 99.4249L59.1623 102.211L59.9737 102.96C60.0623 103.053 60.1615 103.135 60.2693 103.205C60.2001 103.095 60.1153 102.995 60.0177 102.909L59.2566 102.117L56.3947 99.2487L46.8782 89.8769C45.853 88.8705 44.8466 87.8956 43.8905 86.9647V87.21L45.4567 85.9143L45.8026 85.6249H45.3498H43.2112L43.3496 85.713C42.0099 82.9203 40.8777 80.5553 40.0537 78.8445C39.6575 78.0457 39.343 77.3978 39.104 76.9135C38.9953 76.688 38.8691 76.4714 38.7266 76.2656Z" fill="#263238"/>
<path d="M60.5445 103.203C60.6422 102.831 60.7116 102.453 60.7521 102.071C60.8653 101.284 61.01 100.24 61.1861 98.976C61.5383 96.3595 62.0038 92.7428 62.4944 88.7487L62.9472 85.0252V84.8805L62.8026 84.8427L60.23 84.2138V84.5157L62.8089 84.0565L62.985 84.0251L62.9095 83.8678L61.2112 80.1757C61.0162 79.7794 60.859 79.4461 60.7269 79.1756C60.6801 79.0529 60.6143 78.9383 60.5319 78.8359C60.5582 78.9644 60.6005 79.0891 60.6577 79.207C60.7709 79.4838 60.9093 79.836 61.0729 80.2386C61.4754 81.1821 62.0163 82.4463 62.6642 83.9747L62.7648 83.7923L60.1797 84.2138L59.4375 84.3333L60.1671 84.5157L62.7334 85.1447L62.6076 84.9685C62.4566 86.151 62.3057 87.4027 62.1421 88.6858C61.6515 92.6862 61.2238 96.3028 60.9345 98.9257C60.8024 100.184 60.6892 101.247 60.6074 102.071C60.5571 102.446 60.5361 102.824 60.5445 103.203Z" fill="#263238"/>
<path d="M51.7962 151.767H51.4314L50.3433 151.837L46.1668 152.138L31.2095 153.289H31.0586V153.44C31.2976 156.252 31.5618 159.309 31.8385 162.529C31.9769 164.148 32.1195 165.802 32.2662 167.492C32.3417 168.341 32.4109 169.19 32.4864 170.052C32.5128 170.498 32.5823 170.94 32.694 171.373C32.8267 171.819 33.026 172.244 33.2852 172.631C34.1317 173.773 35.3955 174.535 36.8012 174.75C38.1239 174.914 39.4564 174.986 40.789 174.964C43.3045 174.971 45.813 174.697 48.2676 174.147C48.8498 174.006 49.4198 173.818 49.9722 173.587C50.2473 173.475 50.5124 173.341 50.7647 173.184C50.8926 173.099 51.0126 173.002 51.1232 172.895C51.2247 172.783 51.3193 172.666 51.4062 172.543C51.9424 171.556 52.274 170.472 52.3812 169.354C52.6289 167.391 52.7277 165.413 52.6768 163.435C52.6202 159.812 52.3623 156.894 52.1673 154.881C52.073 153.874 51.9786 153.101 51.9094 152.572C51.9094 152.321 51.8465 152.126 51.8277 151.943C51.8242 151.874 51.8093 151.806 51.7836 151.742C51.7836 151.742 51.7836 151.811 51.7836 151.95C51.7836 152.088 51.7836 152.302 51.834 152.579C51.8843 153.132 51.9472 153.906 52.0289 154.893C52.1862 156.906 52.4063 159.825 52.4315 163.435C52.46 165.399 52.3486 167.362 52.0981 169.31C51.9868 170.383 51.664 171.425 51.1484 172.373C50.8234 172.815 50.3647 173.142 49.8401 173.304C49.3039 173.526 48.7507 173.705 48.1858 173.838C45.7549 174.375 43.2721 174.64 40.7827 174.631C39.471 174.651 38.1596 174.579 36.8578 174.417C35.5394 174.217 34.3529 173.505 33.5557 172.436C33.3241 172.085 33.1421 171.704 33.0147 171.304C32.9107 170.891 32.8454 170.47 32.8198 170.046C32.7443 169.184 32.6688 168.329 32.5996 167.479C32.4486 165.794 32.304 164.133 32.1593 162.523C31.87 159.296 31.5995 156.233 31.3479 153.434L31.2158 153.598L46.0662 152.302L50.2678 151.918L51.3874 151.811C51.5245 151.806 51.6611 151.792 51.7962 151.767Z" fill="#263238"/>
<g opacity="0.3">
<path d="M32.7227 170.969C34.3203 175.133 38.4905 175.372 42.9815 174.743C47.2019 174.114 51.2652 173.239 51.5797 172.032C51.4665 174.239 49.8437 175.931 47.8058 176.818C45.7366 177.609 43.5152 177.921 41.3084 177.73C39 177.623 37.0061 177.73 35.1003 176.416C33.1945 175.101 32.7164 172.868 32.7227 170.969Z" fill="black"/>
</g>
<path d="M75.5409 153.053C75.5353 153.001 75.5353 152.948 75.5409 152.896L75.4843 152.443C75.4423 152.024 75.3794 151.439 75.2956 150.688C75.1446 149.128 74.9308 146.914 74.6666 144.222C74.1508 138.763 73.4589 131.215 72.7293 122.881C71.9997 114.547 71.3707 106.993 70.9493 101.495C70.7417 98.7591 70.5908 96.5451 70.5027 95.0167C70.4524 94.2493 70.4335 93.6581 70.4209 93.2492C70.4209 93.0668 70.4209 92.9159 70.4209 92.7901C70.4118 92.738 70.4118 92.6848 70.4209 92.6328C70.5719 94.4065 71.6223 106.426 73.0564 122.824C73.7734 131.152 74.4276 138.687 74.8993 144.178C75.1195 146.889 75.3019 149.09 75.4277 150.65C75.4843 151.393 75.5283 151.984 75.5598 152.412C75.5598 152.594 75.5598 152.745 75.5598 152.871C75.5624 152.932 75.556 152.994 75.5409 153.053Z" fill="#263238"/>
<path d="M83.7461 122.242C83.9876 123.114 84.0769 124.02 84.0103 124.922C83.8782 126.299 83.8153 129.683 80.1483 130.84C76.4813 131.998 74.7013 130.891 73.5754 129.337L73.0156 122.607L76.9405 120.016L83.7461 122.242Z" fill="#117C53"/>
<g opacity="0.3">
<path d="M53.1078 126.57C53.1078 126.57 43.7296 135.835 36.446 137.169C29.1624 138.502 26.5584 135.911 24.6211 129.388L53.1078 126.57Z" fill="black"/>
</g>
<path d="M23.3793 84.2188C23.3793 84.2188 17.4228 89.7412 19.121 102.818C20.6935 114.97 23.5239 131.89 27.2223 133.858C30.9208 135.827 39.0032 134.839 44.8968 131.5C50.7904 128.16 67.8673 119.127 67.8673 119.127L60.7976 106.548L38.022 115.354C38.022 115.354 35.0784 95.226 33.3109 91.7288" fill="#117C53"/>
<path d="M33.2173 91.4962C33.2173 91.4962 33.2802 91.6283 33.3934 91.8862C33.4437 92.012 33.5192 92.1693 33.5947 92.3642C33.6701 92.5592 33.733 92.7982 33.8211 93.0561C34.1544 94.1002 34.5507 95.6664 34.9847 97.7043C35.8653 101.774 36.9283 107.711 38.0479 115.108L37.8843 115.008L60.6473 106.139L60.7731 106.089L60.8423 106.208C63.0752 110.183 65.4527 114.385 67.9183 118.788L68.0001 118.939L67.8492 119.021L53.2441 126.889L46.08 130.745C44.9038 131.374 43.7339 132.034 42.5199 132.556C41.3087 133.068 40.0648 133.499 38.7964 133.846C36.3259 134.538 33.7615 134.835 31.1982 134.726C29.9487 134.671 28.7175 134.405 27.5564 133.94L27.1287 133.751C26.9903 133.682 26.8582 133.582 26.7198 133.494C26.4861 133.295 26.2752 133.072 26.0909 132.827C25.7165 132.344 25.3939 131.823 25.1285 131.273C24.1472 129.158 23.3802 126.95 22.839 124.681C22.2666 122.499 21.8138 120.354 21.4049 118.272C20.5998 114.115 20.0023 110.215 19.518 106.648C19.0337 103.082 18.5745 99.8366 18.7066 96.9621C18.7687 94.5054 19.2056 92.0725 20.0023 89.7477C20.5186 88.2832 21.2454 86.9017 22.1597 85.6467C22.3999 85.3223 22.6604 85.0135 22.9397 84.7221C23.0351 84.6243 23.1359 84.5319 23.2416 84.4453L22.9648 84.7472C22.6983 85.0456 22.4484 85.3585 22.2163 85.6844C21.3308 86.9487 20.6279 88.3313 20.1281 89.7917C19.3477 92.1064 18.9235 94.5263 18.8701 96.9684C18.7569 99.824 19.2098 103.051 19.7255 106.611C20.2413 110.171 20.8514 114.071 21.6691 118.222C22.0779 120.291 22.5371 122.43 23.1158 124.606C23.6543 126.852 24.415 129.039 25.3864 131.135C25.6405 131.661 25.946 132.16 26.2984 132.626C26.4843 132.858 26.6952 133.069 26.9274 133.255C27.0436 133.337 27.1655 133.41 27.2922 133.475L27.6948 133.657C28.8275 134.1 30.0268 134.349 31.2423 134.393C33.7697 134.496 36.2977 134.201 38.7335 133.519C39.9836 133.179 41.2105 132.758 42.4067 132.261C43.6144 131.739 44.7591 131.091 45.9416 130.462L53.1058 126.6L67.7171 118.738L67.6479 118.964L60.5907 106.384L60.7857 106.453L37.9975 115.259L37.8529 115.316V115.165C36.7647 107.774 35.7395 101.83 34.9029 97.7546C34.4941 95.7167 34.1167 94.1443 33.8022 93.1001C33.7267 92.8423 33.6576 92.6095 33.5947 92.4083L33.4122 91.924C33.2864 91.6346 33.2173 91.4962 33.2173 91.4962Z" fill="#263238"/>
<path d="M41.3925 106.57H52.6953V102.809H41.3925V106.57Z" fill="#DFF4AD"/>
<path d="M43.7344 104.464C44.9003 104.295 46.0799 104.238 47.2567 104.295C48.4356 104.238 49.6173 104.295 50.7853 104.464C49.6165 104.626 48.4354 104.681 47.2567 104.628C46.0801 104.681 44.9011 104.626 43.7344 104.464Z" fill="#263238"/>
<g opacity="0.3">
<path d="M59.9804 102.973L43.3437 89.4745L43.74 88.2983H42.2933L39.8906 78.9453L43.35 85.7384L45.3502 85.644L43.8973 86.9775L59.9804 102.973Z" fill="black"/>
</g>
<path d="M39.4206 87.5958L40.0496 87.3442C40.0496 87.3128 38.6847 84.0609 37.345 80.6141C36.8637 79.555 36.6686 78.3882 36.7789 77.2301C36.8543 76.8658 37.0559 76.5398 37.3482 76.3097C37.6405 76.0795 38.0047 75.96 38.3765 75.9722L38.8168 75.7394L39.0432 75.3369C37.8796 75.0853 36.3197 76.0602 36.131 77.1358C36.0083 78.4148 36.2253 79.7036 36.76 80.872C38.0494 84.3377 39.4017 87.5644 39.4206 87.5958Z" fill="#455A64"/>
<path d="M38.4433 95.1883L39.2798 94.8613C38.5942 93.0938 37.657 89.9678 38.0596 89.0872C38.2581 88.7729 38.5211 88.5044 38.8312 88.2994C39.1414 88.0945 39.4915 87.9578 39.8585 87.8984C40.3077 87.7798 40.7784 87.7669 41.2335 87.8607C41.6885 87.9546 42.1157 88.1526 42.4813 88.4393C43.4374 89.2507 44.8841 92.1063 45.3621 93.1441L46.1735 92.7668C46.1043 92.6095 44.3683 88.8545 43.06 87.7349C42.5892 87.3582 42.0373 87.0961 41.4478 86.9695C40.8583 86.8429 40.2474 86.8551 39.6635 87.0053C39.1566 87.0931 38.6762 87.2942 38.2579 87.5937C37.8397 87.8933 37.4945 88.2834 37.2482 88.735C36.5689 90.1942 38.1225 94.3958 38.4433 95.1883Z" fill="#455A64"/>
<path d="M47.4745 108.825C48.5061 108.825 49.525 108.272 50.5 107.177L50.1603 106.876C49.091 108.089 47.984 108.567 46.8896 108.31C42.4175 107.259 39.0084 94.8367 38.977 94.7109L38.543 94.8242C38.6876 95.3462 42.0527 107.637 46.7827 108.744C47.0091 108.799 47.2415 108.826 47.4745 108.825Z" fill="#263238"/>
<path d="M49.6389 107.685C49.7298 107.776 49.8504 107.831 49.9786 107.841C50.1068 107.85 50.2341 107.813 50.3371 107.736L51.3057 107.012C51.378 106.967 51.4403 106.908 51.489 106.838C51.5376 106.768 51.5714 106.688 51.5885 106.605C51.6056 106.521 51.6055 106.435 51.5882 106.352C51.5709 106.268 51.5369 106.189 51.4881 106.119C51.4367 106.039 51.3676 105.971 51.2861 105.921C51.2045 105.871 51.1126 105.84 51.0174 105.831C50.9222 105.822 50.8261 105.835 50.7366 105.868C50.647 105.902 50.5663 105.955 50.5006 106.025L49.6263 106.931C49.5281 107.032 49.4743 107.169 49.4766 107.311C49.479 107.452 49.5373 107.587 49.6389 107.685Z" fill="#263238"/>
<path d="M45.5737 109.23C46.1556 109.275 46.7395 109.173 47.2722 108.935C47.805 108.697 48.2697 108.329 48.6243 107.865C51.3729 104.01 46.1901 93.3044 45.97 92.8516L45.5674 93.0465C45.6177 93.1598 50.8572 103.966 48.2595 107.608C47.5802 108.557 46.3725 108.935 44.7246 108.727L44.668 109.167C44.9681 109.209 45.2707 109.23 45.5737 109.23Z" fill="#263238"/>
<path d="M45.6566 108.986C45.648 109.114 45.5937 109.235 45.5036 109.326C45.4136 109.417 45.2938 109.473 45.166 109.483L43.9584 109.584C43.8747 109.597 43.7892 109.593 43.7071 109.573C43.6249 109.552 43.5477 109.515 43.4802 109.464C43.4126 109.413 43.3561 109.349 43.314 109.275C43.2718 109.202 43.245 109.121 43.235 109.037C43.2194 108.942 43.2255 108.845 43.2529 108.754C43.2803 108.662 43.3283 108.578 43.3932 108.507C43.4581 108.437 43.5382 108.382 43.6275 108.348C43.7167 108.313 43.8126 108.299 43.908 108.307L45.166 108.414C45.3062 108.427 45.4358 108.494 45.5274 108.6C45.619 108.707 45.6654 108.846 45.6566 108.986Z" fill="#263238"/>
<path d="M67.1835 95.8592C68.9482 95.8592 70.3788 94.4287 70.3788 92.664C70.3788 90.8993 68.9482 89.4688 67.1835 89.4688C65.4188 89.4688 63.9883 90.8993 63.9883 92.664C63.9883 94.4287 65.4188 95.8592 67.1835 95.8592Z" fill="#263238"/>
<path d="M67.1835 95.8592C68.9482 95.8592 70.3788 94.4287 70.3788 92.664C70.3788 90.8993 68.9482 89.4688 67.1835 89.4688C65.4188 89.4688 63.9883 90.8993 63.9883 92.664C63.9883 94.4287 65.4188 95.8592 67.1835 95.8592Z" fill="#263238"/>
<path d="M64.8203 92.6634C64.8191 93.1317 64.9569 93.5898 65.2163 93.9797C65.4757 94.3695 65.845 94.6736 66.2774 94.8534C66.7098 95.0332 67.1858 95.0806 67.6451 94.9895C68.1045 94.8985 68.5265 94.6731 68.8576 94.342C69.1887 94.0108 69.4141 93.5889 69.5051 93.1295C69.5962 92.6702 69.5488 92.1941 69.369 91.7617C69.1893 91.3293 68.8852 90.96 68.4953 90.7006C68.1054 90.4413 67.6473 90.3035 67.179 90.3047C66.5534 90.3047 65.9535 90.5532 65.5112 90.9955C65.0688 91.4379 64.8203 92.0378 64.8203 92.6634Z" fill="#117C53"/>
<path d="M60.4021 78.7454C60.704 79.1794 64.0439 86.2303 65.868 89.784L66.4026 89.5073C66.1321 88.9852 61.2764 78.9655 60.899 78.4057L57.3641 75.5312L57.2383 76.2043L60.4021 78.7454Z" fill="#455A64"/>
<path d="M59.0597 92.5803C61.3744 94.8887 67.2365 100.895 67.2365 100.895L68.8027 99.952L60.5504 91.1462C60.3831 90.9677 60.1577 90.8546 59.9146 90.8269C59.6715 90.7993 59.4265 90.8589 59.2233 90.9953C59.0963 91.0794 58.9895 91.1907 58.9107 91.3211C58.8318 91.4514 58.7828 91.5976 58.7672 91.7492C58.7515 91.9007 58.7697 92.0538 58.8202 92.1975C58.8708 92.3412 58.9526 92.472 59.0597 92.5803Z" fill="#263238"/>
<path d="M60.7305 106.291L62.6992 100.743C62.9035 100.145 63.2834 99.6217 63.7895 99.2424C64.2955 98.8631 64.9041 98.6453 65.5359 98.6172H65.8315C67.014 98.7493 73.0334 99.1455 73.0334 99.1455L75.3607 101.756C75.5521 101.973 75.6578 102.253 75.6578 102.542C75.6578 102.832 75.5521 103.111 75.3607 103.328L76.0337 108.046L74.7317 108.951L74.8638 112.247C74.8638 112.247 73.6875 113.027 73.1655 112.769L72.6371 112.505L71.8572 111.719L69.6306 114.864L66.5549 116.644L60.7305 106.291Z" fill="#FFBF9D"/>
<path d="M75.3938 103.593C75.1307 103.273 74.8493 102.969 74.5509 102.681C74.216 102.394 73.8355 102.164 73.425 102.002C72.8905 101.876 72.3449 101.802 71.796 101.782C70.351 101.702 68.9145 101.509 67.5 101.203C68.9465 101.169 70.3935 101.249 71.8274 101.442C72.4042 101.461 72.9765 101.55 73.532 101.706C73.9728 101.893 74.3741 102.162 74.7145 102.499C75.0554 102.779 75.2942 103.163 75.3938 103.593Z" fill="#FF9A6C"/>
<path d="M75.2652 107.927C75.1306 107.516 74.9688 107.115 74.7809 106.726C74.2438 105.835 73.4248 105.149 72.4537 104.776C71.4655 104.42 70.4218 104.244 69.3716 104.254C68.9312 104.284 68.4888 104.271 68.0508 104.216C68.4764 104.074 68.9231 104.006 69.3716 104.015C70.4601 103.931 71.554 104.081 72.5795 104.455C73.623 104.852 74.4831 105.62 74.9948 106.613C75.2308 107.008 75.3261 107.471 75.2652 107.927Z" fill="#FF9A6C"/>
<path d="M74.6744 111.975C74.4567 111.579 74.3481 111.132 74.3599 110.68C74.3343 110.216 74.2345 109.759 74.0643 109.327C73.9481 109.08 73.7724 108.864 73.5529 108.701C73.3335 108.537 73.077 108.431 72.8063 108.39C71.7695 108.168 70.7187 108.017 69.6614 107.937C69.2123 107.919 68.7706 107.817 68.3594 107.635C68.8027 107.625 69.2462 107.646 69.6865 107.698C70.7632 107.707 71.8361 107.827 72.8881 108.057C73.205 108.136 73.5039 108.274 73.7686 108.466C74.0147 108.658 74.2057 108.912 74.3222 109.202C74.494 109.669 74.5771 110.163 74.5675 110.661C74.5989 111.479 74.731 111.957 74.6744 111.975Z" fill="#FF9A6C"/>
<path d="M77.9606 101.57L51.9961 128.384L52.9962 129.397L71.5953 127.302L96.6226 103.457L96.5974 102.313L77.9606 101.57Z" fill="#455A64"/>
<g opacity="0.3">
<path d="M82.8188 114.065C82.2071 113.507 81.4853 113.083 80.6999 112.821C79.9145 112.559 79.0829 112.464 78.2587 112.542C76.6076 112.712 75.0442 113.368 73.7678 114.429C72.6868 115.221 71.8992 116.349 71.5286 117.637C71.0002 119.889 72.8557 123.04 74.8999 124.135C77.4913 122.053 80.0136 118.857 82.605 116.782C83.0254 116.51 83.3421 116.104 83.5044 115.631C83.5263 115.334 83.4752 115.036 83.3557 114.763C83.2363 114.49 83.052 114.25 82.8188 114.065Z" fill="black"/>
</g>
<path d="M96.5173 103.41C96.4042 103.418 96.2907 103.418 96.1776 103.41H95.1838L91.4602 103.366L78.5031 103.139L78.6227 103.089L72.119 109.838L58.6272 123.72L54.5137 127.896L53.3815 129.022C53.2537 129.157 53.1171 129.283 52.9727 129.399C53.0836 129.254 53.2078 129.119 53.3438 128.997L54.4319 127.827L58.47 123.575C61.9231 119.984 66.6468 115.059 71.8862 109.624C74.182 107.247 76.3898 104.97 78.4025 102.894L78.4528 102.844H78.5031L91.4414 103.215L95.1587 103.347L96.1525 103.397C96.2742 103.388 96.3965 103.392 96.5173 103.41Z" fill="#263238"/>
<path d="M80.2623 111.266C80.2623 111.266 82.7783 111.316 83.6022 111.725C84.4262 112.134 86.678 114.524 86.678 114.524C86.678 114.524 86.678 116.159 86.049 116.222C86.1294 116.588 86.1736 116.961 86.1811 117.335C86.244 118.254 86.376 118.776 85.1307 119.562C85.1307 119.562 85.2627 121.065 84.8036 121.449C84.4932 121.71 84.1653 121.949 83.8224 122.166C83.8224 122.166 83.7532 123.82 81.5329 123.801L79.4509 124.72C79.4509 124.72 74.8216 124.286 75.3122 123.738C75.8028 123.191 76.9161 120.48 76.9161 120.48C76.9161 120.48 73.7712 118.172 73.8089 117.455C73.8467 116.738 74.136 116.669 74.136 116.669C74.136 116.669 74.0102 115.297 75.1172 115.165C75.1172 115.165 75.9726 113.461 76.8218 113.398C77.6709 113.335 83.4324 115.423 83.4324 115.423L81.275 113.593C81.275 113.593 79.1113 113.266 79.1805 112.542C79.2497 111.819 80.2623 111.266 80.2623 111.266Z" fill="#FFBF9D"/>
<path d="M79.8925 119.888C78.8939 119.467 77.9176 118.995 76.9678 118.473C75.969 118.045 74.9928 117.567 74.043 117.039C75.1203 117.24 76.1587 117.611 77.1187 118.14C78.1291 118.574 79.0652 119.164 79.8925 119.888Z" fill="#FF9A6C"/>
<path d="M82.9055 117.886C81.6151 117.588 80.3526 117.179 79.1316 116.666C77.8773 116.259 76.6609 115.743 75.4961 115.125C76.7865 115.424 78.049 115.832 79.27 116.345C80.5243 116.752 81.7408 117.268 82.9055 117.886Z" fill="#FF9A6C"/>
<path d="M41.905 59.9323C41.068 57.0798 40.4746 54.1613 40.1313 51.2083C39.7883 48.2411 40.1859 45.2351 41.2886 42.4591C41.471 42.044 42.9554 39.3142 43.3957 39.352C43.7165 39.396 42.7667 41.9937 42.9051 42.283C44.314 45.0128 44.5656 48.2269 44.1631 51.2775C43.7431 54.2365 42.9942 57.1394 41.9302 59.9323" fill="#263238"/>
<path d="M42.2099 48.5846C42.3483 41.1248 46.8078 34.9985 54.255 35.3759L54.9406 35.4514C58.276 35.7955 61.3589 37.3848 63.5742 39.9019C65.7894 42.4191 66.9739 45.6791 66.8913 49.0312C66.734 55.4909 66.4761 62.6236 66.0736 66.0578C65.237 73.159 58.0037 73.5176 58.0037 73.5176L56.3558 84.4745L41.1406 73.895L42.2099 48.5846Z" fill="#FFBF9D"/>
<path d="M57.9756 73.5454C54.6902 73.1885 51.5757 71.8986 49 69.8281C49 69.8281 50.4215 75.9104 57.5856 76.0173L57.9756 73.5454Z" fill="#FF9A6C"/>
<path d="M64.1486 54.9556C64.123 55.2205 63.9949 55.4648 63.7915 55.6364C63.5882 55.808 63.3258 55.8933 63.0605 55.874C62.9302 55.8708 62.8019 55.8415 62.6832 55.7879C62.5644 55.7343 62.4576 55.6574 62.3691 55.5619C62.2806 55.4663 62.2121 55.3539 62.1677 55.2315C62.1233 55.109 62.1039 54.9788 62.1107 54.8487C62.1363 54.5834 62.2642 54.3384 62.4673 54.1658C62.6705 53.9932 62.9328 53.9065 63.1988 53.9241C63.3294 53.9281 63.4578 53.9581 63.5766 54.0124C63.6953 54.0667 63.8021 54.1442 63.8905 54.2402C63.979 54.3363 64.0474 54.4491 64.0917 54.5719C64.136 54.6948 64.1554 54.8252 64.1486 54.9556Z" fill="#263238"/>
<path d="M65.0284 51.8005C64.89 51.9137 64.1792 51.2659 63.0848 51.1715C61.9904 51.0772 61.135 51.5238 61.028 51.3791C60.9211 51.2344 61.1287 51.0835 61.506 50.8696C62.0138 50.589 62.5967 50.4746 63.1729 50.5425C63.7406 50.6 64.2756 50.8356 64.7013 51.2156C65.0095 51.4923 65.0976 51.7439 65.0284 51.8005Z" fill="#263238"/>
<path d="M54.7931 54.5104C54.7675 54.7757 54.6396 55.0206 54.4365 55.1933C54.2333 55.3659 53.971 55.4526 53.705 55.435C53.5745 55.431 53.446 55.4009 53.3273 55.3467C53.2085 55.2924 53.1017 55.2149 53.0133 55.1188C52.9248 55.0228 52.8564 54.91 52.8121 54.7872C52.7678 54.6643 52.7485 54.5339 52.7552 54.4034C52.7883 54.1438 52.9195 53.9066 53.1218 53.7406C53.3241 53.5745 53.5823 53.4921 53.8434 53.5103C53.9714 53.5135 54.0976 53.542 54.2146 53.594C54.3316 53.6461 54.4373 53.7207 54.5255 53.8135C54.6137 53.9064 54.6827 54.0158 54.7286 54.1353C54.7746 54.2549 54.7965 54.3823 54.7931 54.5104Z" fill="#263238"/>
<path d="M54.2706 51.1052C54.1322 51.2247 53.4214 50.5768 52.327 50.4762C51.2326 50.3756 50.3771 50.8284 50.2702 50.6775C50.1633 50.5265 50.3708 50.3882 50.7482 50.1743C51.256 49.8937 51.8389 49.7793 52.415 49.8472C52.9828 49.9047 53.5178 50.1403 53.9435 50.5202C54.2517 50.8033 54.3397 51.0549 54.2706 51.1052Z" fill="#263238"/>
<path d="M57.3086 59.9224C57.9041 59.7994 58.5131 59.755 59.1201 59.7903C59.3968 59.7903 59.6673 59.7903 59.7491 59.5765C59.8026 59.2898 59.7675 58.9936 59.6484 58.7273L59.0509 56.5133C58.2206 53.3684 57.6545 50.7895 57.7929 50.7581C57.9313 50.7267 58.6924 53.274 59.5226 56.419C59.7176 57.1926 59.9063 57.9348 60.0887 58.6393C60.2189 58.999 60.2189 59.3929 60.0887 59.7526C60.0386 59.8462 59.9678 59.9271 59.8817 59.9893C59.7956 60.0514 59.6964 60.0931 59.5918 60.1111C59.431 60.1319 59.2683 60.1319 59.1075 60.1111C58.5024 60.1222 57.8982 60.0588 57.3086 59.9224Z" fill="#263238"/>
<path d="M54.0172 60.3363C54.1933 60.3363 54.0738 61.5314 54.9984 62.4812C55.923 63.4309 57.1999 63.4309 57.1936 63.6008C57.1873 63.7706 56.8854 63.802 56.3508 63.758C55.6551 63.6953 55.0043 63.3877 54.5141 62.89C54.0409 62.4152 53.7722 61.7741 53.7656 61.1037C53.7719 60.6005 53.9355 60.3238 54.0172 60.3363Z" fill="#263238"/>
<path d="M54.6832 46.6644C54.5449 46.9475 53.4693 46.6644 52.1673 46.7147C50.8653 46.765 49.796 46.9726 49.6514 46.7147C49.5885 46.5764 49.8023 46.3185 50.2803 46.0857C50.8651 45.7887 51.5115 45.6336 52.1673 45.6329C52.8214 45.6294 53.4674 45.7779 54.0543 46.0669C54.5323 46.2681 54.7461 46.526 54.6832 46.6644Z" fill="#263238"/>
<path d="M64.9579 48.1077C64.7378 48.3342 64.0145 48.0008 63.1087 47.8939C62.203 47.7869 61.423 47.8939 61.2721 47.6045C61.2092 47.4725 61.3539 47.2334 61.7124 47.0322C62.1905 46.7927 62.731 46.707 63.2597 46.7869C63.7902 46.8399 64.2902 47.0602 64.6875 47.4158C64.9768 47.7303 65.0586 47.9945 64.9579 48.1077Z" fill="#263238"/>
<path d="M42.2304 53.9183C42.1109 53.8492 37.4942 51.9559 37.1357 56.8368C36.7772 61.7178 41.7524 61.0699 41.7713 60.9315C41.7902 60.7931 42.2304 53.9183 42.2304 53.9183Z" fill="#FFBF9D"/>
<path d="M40.4176 58.967C40.4176 58.967 40.3295 59.0236 40.1786 59.0802C39.9715 59.1463 39.7473 59.1328 39.5496 59.0425C39.0527 58.8161 38.6753 57.9669 38.713 57.0864C38.734 56.667 38.8456 56.2571 39.0401 55.885C39.094 55.7309 39.1855 55.5926 39.3063 55.4828C39.4271 55.373 39.5734 55.295 39.732 55.256C39.8317 55.2362 39.9352 55.2525 40.0239 55.3021C40.1127 55.3516 40.1809 55.4312 40.2163 55.5265C40.2729 55.6649 40.2163 55.7592 40.2603 55.7718C40.3044 55.7844 40.3673 55.6963 40.3421 55.495C40.3241 55.3717 40.2641 55.2584 40.1723 55.1742C40.11 55.1189 40.0373 55.0765 39.9585 55.0496C39.8796 55.0226 39.7962 55.0115 39.7131 55.017C39.5091 55.04 39.3148 55.1159 39.1492 55.2373C38.9837 55.3587 38.8529 55.5213 38.7696 55.7089C38.5325 56.1151 38.3965 56.5725 38.3734 57.0423C38.3356 58.0298 38.7696 58.9859 39.4615 59.2438C39.5898 59.2914 39.7271 59.3093 39.8633 59.2963C39.9995 59.2832 40.1309 59.2394 40.2477 59.1683C40.405 59.0865 40.4364 58.9796 40.4176 58.967Z" fill="#FF9A6C"/>
<path d="M64.2284 40.7071C65.0461 40.3234 62.8383 37.6125 60.9514 36.6061C58.1021 35.0839 53.674 33.9769 50.8876 34.5682C47.5666 35.2852 44.755 36.7319 42.931 39.6C41.1615 42.5185 40.1998 45.855 40.1446 49.2675C40.0368 50.3043 40.2084 51.3511 40.6415 52.2993C41.2705 53.4188 42.5284 54.1862 42.3649 55.6706C42.3293 55.9388 42.3471 56.2113 42.4172 56.4725C42.4874 56.7338 42.6086 56.9785 42.7737 57.1928C43.6103 58.2054 44.755 57.3815 45.3211 56.5197C46.5162 54.6705 46.7804 52.3999 47.0194 50.2299C47.2742 48.6868 47.2742 47.1123 47.0194 45.5691C46.8307 44.7389 46.4973 43.9463 46.3904 43.1035C46.2941 42.6885 46.2892 42.2575 46.3761 41.8405C46.463 41.4234 46.6396 41.0302 46.8936 40.6882C47.0223 40.5518 47.1634 40.4275 47.315 40.3171C48.0348 39.7678 48.8879 39.4201 49.7866 39.3096C50.6853 39.199 51.5972 39.3297 52.4287 39.6881C55.1144 40.8391 59.7186 42.594 61.008 41.7386C62.8572 40.5121 63.3353 39.663 63.3353 39.663L64.2284 40.7071Z" fill="#263238"/>
</g>
</svg>
