<svg width="20" height="20" viewBox="0 0 20 20" fill="none" xmlns="http://www.w3.org/2000/svg">
<path d="M2.10801 12.3084C1.93051 13.4701 2.72301 14.2759 3.69301 14.6776C7.41218 16.2192 12.5872 16.2192 16.3063 14.6776C17.2763 14.2759 18.0688 13.4692 17.8913 12.3084C17.783 11.5942 17.2438 11.0001 16.8447 10.4192C16.3222 9.64925 16.2705 8.81008 16.2697 7.91675C16.2705 4.46508 13.4638 1.66675 9.99968 1.66675C6.53551 1.66675 3.72885 4.46508 3.72885 7.91675C3.72885 8.81008 3.67718 9.65008 3.15385 10.4192C2.75551 11.0001 2.21718 11.5942 2.10801 12.3084Z" stroke="#2F71EB" stroke-width="1.5" stroke-linecap="round" stroke-linejoin="round"/>
<path d="M6.66602 15.8335C7.04768 17.271 8.39602 18.3335 9.99935 18.3335C11.6035 18.3335 12.9502 17.271 13.3327 15.8335" stroke="#2F71EB" stroke-width="1.5" stroke-linecap="round" stroke-linejoin="round"/>
</svg>
