<svg width="81" height="94" viewBox="0 0 81 94" fill="none" xmlns="http://www.w3.org/2000/svg">
<mask id="mask0_821_755" style="mask-type:alpha" maskUnits="userSpaceOnUse" x="0" y="0" width="81" height="94">
<path fill-rule="evenodd" clip-rule="evenodd" d="M0.126465 0.471863H80.4163V93.9488H0.126465V0.471863Z" fill="white"/>
</mask>
<g mask="url(#mask0_821_755)">
<path fill-rule="evenodd" clip-rule="evenodd" d="M21.6582 7.53434C13.8565 7.53434 7.37781 13.8529 7.19419 21.6452V72.0008C7.01998 80.0662 13.3762 86.7097 21.3616 86.8886H59.3296C67.1878 86.5637 73.4122 80.0333 73.3557 72.0291V30.2662L51.5326 7.53434H21.7147H21.6582ZM21.7147 93.9511H21.2015C9.32703 93.6827 -0.127298 83.8047 0.13166 71.9255V21.5605C0.404743 9.87911 10.0521 0.471863 21.6487 0.471863H21.7288H53.0392C53.9997 0.471863 54.9178 0.862655 55.5864 1.55478L79.4341 26.4007C80.065 27.0551 80.4182 27.9356 80.4182 28.8443V72.0009C80.5029 83.8141 71.3028 93.4662 59.4708 93.9464L21.7147 93.9511Z" fill="#AEF207"/>
</g>
<path fill-rule="evenodd" clip-rule="evenodd" d="M76.8638 33.3011H63.8923C55.2761 33.2775 48.2701 26.2527 48.2701 17.6459V3.94934C48.2701 2.00009 49.8521 0.418091 51.8013 0.418091C53.7506 0.418091 55.3326 2.00009 55.3326 3.94934V17.6459C55.3326 22.373 59.1793 26.2245 63.9017 26.2386H76.8638C78.813 26.2386 80.395 27.8206 80.395 29.7698C80.395 31.7191 78.813 33.3011 76.8638 33.3011Z" fill="#AEF207"/>
<path fill-rule="evenodd" clip-rule="evenodd" d="M50.9218 66.8437H25.4968C23.5476 66.8437 21.9656 65.2617 21.9656 63.3124C21.9656 61.3632 23.5476 59.7812 25.4968 59.7812H50.9218C52.8711 59.7812 54.4531 61.3632 54.4531 63.3124C54.4531 65.2617 52.8711 66.8437 50.9218 66.8437Z" fill="#AEF207"/>
<path fill-rule="evenodd" clip-rule="evenodd" d="M41.2938 49.178H25.4927C23.5434 49.178 21.9614 47.596 21.9614 45.6467C21.9614 43.6975 23.5434 42.1155 25.4927 42.1155H41.2938C43.2431 42.1155 44.8251 43.6975 44.8251 45.6467C44.8251 47.596 43.2431 49.178 41.2938 49.178Z" fill="#AEF207"/>
</svg>
