<svg width="33" height="34" viewBox="0 0 33 34" fill="none" xmlns="http://www.w3.org/2000/svg">
<g filter="url(#filter0_dd_601_1000)">
<rect x="4.875" y="2.375" width="23.25" height="23.25" rx="11.625" stroke="#C4FF34" stroke-opacity="0.2" stroke-width="0.75" shape-rendering="crispEdges"/>
</g>
<path d="M17.4996 15C18.8803 15 19.9996 13.8807 19.9996 12.5C19.9996 11.1193 18.8803 10 17.4996 10C16.1189 10 14.9996 11.1193 14.9996 12.5C14.9996 13.8807 16.1189 15 17.4996 15Z" fill="#92CE00"/>
<path d="M14.5773 18.2636C14.4317 18.4983 14.1235 18.5705 13.8888 18.4249C13.6542 18.2793 13.582 17.971 13.7275 17.7364C14.4122 16.6328 15.813 15.5 17.4996 15.5C19.1862 15.5 20.5869 16.6328 21.2716 17.7364C21.4172 17.971 21.345 18.2793 21.1104 18.4249C20.8757 18.5705 20.5675 18.4983 20.4219 18.2636C19.8608 17.3593 18.7418 16.5 17.4996 16.5C16.2574 16.5 15.1384 17.3593 14.5773 18.2636Z" fill="#92CE00"/>
<path d="M14.4485 11.2799C14.5701 11.5278 14.4677 11.8273 14.2197 11.9489C13.7654 12.1717 13.4996 12.5759 13.4996 13C13.4996 13.4241 13.7654 13.8283 14.2197 14.0511C14.4677 14.1727 14.5701 14.4722 14.4485 14.7201C14.3269 14.9681 14.0274 15.0705 13.7794 14.9489C13.041 14.5868 12.4996 13.8668 12.4996 13C12.4996 12.1332 13.041 11.4132 13.7794 11.0511C14.0274 10.9295 14.3269 11.0319 14.4485 11.2799Z" fill="#92CE00"/>
<path d="M12.5773 18.2636C12.4317 18.4983 12.1235 18.5705 11.8888 18.4249C11.6542 18.2793 11.582 17.971 11.7275 17.7364C12.0171 17.2697 12.4804 16.8802 12.9972 16.578C13.2356 16.4386 13.5418 16.5188 13.6812 16.7572C13.8206 16.9956 13.7404 17.3018 13.502 17.4412C13.0701 17.6937 12.7524 17.9814 12.5773 18.2636Z" fill="#92CE00"/>
<defs>
<filter id="filter0_dd_601_1000" x="0" y="0.5" width="33" height="33" filterUnits="userSpaceOnUse" color-interpolation-filters="sRGB">
<feFlood flood-opacity="0" result="BackgroundImageFix"/>
<feColorMatrix in="SourceAlpha" type="matrix" values="0 0 0 0 0 0 0 0 0 0 0 0 0 0 0 0 0 0 127 0" result="hardAlpha"/>
<feMorphology radius="1.5" operator="erode" in="SourceAlpha" result="effect1_dropShadow_601_1000"/>
<feOffset dy="1.5"/>
<feGaussianBlur stdDeviation="1.5"/>
<feComposite in2="hardAlpha" operator="out"/>
<feColorMatrix type="matrix" values="0 0 0 0 0 0 0 0 0 0 0 0 0 0 0 0 0 0 0.04 0"/>
<feBlend mode="normal" in2="BackgroundImageFix" result="effect1_dropShadow_601_1000"/>
<feColorMatrix in="SourceAlpha" type="matrix" values="0 0 0 0 0 0 0 0 0 0 0 0 0 0 0 0 0 0 127 0" result="hardAlpha"/>
<feMorphology radius="1.5" operator="erode" in="SourceAlpha" result="effect2_dropShadow_601_1000"/>
<feOffset dy="3"/>
<feGaussianBlur stdDeviation="3"/>
<feComposite in2="hardAlpha" operator="out"/>
<feColorMatrix type="matrix" values="0 0 0 0 0 0 0 0 0 0 0 0 0 0 0 0 0 0 0.08 0"/>
<feBlend mode="normal" in2="effect1_dropShadow_601_1000" result="effect2_dropShadow_601_1000"/>
<feBlend mode="normal" in="SourceGraphic" in2="effect2_dropShadow_601_1000" result="shape"/>
</filter>
</defs>
</svg>
