<svg width="43" height="42" viewBox="0 0 43 42" fill="none" xmlns="http://www.w3.org/2000/svg">
<path fill-rule="evenodd" clip-rule="evenodd" d="M28.7419 1.89087C26.5628 1.58014 25 3.39589 25 5.25003V14C25 15.933 26.567 17.5 28.5 17.5H37.25C39.1041 17.5 40.9199 15.9372 40.6092 13.7582C39.7337 7.61872 34.8813 2.76637 28.7419 1.89087ZM28.5 5.25003C28.4987 5.25501 28.4931 5.2687 28.4734 5.28755C28.4564 5.30378 28.426 5.32595 28.38 5.34154C28.3309 5.35814 28.2827 5.36081 28.2478 5.35582C28.3322 5.36786 28.4163 5.3809 28.5 5.39494V14H37.1051C37.1191 14.0838 37.1322 14.1679 37.1442 14.2523C37.1392 14.2173 37.1419 14.1691 37.1585 14.1201C37.1741 14.074 37.1963 14.0436 37.2125 14.0266C37.2313 14.0069 37.245 14.0016 37.25 14.0003L37.1051 14C36.3684 9.60451 32.8955 6.13159 28.5 5.39494V5.25003Z" fill="white"/>
<path fill-rule="evenodd" clip-rule="evenodd" d="M23.25 7.00003C23.25 5.12519 21.6866 3.3718 19.5608 3.60641C10.8076 4.57245 4 11.99 4 21C4 30.665 11.835 38.5 21.5 38.5C30.51 38.5 37.9276 31.6925 38.8936 22.9392C39.1282 20.8134 37.3749 19.25 35.5 19.25H26.75C24.817 19.25 23.25 17.683 23.25 15.75V7.00003ZM7.5 21C7.5 13.8611 12.8447 7.96822 19.75 7.10816V15.75C19.75 19.616 22.884 22.75 26.75 22.75H35.3919C34.5318 29.6553 28.6389 35 21.5 35C13.768 35 7.5 28.732 7.5 21Z" fill="white"/>
</svg>
