<svg width="21" height="21" viewBox="0 0 21 21" fill="none" xmlns="http://www.w3.org/2000/svg">
<path fill-rule="evenodd" clip-rule="evenodd" d="M4.47972 2.09877C1.59877 2.09877 1.59877 2.31668 1.59877 4.97972V5.00592C1.59877 6.16563 1.59877 7.00372 1.88268 7.35782C2.1603 7.70144 2.98477 7.86068 4.47972 7.86068C5.97468 7.86068 6.79915 7.70039 7.07677 7.35677C7.36068 7.00372 7.36068 6.16563 7.36068 5.00487C7.36068 2.31668 7.36068 2.09877 4.47972 2.09877M4.47972 9.43211C2.71344 9.43211 1.3882 9.24668 0.660106 8.34258C0.0273438 7.55791 0.0273438 6.48725 0.0273438 5.00592L0.813058 4.97972H0.0273438C0.0273438 1.97306 0.216963 0.527344 4.47972 0.527344C8.74249 0.527344 8.93211 1.97306 8.93211 4.97972C8.93211 6.4862 8.9321 7.55791 8.29934 8.34258C7.57125 9.24668 6.24601 9.43211 4.47972 9.43211" fill="#027D52"/>
<path fill-rule="evenodd" clip-rule="evenodd" d="M16.0032 2.09877C13.1222 2.09877 13.1222 2.31668 13.1222 4.97972V5.00592C13.1222 6.16563 13.1222 7.00372 13.4061 7.35782C13.6837 7.70144 14.5082 7.86068 16.0032 7.86068C17.4981 7.86068 18.3226 7.70039 18.6002 7.35677C18.8841 7.00372 18.8841 6.16563 18.8841 5.00487C18.8841 2.31668 18.8841 2.09877 16.0032 2.09877M16.0032 9.43211C14.2369 9.43211 12.9116 9.24668 12.1835 8.34258C11.5508 7.55791 11.5508 6.48725 11.5508 5.00592L12.3365 4.97972H11.5508C11.5508 1.97306 11.7404 0.527344 16.0032 0.527344C20.2659 0.527344 20.4555 1.97306 20.4555 4.97972C20.4555 6.4862 20.4555 7.55791 19.8228 8.34258C19.0947 9.24668 17.7694 9.43211 16.0032 9.43211" fill="#027D52"/>
<path fill-rule="evenodd" clip-rule="evenodd" d="M4.47972 13.6222C1.59877 13.6222 1.59877 13.8401 1.59877 16.5032V16.5294C1.59877 17.6891 1.59877 18.5272 1.88268 18.8813C2.1603 19.2249 2.98477 19.3841 4.47972 19.3841C5.97468 19.3841 6.79915 19.2238 7.07677 18.8802C7.36068 18.5272 7.36068 17.6891 7.36068 16.5283C7.36068 13.8401 7.36068 13.6222 4.47972 13.6222M4.47972 20.9555C2.71344 20.9555 1.3882 20.7701 0.660106 19.866C0.0273438 19.0814 0.0273438 18.0107 0.0273438 16.5294L0.813058 16.5032H0.0273438C0.0273438 13.4965 0.216963 12.0508 4.47972 12.0508C8.74249 12.0508 8.93211 13.4965 8.93211 16.5032C8.93211 18.0096 8.9321 19.0814 8.29934 19.866C7.57125 20.7701 6.24601 20.9555 4.47972 20.9555" fill="#027D52"/>
<path fill-rule="evenodd" clip-rule="evenodd" d="M16.0032 13.6222C13.1222 13.6222 13.1222 13.8401 13.1222 16.5032V16.5294C13.1222 17.6891 13.1222 18.5272 13.4061 18.8813C13.6837 19.2249 14.5082 19.3841 16.0032 19.3841C17.4981 19.3841 18.3226 19.2238 18.6002 18.8802C18.8841 18.5272 18.8841 17.6891 18.8841 16.5283C18.8841 13.8401 18.8841 13.6222 16.0032 13.6222M16.0032 20.9555C14.2369 20.9555 12.9116 20.7701 12.1835 19.866C11.5508 19.0814 11.5508 18.0107 11.5508 16.5294L12.3365 16.5032H11.5508C11.5508 13.4965 11.7404 12.0508 16.0032 12.0508C20.2659 12.0508 20.4555 13.4965 20.4555 16.5032C20.4555 18.0096 20.4555 19.0814 19.8228 19.866C19.0947 20.7701 17.7694 20.9555 16.0032 20.9555" fill="#027D52"/>
</svg>
