<svg width="58" height="58" viewBox="0 0 58 58" fill="none" xmlns="http://www.w3.org/2000/svg">
<rect width="58" height="58" rx="12" fill="#EEFFF9"/>
<path d="M35.9355 14.3359H22.6986C21.9589 14.3359 21.3359 14.9589 21.3359 15.6986V30.8821C21.3359 31.6218 21.9589 32.2447 22.6986 32.2447H35.9355C36.6752 32.2447 37.2981 31.6218 37.2981 30.8821V15.6986C37.2981 14.9589 36.6752 14.3359 35.9355 14.3359ZM26.0078 26.4049H22.8932V25.2369H26.0078V26.4049ZM31.069 26.4049H27.5651V25.2369H31.069V26.4049ZM35.7408 26.4049H32.6263V25.2369H35.7408V26.4049Z" fill="#027D52"/>
<path d="M37.4928 12H21.1413C19.9733 12 19 12.9733 19 14.1413V33.1402C19 34.2692 19.4283 35.3204 20.168 36.1379L22.1535 38.3181L22.1924 38.3571C23.5551 39.8365 23.7108 39.9922 24.0612 39.9922H27.1758V45.1313L27.7208 47H30.9522L31.4972 45.1313V40.0311H34.6118C34.9622 40.0311 35.1179 39.8754 36.4805 38.396L38.505 36.1379C39.2447 35.3204 39.673 34.2303 39.673 33.1402V14.1413C39.634 12.9733 38.6607 12 37.4928 12ZM24.8398 38.8632V37.6952H27.1758V38.8632H24.8398ZM29.901 43.9244V41.5884H28.733V43.9244H28.3437V37.6952H30.2903V43.9244H29.901ZM28.5773 45.871L28.3437 45.0923H30.2514L30.0178 45.871H28.5773ZM31.4583 37.6952H33.7942V38.8632H31.4583V37.6952ZM38.4661 33.1402C38.4661 33.9577 38.1546 34.7364 37.6096 35.3593L35.624 37.5395L35.5851 37.5784C35.3904 37.812 35.1568 38.0456 34.9622 38.2403V37.0723C34.9622 36.7608 34.6897 36.4883 34.3782 36.4883H24.2558C23.9444 36.4883 23.6719 36.7608 23.6719 37.0723V38.2403C23.4772 38.0067 23.2436 37.7731 23.0489 37.5784L21.0245 35.3593C20.4794 34.7364 20.168 33.9577 20.168 33.1402V14.1413C20.168 13.5962 20.5962 13.168 21.1413 13.168H37.4928C38.0378 13.168 38.4661 13.5962 38.4661 14.1413V33.1402Z" fill="#027D52"/>
<path d="M25.0116 33.5863C24.4643 34.1336 24.2918 34.8485 24.6262 35.183C24.9607 35.5174 25.6756 35.3449 26.2229 34.7976C26.7703 34.2502 26.9428 33.5354 26.6083 33.2009C26.2738 32.8664 25.559 33.0389 25.0116 33.5863Z" fill="#027D52"/>
<path d="M32.0211 33.586C31.4738 34.1334 31.3012 34.8482 31.6357 35.1827C31.9702 35.5172 32.6851 35.3447 33.2324 34.7973C33.7797 34.25 33.9523 33.5351 33.6178 33.2006C33.2833 32.8662 32.5685 33.0387 32.0211 33.586Z" fill="#027D52"/>
<path d="M28.5174 33.586C27.9701 34.1334 27.7976 34.8482 28.132 35.1827C28.4665 35.5172 29.1814 35.3447 29.7287 34.7973C30.2761 34.25 30.4486 33.5351 30.1141 33.2006C29.7796 32.8662 29.0648 33.0387 28.5174 33.586Z" fill="#027D52"/>
</svg>
