<svg width="40" height="40" viewBox="0 0 40 40" fill="none" xmlns="http://www.w3.org/2000/svg">
<rect width="40" height="40" rx="8" fill="#027D52" fill-opacity="0.2"/>
<g clip-path="url(#clip0_460_7935)">
<path fill-rule="evenodd" clip-rule="evenodd" d="M20 11C17.2386 11 15 13.2386 15 16C15 18.7614 17.2386 21 20 21C22.7614 21 25 18.7614 25 16C25 13.2386 22.7614 11 20 11ZM17 16C17 14.3431 18.3431 13 20 13C21.6569 13 23 14.3431 23 16C23 17.6569 21.6569 19 20 19C18.3431 19 17 17.6569 17 16Z" fill="white"/>
<path fill-rule="evenodd" clip-rule="evenodd" d="M32 20C32 26.6274 26.6274 32 20 32L19.984 32C13.364 31.9914 8 26.6221 8 20C8 13.3726 13.3726 8 20 8C26.6274 8 32 13.3726 32 20ZM10 20C10 14.4772 14.4772 10 20 10C25.5228 10 30 14.4772 30 20C30 22.387 29.1637 24.5786 27.7681 26.2979C27.7269 26.2032 27.6801 26.1084 27.6274 26.0136C26.2713 23.5774 23.4517 21 19.9969 21C16.5422 21 13.7226 23.5774 12.3665 26.0136C12.3146 26.1068 12.2686 26.2001 12.2281 26.2932C10.8348 24.5747 10 22.3848 10 20ZM15.4684 28.8306C16.8284 29.5567 18.7092 29.9985 19.9904 30L19.9969 30C21.2824 30 23.1736 29.5661 24.5369 28.8442C25.2239 28.4804 25.6644 28.1019 25.8687 27.7742C26.028 27.5187 26.0546 27.3003 25.8799 26.9864C24.7212 24.9048 22.4543 23 19.9969 23C17.5396 23 15.2727 24.9048 14.114 26.9864C13.9484 27.2839 13.9707 27.4959 14.1331 27.7546C14.3396 28.0836 14.7822 28.4642 15.4684 28.8306Z" fill="white"/>
</g>
<defs>
<clipPath id="clip0_460_7935">
<rect width="24" height="24" fill="white" transform="translate(8 8)"/>
</clipPath>
</defs>
</svg>
