<svg width="25" height="25" viewBox="0 0 25 25" fill="none" xmlns="http://www.w3.org/2000/svg">
<path fill-rule="evenodd" clip-rule="evenodd" d="M2.18569 2.18566C0.416687 3.95707 0.416687 6.80391 0.416687 12.5C0.416687 18.1961 0.416687 21.0441 2.18569 22.8131C3.9571 24.5833 6.80394 24.5833 12.5 24.5833C18.1961 24.5833 21.0441 24.5833 22.8131 22.8131C24.5834 21.0453 24.5834 18.1961 24.5834 12.5C24.5834 6.80391 24.5834 3.95586 22.8131 2.18566C21.0454 0.416656 18.1961 0.416656 12.5 0.416656C6.80394 0.416656 3.9559 0.416656 2.18569 2.18566ZM12.5 13.7083C12.8205 13.7083 13.1278 13.581 13.3544 13.3544C13.581 13.1278 13.7084 12.8205 13.7084 12.5C13.7084 12.1795 13.581 11.8722 13.3544 11.6456C13.1278 11.419 12.8205 11.2917 12.5 11.2917C12.1795 11.2917 11.8722 11.419 11.6456 11.6456C11.419 11.8722 11.2917 12.1795 11.2917 12.5C11.2917 12.8205 11.419 13.1278 11.6456 13.3544C11.8722 13.581 12.1795 13.7083 12.5 13.7083ZM8.87502 12.5C8.87502 12.8205 8.74771 13.1278 8.52111 13.3544C8.2945 13.581 7.98716 13.7083 7.66669 13.7083C7.34622 13.7083 7.03887 13.581 6.81227 13.3544C6.58566 13.1278 6.45835 12.8205 6.45835 12.5C6.45835 12.1795 6.58566 11.8722 6.81227 11.6456C7.03887 11.419 7.34622 11.2917 7.66669 11.2917C7.98716 11.2917 8.2945 11.419 8.52111 11.6456C8.74771 11.8722 8.87502 12.1795 8.87502 12.5ZM17.3334 13.7083C17.6538 13.7083 17.9612 13.581 18.1878 13.3544C18.4144 13.1278 18.5417 12.8205 18.5417 12.5C18.5417 12.1795 18.4144 11.8722 18.1878 11.6456C17.9612 11.419 17.6538 11.2917 17.3334 11.2917C17.0129 11.2917 16.7055 11.419 16.4789 11.6456C16.2523 11.8722 16.125 12.1795 16.125 12.5C16.125 12.8205 16.2523 13.1278 16.4789 13.3544C16.7055 13.581 17.0129 13.7083 17.3334 13.7083Z" fill="white"/>
</svg>
