<svg width="29" height="29" viewBox="0 0 29 29" fill="none" xmlns="http://www.w3.org/2000/svg">
<path fill-rule="evenodd" clip-rule="evenodd" d="M4.1855 4.18566C2.4165 5.95707 2.4165 8.80391 2.4165 14.5C2.4165 20.1961 2.4165 23.0441 4.1855 24.8131C5.95692 26.5833 8.80375 26.5833 14.4998 26.5833C20.1959 26.5833 23.044 26.5833 24.813 24.8131C26.5832 23.0453 26.5832 20.1961 26.5832 14.5C26.5832 8.80391 26.5832 5.95586 24.813 4.18566C23.0452 2.41666 20.1959 2.41666 14.4998 2.41666C8.80375 2.41666 5.95571 2.41666 4.1855 4.18566ZM14.4998 15.7083C14.8203 15.7083 15.1277 15.581 15.3543 15.3544C15.5809 15.1278 15.7082 14.8205 15.7082 14.5C15.7082 14.1795 15.5809 13.8722 15.3543 13.6456C15.1277 13.419 14.8203 13.2917 14.4998 13.2917C14.1794 13.2917 13.872 13.419 13.6454 13.6456C13.4188 13.8722 13.2915 14.1795 13.2915 14.5C13.2915 14.8205 13.4188 15.1278 13.6454 15.3544C13.872 15.581 14.1794 15.7083 14.4998 15.7083ZM10.8748 14.5C10.8748 14.8205 10.7475 15.1278 10.5209 15.3544C10.2943 15.581 9.98697 15.7083 9.6665 15.7083C9.34603 15.7083 9.03869 15.581 8.81208 15.3544C8.58548 15.1278 8.45817 14.8205 8.45817 14.5C8.45817 14.1795 8.58548 13.8722 8.81208 13.6456C9.03869 13.419 9.34603 13.2917 9.6665 13.2917C9.98697 13.2917 10.2943 13.419 10.5209 13.6456C10.7475 13.8722 10.8748 14.1795 10.8748 14.5ZM19.3332 15.7083C19.6536 15.7083 19.961 15.581 20.1876 15.3544C20.4142 15.1278 20.5415 14.8205 20.5415 14.5C20.5415 14.1795 20.4142 13.8722 20.1876 13.6456C19.961 13.419 19.6536 13.2917 19.3332 13.2917C19.0127 13.2917 18.7054 13.419 18.4787 13.6456C18.2521 13.8722 18.1248 14.1795 18.1248 14.5C18.1248 14.8205 18.2521 15.1278 18.4787 15.3544C18.7054 15.581 19.0127 15.7083 19.3332 15.7083Z" fill="#2F71EB"/>
</svg>
