<svg width="301" height="301" viewBox="0 0 301 301" fill="none" xmlns="http://www.w3.org/2000/svg">
<path d="M300.167 150.5H0.833328M225.333 0.833496H262.75C272.673 0.833496 282.191 4.7756 289.208 11.7926C296.225 18.8096 300.167 28.3266 300.167 38.2502V75.6668M75.6667 300.167H38.25C28.3265 300.167 18.8094 296.225 11.7924 289.208C4.77543 282.191 0.833328 272.674 0.833328 262.75V225.333M300.167 225.333V262.75C300.167 272.674 296.225 282.191 289.208 289.208C282.191 296.225 272.673 300.167 262.75 300.167H225.333M0.833328 75.6668V38.2502C0.833328 28.3266 4.77543 18.8096 11.7924 11.7926C18.8094 4.7756 28.3265 0.833496 38.25 0.833496H75.6667" stroke="#0F57C5" stroke-width="1.5" stroke-linecap="round" stroke-linejoin="round"/>
</svg>
