<svg width="34" height="34" viewBox="0 0 34 34" fill="none" xmlns="http://www.w3.org/2000/svg">
<g filter="url(#filter0_dd_601_1158)">
<rect x="5" y="2" width="24" height="24" rx="12" fill="#EEFFF9"/>
<rect x="5.375" y="2.375" width="23.25" height="23.25" rx="11.625" stroke="#2FCF97" stroke-opacity="0.2" stroke-width="0.75"/>
</g>
<path d="M17.9996 15C19.3803 15 20.4996 13.8807 20.4996 12.5C20.4996 11.1193 19.3803 10 17.9996 10C16.6189 10 15.4996 11.1193 15.4996 12.5C15.4996 13.8807 16.6189 15 17.9996 15Z" fill="#027D52"/>
<path d="M15.0773 18.2636C14.9317 18.4983 14.6235 18.5705 14.3888 18.4249C14.1542 18.2793 14.082 17.971 14.2275 17.7364C14.9122 16.6328 16.313 15.5 17.9996 15.5C19.6862 15.5 21.0869 16.6328 21.7716 17.7364C21.9172 17.971 21.845 18.2793 21.6104 18.4249C21.3757 18.5705 21.0675 18.4983 20.9219 18.2636C20.3608 17.3593 19.2418 16.5 17.9996 16.5C16.7574 16.5 15.6384 17.3593 15.0773 18.2636Z" fill="#027D52"/>
<path d="M14.9485 11.2799C15.0701 11.5278 14.9677 11.8273 14.7197 11.9489C14.2654 12.1717 13.9996 12.5759 13.9996 13C13.9996 13.4241 14.2654 13.8283 14.7197 14.0511C14.9677 14.1727 15.0701 14.4722 14.9485 14.7201C14.8269 14.9681 14.5274 15.0705 14.2794 14.9489C13.541 14.5868 12.9996 13.8668 12.9996 13C12.9996 12.1332 13.541 11.4132 14.2794 11.0511C14.5274 10.9295 14.8269 11.0319 14.9485 11.2799Z" fill="#027D52"/>
<path d="M13.0773 18.2636C12.9317 18.4983 12.6235 18.5705 12.3888 18.4249C12.1542 18.2793 12.082 17.971 12.2275 17.7364C12.5171 17.2697 12.9804 16.8802 13.4972 16.578C13.7356 16.4386 14.0418 16.5188 14.1812 16.7572C14.3206 16.9956 14.2404 17.3018 14.002 17.4412C13.5701 17.6937 13.2524 17.9814 13.0773 18.2636Z" fill="#027D52"/>
<defs>
<filter id="filter0_dd_601_1158" x="0.5" y="0.5" width="33" height="33" filterUnits="userSpaceOnUse" color-interpolation-filters="sRGB">
<feFlood flood-opacity="0" result="BackgroundImageFix"/>
<feColorMatrix in="SourceAlpha" type="matrix" values="0 0 0 0 0 0 0 0 0 0 0 0 0 0 0 0 0 0 127 0" result="hardAlpha"/>
<feMorphology radius="1.5" operator="erode" in="SourceAlpha" result="effect1_dropShadow_601_1158"/>
<feOffset dy="1.5"/>
<feGaussianBlur stdDeviation="1.5"/>
<feComposite in2="hardAlpha" operator="out"/>
<feColorMatrix type="matrix" values="0 0 0 0 0 0 0 0 0 0 0 0 0 0 0 0 0 0 0.04 0"/>
<feBlend mode="normal" in2="BackgroundImageFix" result="effect1_dropShadow_601_1158"/>
<feColorMatrix in="SourceAlpha" type="matrix" values="0 0 0 0 0 0 0 0 0 0 0 0 0 0 0 0 0 0 127 0" result="hardAlpha"/>
<feMorphology radius="1.5" operator="erode" in="SourceAlpha" result="effect2_dropShadow_601_1158"/>
<feOffset dy="3"/>
<feGaussianBlur stdDeviation="3"/>
<feComposite in2="hardAlpha" operator="out"/>
<feColorMatrix type="matrix" values="0 0 0 0 0 0 0 0 0 0 0 0 0 0 0 0 0 0 0.08 0"/>
<feBlend mode="normal" in2="effect1_dropShadow_601_1158" result="effect2_dropShadow_601_1158"/>
<feBlend mode="normal" in="SourceGraphic" in2="effect2_dropShadow_601_1158" result="shape"/>
</filter>
</defs>
</svg>
