<svg width="20" height="22" viewBox="0 0 20 22" fill="none" xmlns="http://www.w3.org/2000/svg">
<path d="M6 4V5M10 4V7M14 4V5M1 4.113C1 3.56 1 3.283 1.043 3.053C1.13465 2.55596 1.37422 2.09816 1.73036 1.73952C2.0865 1.38089 2.54261 1.13812 3.039 1.043C3.267 1 3.542 1 4.09 1H15.91C16.458 1 16.733 1 16.961 1.043C17.4574 1.13812 17.9135 1.38089 18.2696 1.73952C18.6258 2.09816 18.8654 2.55596 18.957 3.053C19 3.283 19 3.56 19 4.113C19 4.655 19 4.926 18.968 5.178C18.9002 5.71999 18.7232 6.2426 18.4476 6.71424C18.1721 7.18587 17.8038 7.59674 17.365 7.922C17.163 8.072 16.927 8.204 16.457 8.467L13.885 9.906C11.986 10.969 11.037 11.5 10 11.5C8.963 11.5 8.014 10.969 6.115 9.906L3.543 8.466C3.073 8.204 2.838 8.072 2.635 7.922C2.19619 7.59674 1.82789 7.18587 1.55236 6.71424C1.27684 6.2426 1.09982 5.71999 1.032 5.178C1 4.926 1 4.655 1 4.113ZM10.777 12.65L11.569 14.247C11.6363 14.3668 11.7281 14.4711 11.8384 14.5531C11.9486 14.6351 12.0749 14.693 12.209 14.723L13.644 14.963C14.561 15.118 14.777 15.789 14.116 16.452L13 17.577C12.9024 17.6876 12.8307 17.8186 12.7902 17.9605C12.7497 18.1024 12.7414 18.2515 12.766 18.397L13.086 19.791C13.338 20.893 12.757 21.32 11.79 20.743L10.445 19.94C10.201 19.795 9.801 19.795 9.554 19.94L8.208 20.743C7.245 21.32 6.66 20.889 6.912 19.791L7.232 18.398C7.25672 18.2524 7.24853 18.103 7.20804 17.961C7.16755 17.8189 7.09578 17.6877 6.998 17.577L5.882 16.452C5.225 15.789 5.437 15.118 6.354 14.964L7.79 14.724C7.92309 14.6931 8.04825 14.6347 8.15743 14.5525C8.26661 14.4704 8.35741 14.3663 8.424 14.247L9.216 12.65C9.648 11.783 10.35 11.783 10.777 12.65Z" stroke="#0F57C5" stroke-width="1.5" stroke-linecap="round" stroke-linejoin="round"/>
</svg>
