<svg width="25" height="24" viewBox="0 0 25 24" fill="none" xmlns="http://www.w3.org/2000/svg">
<path fill-rule="evenodd" clip-rule="evenodd" d="M21.1665 9.9043H3.34253C2.92853 9.9043 2.59253 9.5683 2.59253 9.1543C2.59253 8.7403 2.92853 8.4043 3.34253 8.4043H21.1665C21.5805 8.4043 21.9165 8.7403 21.9165 9.1543C21.9165 9.5683 21.5805 9.9043 21.1665 9.9043Z" fill="#929BAB"/>
<path fill-rule="evenodd" clip-rule="evenodd" d="M16.7012 13.8096C16.2872 13.8096 15.9472 13.4736 15.9472 13.0596C15.9472 12.6456 16.2782 12.3096 16.6922 12.3096H16.7012C17.1152 12.3096 17.4512 12.6456 17.4512 13.0596C17.4512 13.4736 17.1152 13.8096 16.7012 13.8096Z" fill="#929BAB"/>
<path fill-rule="evenodd" clip-rule="evenodd" d="M12.2637 13.8096C11.8497 13.8096 11.5097 13.4736 11.5097 13.0596C11.5097 12.6456 11.8407 12.3096 12.2547 12.3096H12.2637C12.6777 12.3096 13.0137 12.6456 13.0137 13.0596C13.0137 13.4736 12.6777 13.8096 12.2637 13.8096Z" fill="#929BAB"/>
<path fill-rule="evenodd" clip-rule="evenodd" d="M7.81689 13.8096C7.40289 13.8096 7.06189 13.4736 7.06189 13.0596C7.06189 12.6456 7.39389 12.3096 7.80789 12.3096H7.81689C8.23089 12.3096 8.56689 12.6456 8.56689 13.0596C8.56689 13.4736 8.23089 13.8096 7.81689 13.8096Z" fill="#929BAB"/>
<path fill-rule="evenodd" clip-rule="evenodd" d="M16.7012 17.6963C16.2872 17.6963 15.9472 17.3603 15.9472 16.9463C15.9472 16.5323 16.2782 16.1963 16.6922 16.1963H16.7012C17.1152 16.1963 17.4512 16.5323 17.4512 16.9463C17.4512 17.3603 17.1152 17.6963 16.7012 17.6963Z" fill="#929BAB"/>
<path fill-rule="evenodd" clip-rule="evenodd" d="M12.2637 17.6963C11.8497 17.6963 11.5097 17.3603 11.5097 16.9463C11.5097 16.5323 11.8407 16.1963 12.2547 16.1963H12.2637C12.6777 16.1963 13.0137 16.5323 13.0137 16.9463C13.0137 17.3603 12.6777 17.6963 12.2637 17.6963Z" fill="#929BAB"/>
<path fill-rule="evenodd" clip-rule="evenodd" d="M7.81689 17.6963C7.40289 17.6963 7.06189 17.3603 7.06189 16.9463C7.06189 16.5323 7.39389 16.1963 7.80789 16.1963H7.81689C8.23089 16.1963 8.56689 16.5323 8.56689 16.9463C8.56689 17.3603 8.23089 17.6963 7.81689 17.6963Z" fill="#929BAB"/>
<path fill-rule="evenodd" clip-rule="evenodd" d="M16.2935 5.791C15.8795 5.791 15.5435 5.455 15.5435 5.041V1.75C15.5435 1.336 15.8795 1 16.2935 1C16.7075 1 17.0435 1.336 17.0435 1.75V5.041C17.0435 5.455 16.7075 5.791 16.2935 5.791Z" fill="#929BAB"/>
<path fill-rule="evenodd" clip-rule="evenodd" d="M8.21527 5.791C7.80127 5.791 7.46527 5.455 7.46527 5.041V1.75C7.46527 1.336 7.80127 1 8.21527 1C8.62927 1 8.96527 1.336 8.96527 1.75V5.041C8.96527 5.455 8.62927 5.791 8.21527 5.791Z" fill="#929BAB"/>
<mask id="mask0_733_2830" style="mask-type:alpha" maskUnits="userSpaceOnUse" x="2" y="2" width="20" height="21">
<path fill-rule="evenodd" clip-rule="evenodd" d="M2.5 2.5791H22V22.5H2.5V2.5791Z" fill="white"/>
</mask>
<g mask="url(#mask0_733_2830)">
<path fill-rule="evenodd" clip-rule="evenodd" d="M8.021 4.0791C5.428 4.0791 4 5.4621 4 7.9731V17.0221C4 19.5881 5.428 21.0001 8.021 21.0001H16.479C19.072 21.0001 20.5 19.6141 20.5 17.0981V7.9731C20.504 6.7381 20.172 5.7781 19.513 5.1181C18.835 4.4381 17.79 4.0791 16.488 4.0791H8.021ZM16.479 22.5001H8.021C4.616 22.5001 2.5 20.4011 2.5 17.0221V7.9731C2.5 4.6451 4.616 2.5791 8.021 2.5791H16.488C18.197 2.5791 19.61 3.0911 20.575 4.0581C21.512 4.9991 22.005 6.3521 22 7.9751V17.0981C22 20.4301 19.884 22.5001 16.479 22.5001Z" fill="#929BAB"/>
</g>
</svg>
