<svg width="12" height="16" viewBox="0 0 12 16" fill="none" xmlns="http://www.w3.org/2000/svg">
<path d="M6.00033 15.4684C4.32588 14.9712 2.93505 13.957 1.82783 12.4259C0.720603 10.8948 0.166992 9.16949 0.166992 7.25004V2.74338L6.00033 0.564209L11.8337 2.74338V7.25004C11.8337 8.18504 11.6884 9.10143 11.3978 9.99921C11.1073 10.8975 10.6564 11.7578 10.0453 12.58L7.47449 10.01C7.26727 10.1734 7.03727 10.2959 6.78449 10.3775C6.53171 10.4592 6.27033 10.5 6.00033 10.5C5.3131 10.5 4.72449 10.2553 4.23449 9.76588C3.74449 9.27643 3.49977 8.68782 3.50033 8.00004C3.50088 7.31226 3.7456 6.72365 4.23449 6.23421C4.72338 5.74476 5.31199 5.50004 6.00033 5.50004C6.68866 5.50004 7.27727 5.74476 7.76616 6.23421C8.25505 6.72365 8.49977 7.31226 8.50033 8.00004C8.50033 8.25727 8.46227 8.5056 8.38616 8.74504C8.30949 8.98449 8.2056 9.20949 8.07449 9.42004L9.93283 11.2784C10.2534 10.6773 10.5114 10.0456 10.707 9.38338C10.9025 8.7206 11.0003 8.00949 11.0003 7.25004V3.31254L6.00033 1.45421L1.00033 3.31254V7.25004C1.00033 8.9306 1.47255 10.4584 2.41699 11.8334C3.36144 13.2084 4.55588 14.125 6.00033 14.5834C6.36144 14.4723 6.70533 14.33 7.03199 14.1567C7.35866 13.9834 7.68144 13.7784 8.00033 13.5417L8.52533 14.1634C8.11033 14.4634 7.70755 14.7178 7.31699 14.9267C6.92644 15.135 6.48755 15.3156 6.00033 15.4684ZM6.00033 9.66671C6.45866 9.66671 6.85116 9.50365 7.17783 9.17754C7.50449 8.85143 7.66755 8.45893 7.66699 8.00004C7.66644 7.54115 7.50338 7.14893 7.17783 6.82338C6.85227 6.49782 6.45977 6.33449 6.00033 6.33338C5.54088 6.33226 5.14866 6.4956 4.82366 6.82338C4.49866 7.15115 4.33533 7.54338 4.33366 8.00004C4.33199 8.45671 4.49533 8.84921 4.82366 9.17754C5.15199 9.50588 5.54421 9.66893 6.00033 9.66671Z" fill="#2F71EB"/>
</svg>
