<svg width="26" height="26" viewBox="0 0 26 26" fill="none" xmlns="http://www.w3.org/2000/svg">
<path fill-rule="evenodd" clip-rule="evenodd" d="M19.4904 6.51082L5.84904 11.4432L10.3936 14.0736L14.4009 10.0652C14.6041 9.8621 14.8798 9.74804 15.1672 9.74814C15.4545 9.74824 15.7301 9.8625 15.9332 10.0658C16.1364 10.2691 16.2504 10.5447 16.2503 10.8321C16.2502 11.1195 16.136 11.395 15.9327 11.5982L11.9244 15.6065L14.5569 20.15L19.4904 6.51082ZM19.8403 4.07982C21.1349 3.61074 22.3894 4.86524 21.9203 6.15982L16.1981 21.9819C15.728 23.2797 13.9556 23.4379 13.2634 22.243L9.77829 16.2218L3.75712 12.7367C2.56221 12.0445 2.72037 10.2722 4.01821 9.80199L19.8403 4.07982Z" fill="#2F71EB"/>
</svg>
