<svg width="26" height="26" viewBox="0 0 26 26" fill="none" xmlns="http://www.w3.org/2000/svg">
<path fill-rule="evenodd" clip-rule="evenodd" d="M19.4902 6.51082L5.84892 11.4432L10.3935 14.0736L14.4008 10.0652C14.604 9.8621 14.8797 9.74804 15.1671 9.74814C15.4544 9.74824 15.73 9.8625 15.9331 10.0658C16.1363 10.2691 16.2503 10.5447 16.2502 10.8321C16.2501 11.1195 16.1359 11.395 15.9326 11.5982L11.9243 15.6065L14.5568 20.15L19.4902 6.51082ZM19.8402 4.07982C21.1347 3.61074 22.3892 4.86524 21.9202 6.15982L16.198 21.9819C15.7278 23.2797 13.9555 23.4379 13.2633 22.243L9.77817 16.2218L3.757 12.7367C2.56208 12.0445 2.72025 10.2722 4.01808 9.80199L19.8402 4.07982Z" fill="white"/>
</svg>
