<svg width="21" height="21" viewBox="0 0 21 21" fill="none" xmlns="http://www.w3.org/2000/svg">
<path fill-rule="evenodd" clip-rule="evenodd" d="M17.4904 3.51085L3.84904 8.44327L8.39362 11.0736L12.4009 7.06527C12.6041 6.86213 12.8798 6.74807 13.1672 6.74817C13.4545 6.74827 13.7301 6.86253 13.9332 7.06581C14.1364 7.26908 14.2504 7.54473 14.2503 7.83211C14.2502 8.11948 14.136 8.39505 13.9327 8.59818L9.92437 12.6065L12.5569 17.15L17.4904 3.51085ZM17.8403 1.07985C19.1349 0.610766 20.3894 1.86527 19.9203 3.15985L14.1981 18.9819C13.728 20.2798 11.9556 20.4379 11.2634 19.243L7.77829 13.2218L1.75712 9.73677C0.562207 9.04452 0.720374 7.27218 2.01821 6.80202L17.8403 1.07985Z" fill="#2D2D2D"/>
</svg>
