<svg width="18" height="20" viewBox="0 0 18 20" fill="none" xmlns="http://www.w3.org/2000/svg">
<path d="M9 12.5C10.3807 12.5 11.5 11.3807 11.5 10C11.5 8.61929 10.3807 7.5 9 7.5C7.61929 7.5 6.5 8.61929 6.5 10C6.5 11.3807 7.61929 12.5 9 12.5Z" stroke="#2F71EB" stroke-width="1.5"/>
<path d="M10.4712 1.79341C10.1654 1.66675 9.77704 1.66675 9.00038 1.66675C8.22371 1.66675 7.83538 1.66675 7.52954 1.79341C7.32719 1.87718 7.14334 1.99999 6.98848 2.15485C6.83362 2.30971 6.7108 2.49357 6.62704 2.69591C6.55038 2.88175 6.51954 3.09925 6.50788 3.41508C6.50268 3.64341 6.43954 3.86666 6.32439 4.06389C6.20923 4.26112 6.04583 4.42584 5.84954 4.54258C5.65029 4.65428 5.42591 4.7135 5.19749 4.71467C4.96906 4.71583 4.74409 4.65891 4.54371 4.54925C4.26371 4.40091 4.06121 4.31925 3.86038 4.29258C3.42231 4.23497 2.97929 4.35367 2.62871 4.62258C2.36704 4.82508 2.17204 5.16091 1.78371 5.83341C1.39538 6.50591 1.20038 6.84175 1.15788 7.17091C1.12924 7.38796 1.14364 7.60852 1.20026 7.81999C1.25689 8.03147 1.35462 8.22972 1.48788 8.40341C1.61121 8.56341 1.78371 8.69758 2.05121 8.86591C2.44538 9.11341 2.69871 9.53508 2.69871 10.0001C2.69871 10.4651 2.44538 10.8867 2.05121 11.1334C1.78371 11.3026 1.61038 11.4367 1.48788 11.5967C1.35462 11.7704 1.25689 11.9687 1.20026 12.1802C1.14364 12.3916 1.12924 12.6122 1.15788 12.8292C1.20121 13.1576 1.39538 13.4942 1.78288 14.1667C2.17204 14.8392 2.36621 15.1751 2.62871 15.3776C2.80241 15.5108 3.00065 15.6086 3.21213 15.6652C3.42361 15.7218 3.64417 15.7362 3.86121 15.7076C4.06121 15.6809 4.26371 15.5992 4.54371 15.4509C4.74409 15.3413 4.96906 15.2843 5.19749 15.2855C5.42591 15.2867 5.65029 15.3459 5.84954 15.4576C6.25204 15.6909 6.49121 16.1201 6.50788 16.5851C6.51954 16.9017 6.54954 17.1184 6.62704 17.3042C6.7108 17.5066 6.83362 17.6905 6.98848 17.8453C7.14334 18.0002 7.32719 18.123 7.52954 18.2067C7.83538 18.3334 8.22371 18.3334 9.00038 18.3334C9.77704 18.3334 10.1654 18.3334 10.4712 18.2067C10.6736 18.123 10.8574 18.0002 11.0123 17.8453C11.1671 17.6905 11.2899 17.5066 11.3737 17.3042C11.4504 17.1184 11.4812 16.9017 11.4929 16.5851C11.5095 16.1201 11.7487 15.6901 12.1512 15.4576C12.3505 15.3459 12.5748 15.2867 12.8033 15.2855C13.0317 15.2843 13.2567 15.3413 13.457 15.4509C13.737 15.5992 13.9395 15.6809 14.1395 15.7076C14.3566 15.7362 14.5771 15.7218 14.7886 15.6652C15.0001 15.6086 15.1983 15.5108 15.372 15.3776C15.6345 15.1759 15.8287 14.8392 16.217 14.1667C16.6054 13.4942 16.8004 13.1584 16.8429 12.8292C16.8715 12.6122 16.8571 12.3916 16.8005 12.1802C16.7439 11.9687 16.6461 11.7704 16.5129 11.5967C16.3895 11.4367 16.217 11.3026 15.9495 11.1342C15.7543 11.0156 15.5925 10.8492 15.4792 10.6508C15.3659 10.4525 15.305 10.2285 15.302 10.0001C15.302 9.53508 15.5554 9.11341 15.9495 8.86675C16.217 8.69758 16.3904 8.56341 16.5129 8.40341C16.6461 8.22972 16.7439 8.03147 16.8005 7.81999C16.8571 7.60852 16.8715 7.38796 16.8429 7.17091C16.7995 6.84258 16.6054 6.50591 16.2179 5.83341C15.8287 5.16091 15.6345 4.82508 15.372 4.62258C15.1983 4.48932 15.0001 4.39159 14.7886 4.33497C14.5771 4.27835 14.3566 4.26394 14.1395 4.29258C13.9395 4.31925 13.737 4.40091 13.4562 4.54925C13.2559 4.65876 13.0311 4.7156 12.8028 4.71443C12.5746 4.71327 12.3504 4.65413 12.1512 4.54258C11.9549 4.42584 11.7915 4.26112 11.6764 4.06389C11.5612 3.86666 11.4981 3.64341 11.4929 3.41508C11.4812 3.09841 11.4512 2.88175 11.3737 2.69591C11.2899 2.49357 11.1671 2.30971 11.0123 2.15485C10.8574 1.99999 10.6736 1.87718 10.4712 1.79341Z" stroke="#2F71EB" stroke-width="1.5"/>
</svg>
