<svg width="20" height="22" viewBox="0 0 20 22" fill="none" xmlns="http://www.w3.org/2000/svg">
<path d="M5.21717 9.90699C4.97504 9.4713 4.59508 9.12836 4.13694 8.93198C3.67881 8.7356 3.16843 8.6969 2.68593 8.82197C2.20342 8.94704 1.77611 9.22879 1.47106 9.623C1.166 10.0172 1.00049 10.5015 1.00049 11C1.00049 11.4984 1.166 11.9828 1.47106 12.377C1.77611 12.7712 2.20342 13.0529 2.68593 13.178C3.16843 13.3031 3.67881 13.2644 4.13694 13.068C4.59508 12.8716 4.97504 12.5287 5.21717 12.093M5.21717 9.90699C5.39717 10.231 5.50017 10.603 5.50017 11C5.50017 11.397 5.39717 11.77 5.21717 12.093M5.21717 9.90699L14.7832 4.59299M5.21717 12.093L14.7832 17.407M14.7832 4.59299C14.9234 4.85713 15.1149 5.09066 15.3465 5.27992C15.5781 5.46919 15.845 5.61039 16.1318 5.69527C16.4186 5.78015 16.7194 5.80702 17.0166 5.77429C17.3139 5.74156 17.6017 5.64989 17.8631 5.50465C18.1245 5.35942 18.3544 5.16351 18.5392 4.92841C18.7241 4.6933 18.8602 4.4237 18.9396 4.13538C19.019 3.84705 19.0402 3.54578 19.0018 3.24919C18.9635 2.95259 18.8663 2.66662 18.7162 2.40799C18.4202 1.89833 17.9362 1.52513 17.368 1.36861C16.7998 1.21208 16.1929 1.28474 15.6777 1.57095C15.1625 1.85716 14.7802 2.33408 14.6129 2.89919C14.4457 3.4643 14.5068 4.07248 14.7832 4.59299ZM14.7832 17.407C14.6396 17.6654 14.5484 17.9495 14.5147 18.2431C14.4809 18.5368 14.5054 18.8342 14.5866 19.1184C14.6678 19.4026 14.8042 19.668 14.9879 19.8995C15.1717 20.1309 15.3993 20.324 15.6577 20.4675C15.916 20.611 16.2002 20.7023 16.4938 20.736C16.7874 20.7697 17.0848 20.7453 17.369 20.6641C17.6532 20.5829 17.9186 20.4465 18.1501 20.2627C18.3816 20.0789 18.5746 19.8514 18.7182 19.593C19.0081 19.0712 19.0788 18.4556 18.9148 17.8816C18.7508 17.3077 18.3655 16.8224 17.8437 16.5325C17.3219 16.2426 16.7063 16.1719 16.1323 16.3359C15.5584 16.4999 15.0731 16.8852 14.7832 17.407Z" stroke="#2F71EB" stroke-width="1.5" stroke-linecap="round" stroke-linejoin="round"/>
</svg>
