<svg width="13" height="14" viewBox="0 0 13 14" fill="none" xmlns="http://www.w3.org/2000/svg">
<path fill-rule="evenodd" clip-rule="evenodd" d="M11.5555 5.77734H1.1582C0.916703 5.77734 0.720703 5.58134 0.720703 5.33984C0.720703 5.09834 0.916703 4.90234 1.1582 4.90234H11.5555C11.797 4.90234 11.993 5.09834 11.993 5.33984C11.993 5.58134 11.797 5.77734 11.5555 5.77734Z" fill="#027D52"/>
<path fill-rule="evenodd" clip-rule="evenodd" d="M8.95058 8.05542C8.70908 8.05542 8.51074 7.85942 8.51074 7.61792C8.51074 7.37642 8.70383 7.18042 8.94533 7.18042H8.95058C9.19208 7.18042 9.38808 7.37642 9.38808 7.61792C9.38808 7.85942 9.19208 8.05542 8.95058 8.05542Z" fill="#027D52"/>
<path fill-rule="evenodd" clip-rule="evenodd" d="M6.3622 8.05542C6.1207 8.05542 5.92236 7.85942 5.92236 7.61792C5.92236 7.37642 6.11545 7.18042 6.35695 7.18042H6.3622C6.6037 7.18042 6.7997 7.37642 6.7997 7.61792C6.7997 7.85942 6.6037 8.05542 6.3622 8.05542Z" fill="#027D52"/>
<path fill-rule="evenodd" clip-rule="evenodd" d="M3.76805 8.05542C3.52655 8.05542 3.32764 7.85942 3.32764 7.61792C3.32764 7.37642 3.5213 7.18042 3.7628 7.18042H3.76805C4.00955 7.18042 4.20555 7.37642 4.20555 7.61792C4.20555 7.85942 4.00955 8.05542 3.76805 8.05542Z" fill="#027D52"/>
<path fill-rule="evenodd" clip-rule="evenodd" d="M8.95058 10.3228C8.70908 10.3228 8.51074 10.1268 8.51074 9.88525C8.51074 9.64375 8.70383 9.44775 8.94533 9.44775H8.95058C9.19208 9.44775 9.38808 9.64375 9.38808 9.88525C9.38808 10.1268 9.19208 10.3228 8.95058 10.3228Z" fill="#027D52"/>
<path fill-rule="evenodd" clip-rule="evenodd" d="M6.3622 10.3228C6.1207 10.3228 5.92236 10.1268 5.92236 9.88525C5.92236 9.64375 6.11545 9.44775 6.35695 9.44775H6.3622C6.6037 9.44775 6.7997 9.64375 6.7997 9.88525C6.7997 10.1268 6.6037 10.3228 6.3622 10.3228Z" fill="#027D52"/>
<path fill-rule="evenodd" clip-rule="evenodd" d="M3.76805 10.3228C3.52655 10.3228 3.32764 10.1268 3.32764 9.88525C3.32764 9.64375 3.5213 9.44775 3.7628 9.44775H3.76805C4.00955 9.44775 4.20555 9.64375 4.20555 9.88525C4.20555 10.1268 4.00955 10.3228 3.76805 10.3228Z" fill="#027D52"/>
<path fill-rule="evenodd" clip-rule="evenodd" d="M8.71289 3.378C8.47139 3.378 8.27539 3.182 8.27539 2.9405V1.02075C8.27539 0.779252 8.47139 0.583252 8.71289 0.583252C8.95439 0.583252 9.15039 0.779252 9.15039 1.02075V2.9405C9.15039 3.182 8.95439 3.378 8.71289 3.378Z" fill="#027D52"/>
<path fill-rule="evenodd" clip-rule="evenodd" d="M4.00049 3.378C3.75899 3.378 3.56299 3.182 3.56299 2.9405V1.02075C3.56299 0.779252 3.75899 0.583252 4.00049 0.583252C4.24199 0.583252 4.43799 0.779252 4.43799 1.02075V2.9405C4.43799 3.182 4.24199 3.378 4.00049 3.378Z" fill="#027D52"/>
<mask id="mask0_1148_37" style="mask-type:alpha" maskUnits="userSpaceOnUse" x="0" y="1" width="13" height="13">
<path fill-rule="evenodd" clip-rule="evenodd" d="M0.666504 1.50439H12.0415V13.1249H0.666504V1.50439Z" fill="white"/>
</mask>
<g mask="url(#mask0_1148_37)">
<path fill-rule="evenodd" clip-rule="evenodd" d="M3.88709 2.37939C2.3745 2.37939 1.5415 3.18614 1.5415 4.65089V9.92948C1.5415 11.4263 2.3745 12.25 3.88709 12.25H8.82092C10.3335 12.25 11.1665 11.4415 11.1665 9.97381V4.65089C11.1688 3.93048 10.9752 3.37048 10.5908 2.98548C10.1953 2.58881 9.58567 2.37939 8.82617 2.37939H3.88709ZM8.82092 13.125H3.88709C1.90084 13.125 0.666504 11.9006 0.666504 9.92948V4.65089C0.666504 2.70956 1.90084 1.50439 3.88709 1.50439H8.82617C9.82309 1.50439 10.6473 1.80306 11.2103 2.36714C11.7568 2.91606 12.0444 3.70531 12.0415 4.65206V9.97381C12.0415 11.9175 10.8072 13.125 8.82092 13.125Z" fill="#027D52"/>
</g>
</svg>
