<svg width="14" height="14" viewBox="0 0 14 14" fill="none" xmlns="http://www.w3.org/2000/svg">
<path fill-rule="evenodd" clip-rule="evenodd" d="M9.16772 9.90137H4.95605C4.71455 9.90137 4.51855 9.70537 4.51855 9.46387C4.51855 9.22237 4.71455 9.02637 4.95605 9.02637H9.16772C9.40922 9.02637 9.60522 9.22237 9.60522 9.46387C9.60522 9.70537 9.40922 9.90137 9.16772 9.90137Z" fill="#027D52"/>
<path fill-rule="evenodd" clip-rule="evenodd" d="M9.16772 7.45923H4.95605C4.71455 7.45923 4.51855 7.26323 4.51855 7.02173C4.51855 6.78023 4.71455 6.58423 4.95605 6.58423H9.16772C9.40922 6.58423 9.60522 6.78023 9.60522 7.02173C9.60522 7.26323 9.40922 7.45923 9.16772 7.45923Z" fill="#027D52"/>
<path fill-rule="evenodd" clip-rule="evenodd" d="M6.56265 5.02271H4.95557C4.71407 5.02271 4.51807 4.82671 4.51807 4.58521C4.51807 4.34371 4.71407 4.14771 4.95557 4.14771H6.56265C6.80415 4.14771 7.00015 4.34371 7.00015 4.58521C7.00015 4.82671 6.80415 5.02271 6.56265 5.02271Z" fill="#027D52"/>
<mask id="mask0_703_44112" style="mask-type:alpha" maskUnits="userSpaceOnUse" x="1" y="1" width="12" height="12">
<path fill-rule="evenodd" clip-rule="evenodd" d="M1.75 1.16675H12.3461V12.7808H1.75V1.16675Z" fill="white"/>
</mask>
<g mask="url(#mask0_703_44112)">
<path fill-rule="evenodd" clip-rule="evenodd" d="M9.28025 2.04175L4.795 2.04408C3.437 2.05225 2.625 2.89225 2.625 4.29166V9.656C2.625 11.0647 3.44458 11.9059 4.816 11.9059L9.30125 11.9042C10.6593 11.896 11.4713 11.0548 11.4713 9.656V4.29166C11.4713 2.88291 10.6523 2.04175 9.28025 2.04175ZM4.81658 12.7809C2.98258 12.7809 1.75 11.525 1.75 9.656V4.29166C1.75 2.40575 2.94408 1.18016 4.79208 1.16908L9.27967 1.16675H9.28025C11.1143 1.16675 12.3463 2.42266 12.3463 4.29166V9.656C12.3463 11.5413 11.1522 12.7675 9.30417 12.7792L4.81658 12.7809Z" fill="#027D52"/>
</g>
</svg>
