<svg width="25" height="26" viewBox="0 0 25 26" fill="none" xmlns="http://www.w3.org/2000/svg">
<path d="M10.75 0.5V3.7915C6.986 4.5075 4.0075 7.486 3.2915 11.25H0V14.75H3.2915C4.0075 18.514 6.986 21.4925 10.75 22.2085V25.5H14.25V22.2085C18.014 21.4925 20.9925 18.514 21.7085 14.75H25V11.25H21.7085C20.9925 7.486 18.014 4.5075 14.25 3.7915V0.5H10.75ZM12.5 6.125C13.4035 6.12253 14.2986 6.29866 15.1339 6.64329C15.9691 6.98791 16.728 7.49423 17.3669 8.13312C18.0058 8.77202 18.5121 9.5309 18.8567 10.3661C19.2013 11.2014 19.3775 12.0965 19.375 13C19.3775 13.9035 19.2013 14.7986 18.8567 15.6339C18.5121 16.4691 18.0058 17.228 17.3669 17.8669C16.728 18.5058 15.9691 19.0121 15.1339 19.3567C14.2986 19.7013 13.4035 19.8775 12.5 19.875C11.5965 19.8775 10.7014 19.7013 9.86613 19.3567C9.0309 19.0121 8.27202 18.5058 7.63312 17.8669C6.99423 17.228 6.48791 16.4691 6.14329 15.6339C5.79866 14.7986 5.62253 13.9035 5.625 13C5.62253 12.0965 5.79866 11.2014 6.14329 10.3661C6.48791 9.5309 6.99423 8.77202 7.63312 8.13312C8.27202 7.49423 9.0309 6.98791 9.86613 6.64329C10.7014 6.29866 11.5965 6.12253 12.5 6.125Z" fill="#14A673"/>
</svg>
