<svg width="113" height="98" viewBox="0 0 113 98" fill="none" xmlns="http://www.w3.org/2000/svg">
<path fill-rule="evenodd" clip-rule="evenodd" d="M38.9055 88.334C60.002 89.4396 81.1716 73.7004 86.1893 53.1795C88.6218 43.2312 86.8117 33.9854 81.8971 26.9731C91.6692 34.0097 96.3671 46.379 93.0168 60.0808C87.9991 80.6017 66.8294 96.3409 45.733 95.2353C34.8638 94.6657 26.1347 89.7358 20.9118 82.2834C25.7751 85.7854 31.8952 87.9666 38.9055 88.334Z" fill="#027D52"/>
<path d="M102.818 37.7314L111.5 36.1756" stroke="#027D52" stroke-width="2" stroke-linecap="round"/>
<path d="M106.222 46.0374L110.25 46.9823" stroke="#027D52" stroke-width="2" stroke-linecap="round"/>
<path d="M29.6035 7.1822L28.2615 2.02686" stroke="#027D52" stroke-width="2" stroke-linecap="round"/>
<path d="M21.9643 8.67827L14.1755 1" stroke="#027D52" stroke-width="2" stroke-linecap="round"/>
<path d="M17.3365 15.7395L10.307 12.8973" stroke="#027D52" stroke-width="2" stroke-linecap="round"/>
<circle cx="38.251" cy="38.251" r="38.251" transform="matrix(0.99863 0.052336 -0.237516 0.971384 18.6705 11.6801)" stroke="#027D52" stroke-width="2"/>
<path d="M70.8815 42.2806C58.5696 42.693 27.9559 83.6434 34.2161 43.4236" stroke="#027D52" stroke-width="2" stroke-linecap="round"/>
</svg>
