<svg width="23" height="23" viewBox="0 0 23 23" fill="none" xmlns="http://www.w3.org/2000/svg">
<path fill-rule="evenodd" clip-rule="evenodd" d="M11.7427 16.3567C11.309 16.3567 10.957 16.0047 10.957 15.571V7.89509C10.957 7.46137 11.309 7.10938 11.7427 7.10938C12.1765 7.10938 12.5285 7.46137 12.5285 7.89509V15.571C12.5285 16.0047 12.1765 16.3567 11.7427 16.3567" fill="#027D52"/>
<path fill-rule="evenodd" clip-rule="evenodd" d="M15.5812 12.5167H7.899C7.46423 12.5167 7.11328 12.1647 7.11328 11.731C7.11328 11.2973 7.46423 10.9453 7.899 10.9453H15.5812C16.0149 10.9453 16.3669 11.2973 16.3669 11.731C16.3669 12.1647 16.0149 12.5167 15.5812 12.5167" fill="#027D52"/>
<path fill-rule="evenodd" clip-rule="evenodd" d="M6.83323 2.0519C3.92923 2.0519 2.0519 4.03923 2.0519 7.11714V16.3676C2.0519 19.4455 3.92923 21.4328 6.83323 21.4328H16.6515C19.5566 21.4328 21.4328 19.4455 21.4328 16.3676V7.11714C21.4328 4.03923 19.5566 2.0519 16.6515 2.0519H6.83323ZM16.6515 23.0043H6.83323C3.03352 23.0043 0.480469 20.337 0.480469 16.3676V7.11714C0.480469 3.14771 3.03352 0.480469 6.83323 0.480469H16.6515C20.4512 0.480469 23.0043 3.14771 23.0043 7.11714V16.3676C23.0043 20.337 20.4512 23.0043 16.6515 23.0043V23.0043Z" fill="#027D52"/>
</svg>
