<svg width="21" height="20" viewBox="0 0 21 20" fill="none" xmlns="http://www.w3.org/2000/svg">
<path d="M10.5039 14.1654V8.33203M10.5039 8.33203L8.00391 10.832M10.5039 8.33203L13.0039 10.832" stroke="white" stroke-width="1.25" stroke-linecap="round" stroke-linejoin="round"/>
<path d="M7.16927 5.83203H13.8359" stroke="white" stroke-width="1.25" stroke-linecap="round"/>
<path d="M10.5026 1.66406C14.4309 1.66406 16.3951 1.66406 17.6159 2.88406C18.8359 4.10573 18.8359 6.06906 18.8359 9.9974C18.8359 13.9257 18.8359 15.8899 17.6159 17.1099C16.3943 18.3307 14.4309 18.3307 10.5026 18.3307C6.57427 18.3307 4.6101 18.3307 3.3901 17.1099C2.16927 15.8907 2.16927 13.9257 2.16927 9.9974C2.16927 6.06906 2.16927 4.1049 3.3901 2.88406C4.60927 1.66406 6.57427 1.66406 10.5026 1.66406Z" stroke="white" stroke-width="1.25"/>
</svg>
