<svg width="126" height="84" viewBox="0 0 126 84" fill="none" xmlns="http://www.w3.org/2000/svg">
<rect x="0.5" width="125" height="83.6039" rx="10" fill="#14A673"/>
<mask id="mask0_2096_84114" style="mask-type:alpha" maskUnits="userSpaceOnUse" x="42" y="18" width="41" height="48">
<path fill-rule="evenodd" clip-rule="evenodd" d="M42.5005 18.694H82.2889V65.0188H42.5005V18.694Z" fill="white"/>
</mask>
<g mask="url(#mask0_2096_84114)">
<path fill-rule="evenodd" clip-rule="evenodd" d="M53.171 22.194C49.3046 22.194 46.094 25.3253 46.003 29.187V54.198C45.919 58.167 49.0456 61.4336 52.9773 61.52H71.8376C75.732 61.38 78.8143 58.167 78.7886 54.2096V33.4593L67.976 22.194H53.199H53.171ZM53.199 65.02H52.905C47.0436 64.894 42.377 60.022 42.503 54.1606V29.145C42.6406 23.356 47.4193 18.694 53.164 18.694H53.206H68.7203C69.1963 18.694 69.6513 18.8876 69.9826 19.2306L81.8033 31.5436C82.1136 31.868 82.2886 32.3043 82.2886 32.7546V54.198C82.326 60.0523 77.762 64.81 71.8983 65.02H53.199Z" fill="#2FCF97"/>
</g>
<path fill-rule="evenodd" clip-rule="evenodd" d="M80.5284 34.9634H74.1024C69.83 34.9517 66.3604 31.4704 66.3604 27.205V20.4174C66.3604 19.4514 67.1444 18.6674 68.1104 18.6674C69.0764 18.6674 69.8604 19.4514 69.8604 20.4174V27.205C69.8604 29.5477 71.7644 31.4564 74.107 31.4634H80.5284C81.4944 31.4634 82.2784 32.2474 82.2784 33.2134C82.2784 34.1794 81.4944 34.9634 80.5284 34.9634Z" fill="#2FCF97"/>
<path fill-rule="evenodd" clip-rule="evenodd" d="M61.4971 52.9671C60.5311 52.9671 59.7471 52.1831 59.7471 51.2171V37.1215C59.7471 36.1555 60.5311 35.3715 61.4971 35.3715C62.4631 35.3715 63.2471 36.1555 63.2471 37.1215V51.2171C63.2471 52.1831 62.4631 52.9671 61.4971 52.9671Z" fill="#2FCF97"/>
<path fill-rule="evenodd" clip-rule="evenodd" d="M56.0263 44.3674C55.5806 44.3674 55.1326 44.1971 54.7919 43.8564C54.1083 43.1751 54.1036 42.0691 54.7873 41.3831L60.2566 35.8857C60.9146 35.2254 62.0813 35.2254 62.7369 35.8857L68.2109 41.3831C68.8923 42.0691 68.8899 43.1751 68.2063 43.8564C67.5203 44.5377 66.4119 44.5377 65.7306 43.8517L61.4979 39.6004L57.2653 43.8517C56.9246 44.1971 56.4743 44.3674 56.0263 44.3674Z" fill="#2FCF97"/>
</svg>
