<svg width="26" height="26" viewBox="0 0 26 26" fill="none" xmlns="http://www.w3.org/2000/svg">
<path opacity="0.5" d="M19.5 14.0859C21.2951 14.0859 22.75 15.4726 22.75 17.181C22.75 20.2761 19.5 22.7526 19.5 22.7526C19.5 22.7526 16.25 20.5859 16.25 17.181C16.25 15.4726 17.7049 14.0859 19.5 14.0859ZM19.5 18.4193C19.7873 18.4193 20.0629 18.3051 20.266 18.102C20.4692 17.8988 20.5833 17.6233 20.5833 17.3359C20.5833 17.0486 20.4692 16.7731 20.266 16.5699C20.0629 16.3667 19.7873 16.2526 19.5 16.2526C19.2127 16.2526 18.9371 16.3667 18.734 16.5699C18.5308 16.7731 18.4167 17.0486 18.4167 17.3359C18.4167 17.6233 18.5308 17.8988 18.734 18.102C18.9371 18.3051 19.2127 18.4193 19.5 18.4193Z" fill="#CC9A06"/>
<path d="M10.8345 4.0625C9.4229 4.0625 8.31356 5.174 8.31356 6.5C8.31356 7.826 9.42181 8.9375 10.8345 8.9375C12.2471 8.9375 13.3565 7.826 13.3565 6.5C13.3565 5.174 12.2471 4.0625 10.8345 4.0625ZM6.68856 6.5C6.68856 4.23583 8.5649 2.4375 10.8366 2.4375C13.1073 2.4375 14.9836 4.23583 14.9836 6.5C14.9836 8.76417 13.1073 10.5625 10.8366 10.5625C8.56598 10.5625 6.68531 8.76417 6.68531 6.5M8.09365 12.9632C7.8954 12.8364 7.74698 12.8288 7.67765 12.8472C7.52165 12.8906 7.36673 12.9368 7.2129 12.9859L6.1469 13.3272C5.7817 13.4396 5.44773 13.6356 5.17149 13.8997C4.89525 14.1637 4.68433 14.4884 4.55548 14.8482C4.52663 14.9441 4.50811 15.0429 4.50023 15.1428L4.07665 19.1501L4.07448 19.1642C3.99323 19.7351 4.29765 20.1717 4.76023 20.28C5.92698 20.5508 7.89215 20.8542 10.8334 20.8542C11.0489 20.8542 11.2555 20.9398 11.4079 21.0921C11.5603 21.2445 11.6459 21.4512 11.6459 21.6667C11.6459 21.8822 11.5603 22.0888 11.4079 22.2412C11.2555 22.3936 11.0489 22.4792 10.8334 22.4792C7.78056 22.4792 5.69081 22.1628 4.39298 21.8617C2.99656 21.5377 2.28915 20.2258 2.46356 18.9507L2.8839 14.9717C2.9034 14.7853 2.93806 14.5546 3.0204 14.3173C3.23168 13.7192 3.57938 13.1785 4.03595 12.7381C4.49251 12.2977 5.04538 11.9698 5.65073 11.7802L6.71781 11.4378C6.89331 11.3822 7.06954 11.3299 7.24648 11.2807C7.9084 11.0987 8.53781 11.3165 8.97548 11.5992C9.37631 11.8592 10.0306 12.1723 10.8334 12.1723C11.6351 12.1723 12.2894 11.8582 12.6902 11.5982C13.1268 11.3165 13.7573 11.0987 14.4192 11.2807C14.5962 11.3299 14.7724 11.3822 14.9479 11.4378L16.015 11.7802C16.1187 11.811 16.2152 11.8622 16.2988 11.9308C16.3825 11.9994 16.4516 12.084 16.5021 12.1796C16.5526 12.2753 16.5835 12.3801 16.593 12.4878C16.6025 12.5956 16.5903 12.7042 16.5573 12.8072C16.5243 12.9102 16.471 13.0056 16.4006 13.0877C16.3302 13.1698 16.2441 13.2371 16.1474 13.2855C16.0507 13.334 15.9452 13.3626 15.8373 13.3698C15.7294 13.3769 15.6211 13.3624 15.5188 13.3272L14.4528 12.9859C14.2985 12.9365 14.1432 12.8903 13.987 12.8472C13.9187 12.8288 13.7703 12.8364 13.5731 12.9632C13.0174 13.3228 12.0565 13.7973 10.8323 13.7973C9.60815 13.7973 8.6494 13.3228 8.09365 12.9632Z" fill="#CC9A06"/>
</svg>
