<svg width="21" height="20" viewBox="0 0 21 20" fill="none" xmlns="http://www.w3.org/2000/svg">
<path d="M10.4961 5.83464V11.668M10.4961 11.668L12.9961 9.16797M10.4961 11.668L7.99609 9.16797" stroke="white" stroke-width="1.25" stroke-linecap="round" stroke-linejoin="round"/>
<path d="M13.8307 14.168H7.16406" stroke="white" stroke-width="1.25" stroke-linecap="round"/>
<path d="M10.4974 18.3359C6.56906 18.3359 4.6049 18.3359 3.38406 17.1159C2.16406 15.8943 2.16406 13.9309 2.16406 10.0026C2.16406 6.07427 2.16406 4.1101 3.38406 2.8901C4.60573 1.66927 6.56906 1.66927 10.4974 1.66927C14.4257 1.66927 16.3899 1.66927 17.6099 2.8901C18.8307 4.10927 18.8307 6.07427 18.8307 10.0026C18.8307 13.9309 18.8307 15.8951 17.6099 17.1159C16.3907 18.3359 14.4257 18.3359 10.4974 18.3359Z" stroke="white" stroke-width="1.25"/>
</svg>
